<svg width="172" height="39" viewBox="0 0 172 39" fill="none" xmlns="http://www.w3.org/2000/svg">
<g id="about">
<g id="a4">
<path id="Vector 108" d="M9.26648 10.5834C12.5098 10.5834 14.6626 10.3306 17.043 12.711C18.049 13.717 18.7082 19.7448 17.7032 21.001C16.0911 23.0161 15.2089 27.1255 15.2089 29.7312C15.2089 33.831 18.5181 34.353 21.8115 34.353" stroke="#A18276" stroke-width="3" stroke-linecap="round"/>
<path id="Vector 109" d="M16.5294 21.8078C12.0036 21.8078 2.00355 21.0428 2.00355 27.0899C2.00355 29.9714 1.77379 32.7309 5.01143 33.6559C6.77192 34.1589 11.9065 33.0345 12.5678 31.7118" stroke="#A18276" stroke-width="3" stroke-linecap="round"/>
</g>
<g id="b">
<path id="Vector 110" d="M33.6963 5.30127C33.6963 10.9135 33.6963 16.5258 33.6963 22.1381C33.6963 24.7006 34.3566 26.5361 34.3566 29.0709C34.3566 31.0639 33.6963 37.0063 33.6963 35.0133" stroke="#A18276" stroke-width="3" stroke-linecap="round"/>
<path id="Vector 111" d="M33.0361 21.8079C38.2946 21.8079 43.6003 23.038 43.6003 29.4009C43.6003 31.6781 43.4281 34.1552 41.2894 35.3433C39.733 36.208 34.9967 35.7139 34.3566 36.994" stroke="#A18276" stroke-width="3" stroke-linecap="round"/>
</g>
<path id="o5" d="M58.1262 19.1668C53.0127 19.1668 53.5044 24.3133 53.5044 28.4105C53.5044 32.2747 58.2323 37.2547 61.9411 33.5459C65.4427 30.0443 66.7097 29.0785 66.7097 23.7886C66.7097 21.4244 66.2243 20.2954 64.5822 18.6532C63.5771 17.6481 60.1211 17.1578 59.4468 18.5065" stroke="#A18276" stroke-width="3" stroke-linecap="round"/>
<path id="u2" d="M74.6329 16.5259C74.6329 21.5579 74.5523 32.3723 81.2355 32.3723C84.8858 32.3723 87.8382 30.7661 87.8382 26.76C87.8382 24.947 87.6544 23.6408 87.2146 22.1015C86.8182 20.7142 85.8574 19.3213 85.8574 17.8464" stroke="#A18276" stroke-width="3" stroke-linecap="round"/>
<g id="t4">
<path id="Vector 114" d="M99.0627 2C97.5386 2.1905 98.4024 18.6772 98.4024 20.8176C98.4024 22.4959 98.5988 28.2669 101.043 28.4107C103.466 28.5532 107.152 28.7381 108.306 26.4299" stroke="#A18276" stroke-width="3" stroke-linecap="round"/>
<path id="Vector 115" d="M91.1395 9.26297C94.4134 9.26297 97.8115 9.04697 100.75 9.88655C102.816 10.4769 109.324 8.65675 110.287 10.5835" stroke="#A18276" stroke-width="3" stroke-linecap="round"/>
</g>
<g id="m">
<path id="Vector 116" d="M127.454 9.9231C127.454 17.0479 128.114 24.2396 128.114 31.0516" stroke="#A18276" stroke-width="3" stroke-linecap="round"/>
<path id="Vector 117" d="M126.794 17.1862C130.071 14.2734 132.87 12.8969 136.038 16.856C138.805 20.3158 138.018 25.3733 138.018 29.7312" stroke="#A18276" stroke-width="3" stroke-linecap="round"/>
<path id="Vector 118" d="M138.018 19.1669C138.469 15.5632 145.006 12.9 147.592 14.9118C150.323 17.0357 151.163 25.5307 149.243 28.4106" stroke="#A18276" stroke-width="3" stroke-linecap="round"/>
</g>
<path id="e4" d="M158.487 15.8656C159.968 15.8656 164.463 16.6308 165.603 15.7189C166.923 14.6627 170.535 12.4342 168.537 10.4367C165.886 7.78483 159.129 7.83891 157.863 12.2708C156.887 15.6875 156.101 21.7969 158.487 24.7792C161.779 28.8949 165.421 27.0901 169.711 27.0901" stroke="#A18276" stroke-width="3" stroke-linecap="round"/>
</g>
</svg>
