<svg width="558" height="313" viewBox="0 0 558 313" fill="none" xmlns="http://www.w3.org/2000/svg">
<path d="M82.8318 21.8475C66.7653 5.91866 31.8123 13.7009 17.5585 27.8326C2.40415 42.857 -1.64353 66.7051 20.1996 79.0799C29.2091 84.1841 89.975 102.267 96.2261 80.5762C99.1176 70.5425 103.296 55.6252 95.6601 46.1619C90.2168 39.4161 82.8318 27.2913 82.8318 18.4808" stroke="white" stroke-width="10" stroke-linecap="round"/>
<path d="M96 73C103.875 82.3848 112.028 93.0987 125.459 93.0987C135.681 93.0987 145.903 93.0987 156.124 93.0987C184.148 93.0987 212.171 93.0987 240.195 93.0987C271.649 93.0987 304.931 92.3194 335.636 98.9393C349.025 101.826 365.205 102.375 378.963 102.375C394.035 102.375 411.712 104.718 426.597 107.357C451.121 111.704 469.845 121.662 486.721 139.48C497.983 151.37 502.883 173.804 503.777 188.954C504.74 205.279 511.529 221.938 511.529 238.428C511.529 248.772 516.181 258.761 516.181 269.349C516.181 276.346 522.524 304.837 516.181 308" stroke="white" stroke-width="10" stroke-linecap="round"/>
<path d="M164 94C163.321 99.5403 150.728 105.369 148.899 111.896C147.209 117.93 148.476 128.045 148.815 134.265C149.189 141.139 153.37 147.581 153.37 155.173C153.37 163.174 153.37 171.176 153.37 179.177C153.37 190.448 153.033 201.204 149.996 212.043C147.648 220.425 146.86 229.815 142.741 237.166C140.26 241.593 136.87 247.059 133.967 250.76C130.047 255.758 129.343 265.765 123 269" stroke="white" stroke-width="10" stroke-linecap="round"/>
<path d="M155 152C158.197 152.353 161.365 155.994 164.391 157.31C174.099 161.532 186.038 163.896 196.355 165.532C218.29 169.01 240.367 170.5 262.524 170.5C303.101 170.5 343.209 180.146 383.661 182.919C406.052 184.454 427.117 182.833 449.571 182.833C460.158 182.833 471.663 184.836 482.224 186.002C485.824 186.4 502.855 187.996 500.834 189" stroke="white" stroke-width="10" stroke-linecap="round"/>
<path d="M235.388 172C235.388 177.388 235.388 182.776 235.388 188.164C235.388 194.799 240 201.311 240 208.178C240 222.216 234.967 229.119 228.896 241.276C224.419 250.242 223.008 259.081 216.938 266.678C214.382 269.877 210.972 273.173 208.909 276.684C206.743 280.372 201.794 283.923 198.831 287.118C195.197 291.037 192.584 292.548 198.489 289" stroke="white" stroke-width="10" stroke-linecap="round"/>
<path d="M449.054 187C449.054 200.809 446.13 219.241 451.811 232.045C455.102 239.465 453.706 251.8 453.706 260.004C453.706 270.025 454.207 274.344 447.16 281.405C444.785 283.783 433.288 295.203 432 292.623" stroke="white" stroke-width="10" stroke-linecap="round"/>
<path d="M49.7714 35C47.2715 35.3119 45 39.9848 45 42.1427C45 47.359 48.7628 47.2111 52.9523 48.9327C55.7019 50.0626 56.9783 36.5873 48.1809 36.5873" stroke="white" stroke-width="10" stroke-linecap="round"/>
<path d="M78 18.7847C78.5587 14.2678 89.6823 3.3127 94.5712 8.25334C100.598 14.3436 85.708 21.8514 84.1501 25" stroke="white" stroke-width="10" stroke-linecap="round"/>
<path d="M59 15C59 -2.7528 86.0126 6.94043 69.8406 15" stroke="white" stroke-width="10" stroke-linecap="round"/>
<path d="M6.53908 49.0228C9.82244 49.0228 26.4262 48.223 19.1937 56.1021C14.3555 61.3728 9.79385 58.3407 5 55.7295" stroke="white" stroke-width="10" stroke-linecap="round"/>
<path d="M470 127C478.757 127 495.645 114.082 499.204 105.965C504.174 94.6275 499.639 76.6087 483.065 80.3424C472.53 82.7156 480.219 90.5138 485.456 93.5C494.117 98.4388 511.229 101.608 520.722 97.0491C535.558 89.925 541.861 71.2915 553 60" stroke="white" stroke-width="10" stroke-linecap="round"/>
</svg>
