<svg width="106" height="94" viewBox="0 0 106 94" fill="none" xmlns="http://www.w3.org/2000/svg">
<g id="face">
<path id="head" d="M81.0772 13.3151C80.9318 11.8602 79.5654 10.5065 78.3868 9.81428C75.7077 8.24084 72.8732 6.88273 69.9914 5.73003C63.9401 3.30951 57.9841 2.22925 51.4827 2.22925C44.4557 2.22925 37.3805 5.3647 31.4666 8.95529C27.9381 11.0976 24.3943 13.5749 21.256 16.2648C19.6639 17.6294 18.1142 19.057 16.5883 20.4949C14.0965 22.8429 12.331 25.7741 10.1864 28.4203C7.312 31.9669 4.2951 35.4053 2.9579 39.8627C1.79047 43.7541 2.01787 47.8127 2.01787 51.8237C2.01787 62.6091 3.65576 73.9374 12.3419 81.2724C18.2982 86.3022 25.1053 89.0574 32.7146 90.624C37.8587 91.6831 43.1575 92.1189 48.4033 92.0827C53.8828 92.0449 58.7959 90.6554 64.0109 89.1654C78.9753 84.8898 92.5989 75.0636 100.85 61.8074C103.974 56.7881 104.416 52.2949 104.416 46.5725C104.416 39.9662 103.542 33.0288 99.894 27.3182C98.1465 24.5831 96.5462 22.2913 94.0593 20.187C92.5396 18.901 90.8385 17.9209 89.1809 16.8158C87.6794 15.8149 86.3511 14.9135 84.7239 14.1903C83.5909 13.6867 82.0677 13.1962 81.369 12.1481" stroke="white" stroke-width="3" stroke-linecap="round"/>
<path id="smile" d="M23.3142 59.9921C23.3142 62.5759 26.7826 64.2259 28.5654 65.8106C30.8112 67.8068 33.7542 69.8798 36.4421 71.2238C41.8079 73.9067 47.1694 74.7232 53.0709 73.4118C54.9175 73.0014 56.3922 71.8321 58.0303 71.0131C58.8164 70.6201 59.6272 70.2389 60.3642 69.7651C61.2981 69.1648 62.0531 68.1623 62.9898 67.642C66.1418 65.8909 67.2344 61.2904 69.6996 58.8252" stroke="white" stroke-width="3" stroke-linecap="round"/>
<g id="lefteye">
<path id="Vector 95" d="M23 30L35 42" stroke="white" stroke-width="3" stroke-linecap="round"/>
<path id="Vector 98" d="M22.5596 43.5607C22.7165 41.9911 24.1943 40.934 25.0977 39.7963C26.7208 37.7525 28.3997 35.8778 30.174 33.9721C31.305 32.7573 32.6377 31.7169 33.8157 30.5389C34.446 29.9085 35.2396 29.1648 36.0228 28.7732" stroke="white" stroke-width="3" stroke-linecap="round"/>
</g>
<g id="righteye">
<path id="Vector 96" d="M72 43L85 30" stroke="white" stroke-width="3" stroke-linecap="round"/>
<path id="Vector 99" d="M70.8945 28.7458C75.0498 31.0312 77.2964 36.157 80.1152 39.7813C80.8301 40.7003 81.7741 41.6118 82.6043 42.442C82.8727 42.7104 84.3608 44.6462 84.137 43.9747" stroke="white" stroke-width="3" stroke-linecap="round"/>
</g>
</g>
</svg>
