<svg width="484" height="72" viewBox="0 0 484 72" fill="none" xmlns="http://www.w3.org/2000/svg">
<g id="formula1Text">
<g id="p3">
<path id="Vector 61" d="M343.732 16.6859V42.6645" stroke="#FF8364" stroke-width="3" stroke-linecap="round"/>
<path id="Vector 62" d="M343 17.4176C343.704 17.3394 344.241 16.5848 344.911 16.3199C345.916 15.9227 347.44 15.3495 348.509 15.2426C349.756 15.1178 352.837 14.7337 353.977 15.3036C355.646 16.1379 356.172 19.6895 356.172 21.2595C356.172 23.0905 354.047 26.2992 352.31 26.9309C349.965 27.7836 347.658 27.6627 345.195 27.6627" stroke="#FF8364" stroke-width="3" stroke-linecap="round"/>
</g>
<g id="r5">
<path id="Vector 63" d="M364.588 21C364.588 25.9309 364.954 30.7262 364.954 35.6358" stroke="#FF8364" stroke-width="3" stroke-linecap="round"/>
<path id="Vector 64" d="M364.954 26.4884C366.872 24.5705 368.887 22.4635 371.723 22.4635C373.321 22.4635 375.482 22.6633 376.297 24.293" stroke="#FF8364" stroke-width="3" stroke-linecap="round"/>
</g>
<path id="o4" d="M389.068 21C386.439 21 385.184 22.5597 383.64 24.6325C382.23 26.5249 382.414 28.2849 382.414 30.6154C382.414 35.4384 387.35 36 390.818 36C394.833 36 397.596 30.7064 395.896 26.5983C394.85 24.0717 391.599 21.7692 389.068 21.7692" stroke="#FF8364" stroke-width="3" stroke-linecap="round"/>
<g id="j2">
<path id="Vector 66" d="M407.032 18.7122C407.032 22.0346 406.331 25.2759 406.3 28.5914C406.272 31.5678 406.402 34.5044 406.016 37.4542C405.612 40.5327 405.486 43.8909 404.654 46.8862C404.455 47.6014 404.458 49.0536 403.902 49.6101C403.265 50.2464 400.669 49.8502 399.897 49.793C397.262 49.5978 395.325 47.6206 394.226 45.4226" stroke="#FF8364" stroke-width="3" stroke-linecap="round"/>
<path id="Vector 67" d="M408.496 7.36935C406.77 7.58507 410.691 10.8297 410.691 8.64999C410.691 6.94933 408.75 6.24175 408.13 8.10115" stroke="#FF8364" stroke-width="3" stroke-linecap="round"/>
</g>
<path id="e5" d="M419.485 27.4618C421.547 27.4618 427.858 27.5973 427.858 24.4104C427.858 22.4304 426.608 21 424.662 21C423.732 21 422.802 21 421.871 21C420.938 21 420.465 21.9408 419.768 22.436C417.863 23.7883 418.192 30.5758 419.323 32.3281C421.568 35.8068 426.308 40.4779 430.406 36.4365" stroke="#FF8364" stroke-width="3" stroke-linecap="round"/>
<path id="c2" d="M451.699 21.8726C449.274 20.2233 448.34 20 445.581 20C443.968 20 441.972 20.3399 441.111 21.7061C439.064 24.9555 437.428 32.0721 439.092 35.7297C440.242 38.2581 443.119 39.8295 445.931 38.5386C446.944 38.0734 447.99 38.2717 449.021 37.6023C451.323 36.1076 453.471 33.9393 455.406 31.9845" stroke="#FF8364" stroke-width="3" stroke-linecap="round"/>
<g id="t4">
<path id="Vector 70" d="M467.405 17C467.405 20.3078 467.771 23.5613 467.771 26.8792C467.771 30.8848 467.556 35.121 469.031 38.9131C469.861 41.0466 471.013 41.2149 473.259 41.5964C478.871 42.5493 481.567 37.7702 482.407 32.7335" stroke="#FF8364" stroke-width="3" stroke-linecap="round"/>
<path id="Vector 71" d="M461.917 21.7567H478.748" stroke="#FF8364" stroke-width="3" stroke-linecap="round"/>
</g>
<path id="Vector 195" d="M20.1577 14.9216C20.1577 11.3541 26.7216 2 18.6194 2C12.0093 2 10.928 9.95138 10.928 15.2293C10.928 27.7273 13.3892 39.4383 13.3892 51.8406" stroke="#FF8364" stroke-width="3" stroke-linecap="round"/>
<path id="Vector 196" d="M1.69824 33.3813C8.03234 33.3813 14.3273 35.8426 20.7731 35.8426" stroke="#FF8364" stroke-width="3" stroke-linecap="round"/>
<path id="Vector 197" d="M31.2334 34.6118C31.2334 33.0094 32.3089 31.7305 32.9426 30.3046C33.7276 28.5383 33.9033 26.464 34.4467 24.63C34.602 24.1061 35.9758 20.1594 36.1559 21.6901C36.4258 23.984 37.3866 26.0516 37.3866 28.4586C37.3866 32.9233 38.0019 37.4529 38.0019 41.9956C38.0019 43.6398 37.2366 49.3044 38.6172 49.9947" stroke="#FF8364" stroke-width="3" stroke-linecap="round"/>
<path id="Vector 198" d="M85.3814 25.9975C85.3814 22.8823 85.3102 21.075 81.6895 21.075C78.7032 21.075 75.0596 23.2575 72.7674 25.0403C68.2965 28.5177 66.1216 36.9523 69.3831 42.1325C70.7274 44.2675 72.7452 46.9182 75.5363 46.9182C78.8232 46.9182 80.9778 43.3079 82.6124 40.7651C84.5172 37.802 86.612 34.2624 86.612 30.6124C86.612 29.4843 86.612 28.3562 86.612 27.2281C86.612 24.5799 85.9278 30.531 85.8599 31.0568C84.7325 39.7944 84.766 48.5536 84.766 57.3786C84.766 59.8466 84.2977 69.8973 81.0741 70.3003C75.8661 70.9513 69.3831 66.8685 69.3831 61.0705C69.3831 53.6162 79.9208 50.8792 85.3814 48.1489" stroke="#FF8364" stroke-width="3" stroke-linecap="round"/>
<path id="Vector 199" d="M97.6877 20.4595C97.6877 28.4258 98.9184 36.0134 98.9184 43.8415" stroke="#FF8364" stroke-width="3" stroke-linecap="round"/>
<path id="Vector 200" d="M97.0723 29.0739C97.2818 27.3975 102.404 23.6205 103.841 23.536C106.697 23.368 111.079 24.4757 112.455 27.2279" stroke="#FF8364" stroke-width="3" stroke-linecap="round"/>
<path id="Vector 201" d="M121.07 16.7676C124.787 16.7676 127.714 18.391 129.376 21.3825C131.007 24.3174 128.963 27.7814 127.701 30.3045C126.962 31.7838 123.039 36.6793 125.069 38.3037C125.639 38.7594 130.915 45.3756 130.915 41.9956" stroke="#FF8364" stroke-width="3" stroke-linecap="round"/>
<path id="Vector 202" d="M126.608 32.1507C121.133 32.1507 116.977 31.996 114.438 37.0732C110.523 44.903 122.916 43.7808 122.916 41.9957" stroke="#FF8364" stroke-width="3" stroke-linecap="round"/>
<path id="Vector 203" d="M139.529 19.229C139.529 27.0421 140.145 34.9251 140.145 42.611" stroke="#FF8364" stroke-width="3" stroke-linecap="round"/>
<path id="Vector 204" d="M141.375 31.5352C141.375 29.381 143.073 25.527 145.682 25.3821C147.006 25.3085 148.356 25.3821 149.682 25.3821C151.726 25.3821 150.813 26.4183 151.972 27.7066C153.263 29.1407 151.992 41.9174 153.066 41.3803" stroke="#FF8364" stroke-width="3" stroke-linecap="round"/>
<path id="Vector 205" d="M169.064 24.1514C168.261 24.1514 165.368 23.6958 164.757 24.4591C164.441 24.8548 163.705 24.6032 163.561 25.1086C163.407 25.6477 163.719 26.2126 163.219 26.6127C162.078 27.5256 162.296 31.6253 162.296 33.0735C162.296 37.4118 169.566 38.3148 171.526 34.8852C174.004 30.5482 173.372 24.7073 173.372 19.8442C173.372 14.5114 173.372 9.17869 173.372 3.84595" stroke="#FF8364" stroke-width="3" stroke-linecap="round"/>
<path id="Vector 234" d="M197.559 19.1839C197.559 15.555 190.933 17.905 189.826 19.9331C189.126 21.2171 187.595 23.1089 187.953 24.7228C188.447 26.9437 191.063 29.0751 192.984 29.9941C196.207 31.5354 202.627 33.3815 198.523 37.4862C196.341 39.6677 193.761 39.8944 190.817 39.8944C189.363 39.8944 185.336 40.4931 184.555 38.9312" stroke="#FF8364" stroke-width="3" stroke-linecap="round"/>
<path id="Vector 235" d="M212.49 7.14282C212.49 9.12197 214.163 10.9304 214.39 12.976C214.88 17.3869 214.898 21.7428 214.898 26.1944C214.898 29.5363 214.482 33.1771 215.487 36.4159C215.933 37.8533 216.825 38.9184 216.825 40.376" stroke="#FF8364" stroke-width="3" stroke-linecap="round"/>
<path id="Vector 236" d="M207.192 19.6655C214.238 19.6655 221.436 19.1838 228.385 19.1838" stroke="#FF8364" stroke-width="3" stroke-linecap="round"/>
<path id="Vector 237" d="M236.091 11.4775C245.789 11.4775 250.145 25.9334 242.245 31.7065C240.258 33.1585 238.603 35.4065 239.944 37.7537C240.985 39.5756 246.687 40.7779 246.687 37.9678" stroke="#FF8364" stroke-width="3" stroke-linecap="round"/>
<path id="Vector 238" d="M247.65 24.0002C242.384 24.0002 236.614 22.9908 233.683 28.1209C232.794 29.6767 230.687 34.7574 232.933 36.0412C235.141 37.3026 237.308 37.1049 238.981 34.5963" stroke="#FF8364" stroke-width="3" stroke-linecap="round"/>
<path id="Vector 239" d="M259.691 21.1103C259.691 17.8008 261.618 27.5407 261.618 30.8502C261.618 34.8314 261.136 46.7654 261.136 42.7842" stroke="#FF8364" stroke-width="3" stroke-linecap="round"/>
<path id="Vector 240" d="M261.618 28.8166C261.618 26.3535 263.759 24.5671 266.059 24.4819C269.786 24.3438 272.291 25.3311 274.033 28.8166C276.079 32.9073 273.177 38.4484 273.177 42.7842" stroke="#FF8364" stroke-width="3" stroke-linecap="round"/>
<path id="Vector 241" d="M295.814 27.3717C291.354 26.8761 284.752 26.5787 282.81 31.9206C281.927 34.3491 281.365 36.5719 281.365 39.1719C281.365 40.9912 285.229 41.821 286.663 41.821C289.432 41.821 291.382 40.9547 293.406 38.9311C296.15 36.187 295.814 32.6346 295.814 28.8434C295.814 24.242 296.273 19.3373 295.065 14.8491C293.946 10.6931 293.888 6.58806 293.888 2.32642" stroke="#FF8364" stroke-width="3" stroke-linecap="round"/>
<path id="Vector 242" d="M313.153 23.0369C310.202 23.0369 304.965 24.6163 304.965 28.3349C304.965 30.0625 305.322 30.3561 306.678 31.4656C307.584 32.2072 308.964 32.5199 310.049 32.9105C311.608 33.4715 312.829 34.4504 314.331 35.0511C315.422 35.4875 316.525 36.7618 316.525 37.9677C316.525 39.8859 316.096 39.3459 315.08 40.6168C313.745 42.2856 306.804 43.2217 304.965 42.3025" stroke="#FF8364" stroke-width="3" stroke-linecap="round"/>
</g>
</svg>
