<svg width="263" height="65" viewBox="0 0 263 65" fill="none" xmlns="http://www.w3.org/2000/svg">
<g id="formula1">
<path id="Vector 217" d="M45.3606 43.0967C44.722 43.6644 42.8685 43.2953 42.0842 43.2953C40.6943 43.2953 39.3043 43.2953 37.9143 43.2953C36.1197 43.2953 34.4436 43.4939 32.6522 43.4939C31.6888 43.4939 30.7253 43.4939 29.7619 43.4939C28.7795 43.4939 27.8447 43.0967 26.8826 43.0967C25.9487 43.0967 24.9881 42.8982 24.0144 42.8982C23.5616 42.8982 22.4246 42.8202 22.0287 42.6003C21.4222 42.2634 20.5551 42.46 19.8996 42.2583C18.8909 41.948 17.8633 41.9443 16.8108 41.9053C15.4792 41.856 13.8663 41.4326 12.696 40.9125C11.548 40.4023 11.1331 39.3831 11.2067 38.1325C11.271 37.0399 13.3673 35.8056 14.1852 35.3967C17.0159 33.9813 20.2803 34.0777 23.1209 32.8153C23.6978 32.5588 24.4718 32.5722 25.0073 32.2747C25.6228 31.9328 26.6823 31.5797 27.3791 31.5797C28.8013 31.5797 30.418 30.6752 31.7586 30.3773C33.1988 30.0572 34.5962 29.149 36.0279 28.9983C38.2641 28.7629 40.4986 27.9611 42.7351 27.8069C44.5659 27.6806 46.4307 26.8141 48.2399 26.8141C49.6534 26.8141 51.0639 26.0198 52.4098 26.0198C53.6168 26.0198 54.8507 25.2904 56.0834 25.2255C57.3796 25.1573 58.6514 24.0341 59.8562 24.0341C60.6842 24.0341 61.8768 23.6037 62.6362 23.2839C63.5958 22.8799 65.0155 22.9011 66.056 22.6882C67.2673 22.4404 68.6638 22.548 69.8288 22.2028C70.5163 21.9991 71.3195 22.0943 71.9689 21.8057C74.4943 20.6833 77.7798 20.2613 80.5515 20.2613C82.1757 20.2613 84.6896 19.7924 86.1667 20.3605C86.7467 20.5837 87.5513 20.4845 88.1634 20.5591C88.8277 20.6401 89.5876 20.857 90.2484 20.857C91.4978 20.857 92.6892 21.4527 93.9109 21.4527C95.765 21.4527 98.1292 21.9948 99.9231 22.4896C102.011 23.0655 104.198 23.2941 106.233 24.0341C107.52 24.502 108.914 24.7981 110.249 25.0711C111.057 25.2364 112.11 25.6226 112.874 25.6226C114.479 25.6226 115.965 26.5551 117.596 26.6155C118.303 26.6417 119.045 26.8726 119.725 27.0237C120.526 27.2016 121.542 27.4136 122.306 27.7076C123.018 27.9813 123.85 27.9926 124.59 28.204C125.297 28.4061 125.974 28.6593 126.686 28.7887C129.358 29.2745 131.599 30.3883 134.32 30.3883" stroke="white" stroke-width="2" stroke-linecap="round"/>
<path id="Vector 218" d="M125.98 28.4027C126.032 27.9865 129.634 27.7038 130.194 27.2554C130.514 26.9999 131.541 26.893 131.948 26.8252C132.689 26.7017 133.48 26.417 134.232 26.417C134.885 26.417 135.7 26.3192 136.306 26.064C136.936 25.7988 137.898 26.0048 138.578 25.8103C139.798 25.4618 141.463 25.5147 142.66 24.9829C143.775 24.4873 145.794 24.4313 147.029 24.4313C148.75 24.4313 150.813 24.2192 152.489 23.8466C156.221 23.0173 160.109 23.0413 164.061 23.0413C165.234 23.0413 166.339 23.0657 167.481 23.2289C168.246 23.3382 169.116 23.5955 169.864 23.637C171.758 23.7423 173.479 24.5334 175.325 24.8174C180.237 25.5732 184.958 27.3273 189.677 28.844C191.315 29.3706 192.936 30.4029 194.685 30.587C195.103 30.6309 195.522 30.8954 195.921 31.0282C196.723 31.2956 197.539 31.2452 198.348 31.3923C198.856 31.4846 199.91 31.6362 200.344 31.8777C201.415 32.4725 203.001 32.6367 204.128 32.9588C205.426 33.3296 207.018 33.1684 208.387 33.1684" stroke="white" stroke-width="2" stroke-linecap="round"/>
<path id="Vector 219" d="M202.429 45.8766C201.778 45.8042 201.065 45.2935 200.444 45.0824C198.629 44.4662 196.787 43.9256 194.983 43.2842C192.383 42.3599 189.704 41.5966 187.095 40.758C185.577 40.2699 183.784 39.813 182.385 39.026C181.135 38.3228 179.884 37.5385 178.601 36.8969C176.925 36.0591 175.083 35.7334 173.438 34.9112C171.273 33.8288 168.454 32.3605 166.047 32.1753C163.104 31.949 160.134 30.8681 157.155 30.7854C156.225 30.7595 154.498 30.743 153.68 30.2889C152.809 29.8049 150.861 30.1896 149.852 30.1896C147.772 30.1896 145.672 30.2761 143.653 30.3882C142.819 30.4345 142 30.7854 141.171 30.7854C140.516 30.7854 139.585 30.9777 139.284 31.5796" stroke="white" stroke-width="2" stroke-linecap="round"/>
<path id="Vector 220" d="M127.966 33.5654C128.377 33.6168 129.532 35.5502 129.709 35.9483C130.106 36.8419 129.952 38.2392 129.952 39.2247C129.952 40.1543 129.586 40.9523 129.345 41.795C129.273 42.0452 127.403 43.8582 128.562 42.6996" stroke="white" stroke-width="2" stroke-linecap="round"/>
<path id="Vector 221" d="M130.944 34.7568C131.622 34.8416 132.587 36.8365 132.72 37.4375C132.966 38.5446 133.128 39.42 133.128 40.6146C133.128 41.7434 132.451 42.4373 132.334 43.4939C132.281 43.9738 131.614 44.6858 131.297 45.0383C131.125 45.2299 130.288 45.9166 130.944 45.4796" stroke="white" stroke-width="2" stroke-linecap="round"/>
<path id="Vector 222" d="M132.334 43.2954C133.977 43.2954 135.532 44.815 137.199 45.0715C138.612 45.2888 140.081 45.4859 141.468 45.8327C142.734 46.149 144.183 45.9588 145.396 46.3181C146.097 46.526 146.877 46.4717 147.536 46.6601C148.236 46.8602 149.589 46.8697 150.305 46.8697C152.497 46.8697 154.782 47.4654 156.957 47.4654C158.9 47.4654 161.217 47.7712 163.068 47.2227C165.6 46.4724 168.499 46.97 171.044 46.1747C171.864 45.9186 172.779 46.0739 173.593 45.8327C174.448 45.5793 175.536 45.3329 176.417 45.2811C177.575 45.213 178.785 44.0897 179.991 44.0897" stroke="white" stroke-width="2" stroke-linecap="round"/>
<path id="Vector 223" d="M199.848 48.2595C198.25 48.2595 197.368 48.8603 195.987 49.6494C195.51 49.9216 195.086 50.3771 194.486 50.4437C194.076 50.4893 192.643 50.6473 192.346 50.885C191.9 51.2419 191.149 51.239 190.614 51.5359C189.981 51.8879 188.923 52.4632 188.231 52.617C186.529 52.9954 184.771 53.9477 183.013 54.018C181.383 54.0832 179.374 55.0486 177.707 55.419C175.787 55.8457 173.821 56.0985 171.849 56.2022C170.189 56.2896 168.465 56.7979 166.775 56.7979C164.973 56.7979 163.171 56.7979 161.369 56.7979C159.932 56.7979 158.494 56.7979 157.056 56.7979C155.566 56.7979 154.019 56.4575 152.544 56.4008C151.063 56.3438 149.545 55.9994 148.131 55.5955C147.863 55.5187 147.86 55.2094 147.525 55.2094C147.051 55.2094 146.595 55.0108 146.08 55.0108C145.236 55.0108 144.503 54.8122 143.653 54.8122C141.864 54.8122 140.298 54.4767 138.578 54.018C137.665 53.7744 136.642 53.3169 135.71 53.2237C134.905 53.1432 133.856 53.0167 133.128 52.6721C132.346 52.3013 131.391 52.3469 130.646 51.933C129.881 51.5081 128.909 51.0395 128.065 50.8519C127.448 50.7148 126.547 50.4529 125.98 50.201C125.116 49.817 123.909 49.8991 123.156 49.2964C122.771 48.9882 122.01 48.7562 121.512 48.6456C120.829 48.4937 119.965 47.6637 119.328 47.6637C118.784 47.6637 118.224 47.2991 117.64 47.2666C117.147 47.2392 116.143 46.8506 115.809 46.5165C114.657 45.3645 112.88 45.7031 111.584 44.9831C110.918 44.6135 109.839 44.9545 109.256 44.5308C108.95 44.3085 107.822 44.32 107.414 44.277C106.84 44.2167 106.312 44.1221 105.726 44.0895C103.909 43.9886 101.615 43.5373 99.857 42.8981C99.1647 42.6463 98.0802 42.3024 97.3859 42.3024C96.9602 42.3024 95.6645 42.1961 95.3561 41.9494C95.1627 41.7946 93.783 41.7067 93.5138 41.7067C92.7858 41.7067 92.0577 41.7067 91.3296 41.7067C89.903 41.7067 88.6323 41.9052 87.2589 41.9052C80.4387 41.9052 73.6437 42.5009 66.8063 42.5009C62.8349 42.5009 58.8635 42.5009 54.8921 42.5009C52.7225 42.5009 50.6117 42.6995 48.4386 42.6995C47.7465 42.6995 44.6405 42.353 44.3679 42.8981" stroke="white" stroke-width="2" stroke-linecap="round"/>
<path id="Vector 224" d="M87.656 48.4581C89.2225 48.4581 90.6269 48.6304 91.9252 49.3517C92.4744 49.6568 93.6812 49.8481 94.3081 49.8481C95.0627 49.8481 95.8922 50.4027 96.5916 50.4438C98.2686 50.5425 99.368 51.5773 100.839 52.2309C101.605 52.5713 104.336 53.701 104.336 54.6138" stroke="white" stroke-width="2" stroke-linecap="round"/>
<path id="Vector 225" d="M128.363 58.3866C125.011 58.3866 121.661 58.5851 118.28 58.5851C115.187 58.5851 112.253 58.9823 109.146 58.9823C108.005 58.9823 106.877 58.7837 105.825 58.7837C104.573 58.7837 104.931 56.6345 104.931 55.8052C104.931 54.5569 105.329 53.5772 105.329 52.3302C105.329 51.3043 105.302 50.1298 105.924 49.3517C106.559 48.5578 108.72 48.8552 109.697 48.8552C110.955 48.8552 112.104 49.045 113.282 49.2413C114.522 49.4479 115.334 49.2762 116.449 49.8039C117.372 50.2413 118.509 50.8552 118.82 51.9441C119.188 53.2308 121.901 53.8953 122.957 54.2607C123.997 54.6205 125.373 55.0109 126.476 55.0109C127.115 55.0109 129.951 55.3029 129.951 56.0037C129.951 56.6819 129.063 57.7795 128.76 58.3866" stroke="white" stroke-width="2" stroke-linecap="round"/>
<path id="Vector 226" d="M218.315 59.7767C216.863 59.7767 215.482 60.1738 213.991 60.1738C211.906 60.1738 209.826 60.5865 207.703 60.3283C203.975 59.8749 200.339 59.5781 196.583 59.5781C194.844 59.5781 193.202 59.7767 191.464 59.7767C190.265 59.7767 189.156 60.1477 187.978 60.1738C186.59 60.2047 185.197 60.1738 183.808 60.1738C181.416 60.1738 179.035 60.0136 176.66 59.9753C173.757 59.9285 170.788 60.1316 167.923 59.6223C166.255 59.3257 164.573 59.9445 162.914 59.9753C160.323 60.0233 157.789 60.0672 155.214 59.9753C153.095 59.8996 150.975 59.6262 148.86 59.5781C145.409 59.4997 141.984 58.9824 138.534 58.9824C134.217 58.9824 121.266 59.181 125.583 59.181" stroke="white" stroke-width="2" stroke-linecap="round"/>
<path id="Vector 227" d="M252.27 42.3024C253.642 42.15 255.044 41.5082 256.44 41.5082C257.195 41.5082 257.887 40.9956 258.338 40.416C258.905 39.6858 259.664 39.1168 260.213 38.4303C260.738 37.774 261.499 37.2766 261.603 36.3454C261.717 35.3174 262 34.4565 262 33.3668C262 32.3297 261.603 31.2412 261.603 30.1897C261.603 28.0249 260.809 26.2487 260.809 24.1223C260.809 21.4379 261.206 18.7864 261.206 16.0913C261.206 13.3187 257.008 15.297 255.249 15.297C253.6 15.297 253.215 13.3521 252.171 12.517C251.047 11.6183 250.786 8.96584 250.494 7.65208C250.287 6.72185 249.361 3.65559 248.1 3.5814C244.992 3.39855 242.039 4.17711 238.966 4.17711C238.451 4.17711 233.095 4.31526 233.218 4.8721C233.42 5.77708 233.803 6.59966 233.803 7.55279C233.803 8.52395 233.635 9.59258 234.101 10.432C234.5 11.1498 234.306 12.1107 234.697 12.8149C235.073 13.4914 235.48 13.708 236.032 14.26C237.182 15.411 237.476 16.6081 237.377 18.2755C237.27 20.097 234.985 20.4432 233.704 21.1548C232.932 21.5838 231.512 21.6512 230.626 21.6512C229.029 21.6512 227.365 22.0484 225.761 22.0484C223.651 22.0484 221.466 22.2469 219.308 22.2469C218.431 22.2469 217.499 22.0938 216.726 22.0484C216.223 22.0188 215.689 21.7623 215.226 21.5519C214.691 21.3086 213.956 21.436 213.45 21.1548C212.001 20.3501 210.222 20.3491 208.783 19.7097C207.026 18.9285 204.588 19.1944 203.025 17.8784C202.136 17.1296 200.559 16.5266 199.495 16.0913C198.76 15.7905 198.189 15.5353 197.862 14.8006C197.722 14.4862 197.466 14.0839 197.156 13.907C196.816 13.7129 196.393 13.1966 196.075 12.9142C195.598 12.4905 195.098 12.2626 194.486 12.0758C193.967 11.9172 193.585 11.4944 193.052 11.3256C192.22 11.0619 191.366 10.8079 190.57 10.4431C190.068 10.2129 189.465 9.79179 189.026 9.45023C188.57 9.09609 188.053 8.77534 187.581 8.43532C187.323 8.25003 186.702 8.04857 186.544 7.85064C185.511 6.55933 182.999 6.54532 181.624 5.76567C179.272 4.43313 176.455 4.09248 174.034 2.98569C169.969 1.12748 165.451 1 161.027 1C160.426 1 161.423 2.67873 161.513 3.08498C161.707 3.9608 161.524 5.06735 161.524 5.96424C161.524 7.48226 161.608 9.09481 163.112 9.8915C163.783 10.2463 163.708 11.2455 163.708 11.9213C163.708 12.9363 163.714 13.2539 163.112 14.0063C162.744 14.4669 161.702 14.8999 161.127 14.8999C160.233 14.8999 159.345 15.297 158.446 15.297C156.624 15.297 155.862 16.5304 155.765 18.2755C155.741 18.71 155.379 20.6104 155.07 20.8569C154.688 21.1631 154.817 22.7533 154.574 23.2398" stroke="white" stroke-width="2" stroke-linecap="round"/>
<path id="Vector 228" d="M101.755 22.0484C101.755 21.5064 102.333 20.5831 102.593 20.0627C102.811 19.627 103.225 19.2402 103.586 18.9154C104.584 18.0169 105.349 17.6688 106.62 18.3748C106.977 18.5733 108.012 18.6727 108.407 18.6727C109.012 18.6727 109.354 18.1447 109.896 18.077C110.809 17.9628 111.746 15.8927 110.392 15.8927C108.936 15.8927 107.48 15.8927 106.024 15.8927C105.091 15.8927 103.21 15.88 102.505 16.4443C102.277 16.6266 101.957 16.4212 101.71 16.6429C101.511 16.822 101.188 16.986 100.96 17.1283C100.507 17.4118 99.9388 18.0889 99.6696 18.5734C99.087 19.6222 98.3045 20.4101 97.7832 21.4527" stroke="white" stroke-width="2" stroke-linecap="round"/>
<path id="Vector 229" d="M15.5753 42.3025C15.5753 44.0448 15.6827 45.8231 15.7739 47.4653C15.8053 48.0307 16.7253 49.4694 15.8732 49.8481C14.8386 50.308 13.8273 50.478 12.7512 50.7968C11.9016 51.0486 10.2181 51.0395 9.32041 51.0395C8.75215 51.0395 7.71782 51.5273 7.27955 51.8779C6.7344 52.3141 5.54141 53.027 4.85259 53.2238C4.28525 53.3859 2.81575 53.8835 2.46976 54.3159C2.2411 54.6018 2.03328 54.7126 1.82993 54.9668C1.57388 55.2869 1.51718 55.6767 1.23422 55.9597C0.870931 56.3229 0.939019 58.0437 1.37763 58.2873C2.10622 58.6921 2.7755 58.9331 3.66118 58.9823C4.54584 59.0315 5.62821 58.7755 6.44115 59.1368C7.19635 59.4724 8.8011 59.1809 9.60723 59.1809C11.2911 59.1809 12.9226 59.2921 14.5825 59.3795C18.2993 59.5751 21.9379 59.9752 25.6914 59.9752C27.9376 59.9752 30.2086 59.578 32.3545 59.578C34.7038 59.578 37.1143 59.3795 39.503 59.3795C40.5396 59.3795 40.9415 59.4925 41.5438 58.7396C42.0354 58.1252 41.9851 57.2872 41.9851 56.5002C41.9851 55.5155 42.4852 51.681 41.5879 51.2822C39.5792 50.3894 36.8165 50.6424 34.638 50.6424C32.3471 50.6424 30.0562 50.6424 27.7653 50.6424C23.4367 50.6424 10.4525 50.841 14.7811 50.841" stroke="white" stroke-width="2" stroke-linecap="round"/>
<path id="Vector 230" d="M30.4683 44.2882C30.4683 46.1942 30.8654 48.1312 30.8654 50.0467" stroke="white" stroke-width="2" stroke-linecap="round"/>
<path id="Vector 231" d="M136.978 25.3018C136.978 25.1122 136.968 24.9191 136.978 24.7297C136.991 24.4685 137.146 24.1807 137.198 23.9204C137.27 23.5618 137.29 23.2153 137.389 22.8611C137.482 22.5266 137.606 22.2156 137.664 21.8674C137.731 21.4673 137.783 21.0949 137.95 20.7234C138.139 20.3038 138.208 19.8505 138.312 19.4077C138.434 18.8938 138.643 18.4537 138.939 18.0179C139.233 17.5855 139.476 17.1336 139.742 16.6832C139.995 16.2552 140.242 15.8197 140.486 15.3865C140.723 14.966 140.911 14.5206 141.257 14.1747C141.8 13.6317 142.391 13.3148 143.153 13.1577C143.881 13.008 144.647 12.9604 145.386 12.9056C145.726 12.8805 146.069 12.7677 146.405 12.7552C147.081 12.7302 147.773 12.7276 148.437 12.8505C149.257 13.0024 150.086 13.1825 150.859 13.4988C151.088 13.5927 151.37 13.7236 151.545 13.8993C151.757 14.1114 152.025 14.217 152.223 14.4713C152.462 14.7779 152.686 15.109 152.956 15.3865C153.231 15.6689 153.408 16.0232 153.66 16.3209C153.999 16.7221 153.91 17.3426 153.91 17.8272C153.91 18.3938 153.833 18.9413 153.833 19.5052C153.833 20.0795 153.795 20.6462 153.795 21.2213C153.795 21.6217 153.795 22.0221 153.795 22.4225C153.795 22.5624 153.795 22.7022 153.795 22.842C153.795 22.9896 153.847 23.2049 153.719 23.0136" stroke="white" stroke-width="2" stroke-linecap="round"/>
<path id="Vector 232" d="M140.562 15.8821C140.788 15.8821 141.014 15.8768 141.24 15.8821C141.428 15.8865 141.589 15.9624 141.766 15.9944C142.439 16.1169 143.103 16.1738 143.766 16.3482C144.05 16.423 144.318 16.5404 144.596 16.6363C144.736 16.6846 144.904 16.7669 144.988 16.8927C145.098 17.058 145.3 17.2255 145.443 17.3694C145.59 17.5159 145.752 17.6398 145.901 17.7889C146.207 18.0943 146.379 18.2809 146.473 18.7041C146.555 19.0705 146.626 19.3908 146.626 19.7698C146.626 19.9357 146.626 20.1017 146.626 20.2677C146.626 20.5738 146.549 20.8687 146.549 21.1638C146.549 21.3335 146.497 21.4927 146.471 21.6596C146.455 21.7656 146.428 22.031 146.367 22.1066C146.339 22.1425 146.323 22.3918 146.321 22.4414C146.314 22.5588 146.185 22.672 146.13 22.7677C146.011 22.9765 145.871 23.2173 145.702 23.3863C145.548 23.5403 145.315 23.6413 145.117 23.6977C144.868 23.7689 144.575 23.8743 144.299 23.8905C143.933 23.9121 143.576 24.0812 143.213 24.0812C143.017 24.0812 142.822 24.1575 142.621 24.1575C142.358 24.1575 142.114 24.2191 141.859 24.2337C141.384 24.2609 140.859 24.4737 140.41 24.6342C139.973 24.7903 139.482 24.8058 139.018 24.8058C138.63 24.8058 138.242 24.8058 137.855 24.8058C137.727 24.8058 137.6 24.8058 137.473 24.8058C137.307 24.8058 137.489 24.9765 137.566 24.9986C138.218 25.1847 138.847 24.7508 139.437 24.5198C139.758 24.3942 140.044 24.2108 140.352 24.0621C140.969 23.7652 141.604 23.5431 142.27 23.3863C143.028 23.208 143.935 23.0948 144.558 22.5939C144.602 22.5586 144.837 22.2915 144.749 22.3736C144.596 22.5145 144.456 22.6399 144.321 22.7994C143.968 23.2165 145.275 22.23 145.632 21.8164C145.737 21.6943 145.86 21.5844 145.96 21.4583C145.976 21.4389 146.015 21.3555 146.013 21.3609C145.991 21.4392 145.927 21.4923 145.88 21.5558C145.763 21.7133 145.697 21.9052 145.588 22.0685C145.522 22.1668 145.471 22.397 145.397 22.471C145.384 22.4838 145.523 22.2557 145.558 22.2041C145.896 21.7061 145.291 22.2336 145.291 21.9414C145.291 21.689 145.363 21.3963 145.424 21.1511C145.444 21.0741 145.446 21.0936 145.443 21.1617C145.436 21.3453 145.356 21.5004 145.27 21.6596C145.002 22.1575 144.633 22.5807 144.287 23.024C144.23 23.0959 143.779 23.6209 144.071 23.3185C144.435 22.9401 144.752 22.516 145.096 22.1194C145.422 21.7437 145.827 21.3588 146.075 20.9244C146.104 20.8729 146.13 20.6955 146.13 20.755C146.13 20.9005 146.06 21.0433 146.016 21.1787C145.833 21.7414 145.658 22.3039 145.446 22.8566C145.434 22.8871 145.279 23.4063 145.234 23.3884C145.126 23.3454 145.346 22.5709 145.367 22.4816C145.464 22.065 145.614 21.6584 145.691 21.238C145.699 21.1987 145.773 20.5847 145.71 20.6194C145.648 20.654 145.599 20.7813 145.571 20.8418C145.451 21.1009 145.374 21.3791 145.282 21.649C145.155 22.0249 145.035 22.3979 144.918 22.7761C144.823 23.082 145.053 22.1491 145.092 21.8312C145.168 21.2025 145.197 20.5581 145.249 19.9266C145.265 19.7262 145.253 19.5217 145.253 19.3206C145.253 18.869 145.306 20.2226 145.348 20.6723C145.349 20.6845 145.427 21.2174 145.441 21.1003C145.46 20.9513 145.485 20.8131 145.52 20.666C145.662 20.0646 145.635 19.4195 145.795 18.827C145.852 18.6173 145.863 19.258 145.863 19.4753C145.863 19.7784 145.901 20.0758 145.901 20.3778C145.901 20.6261 145.873 20.2626 145.863 20.2041C145.784 19.7327 145.679 19.164 145.482 18.7274C145.457 18.6723 145.37 18.3807 145.308 18.363C145.215 18.3365 145.07 18.5424 145.024 18.5918C144.993 18.625 144.684 18.9892 144.683 18.9838C144.58 18.6226 144.496 18.2879 144.316 17.9499C144.269 17.8608 144.074 17.5426 144.232 17.7973C144.418 18.0994 144.619 18.3746 144.888 18.6067C144.907 18.6229 145.192 18.8654 145.213 18.755C145.273 18.4224 144.872 17.9703 144.702 17.7168C144.682 17.687 144.362 17.1434 144.27 17.2253C144.189 17.2969 144.321 17.6481 144.346 17.7211C144.422 17.9463 144.544 18.1715 144.689 18.3609C144.821 18.5336 144.567 17.8927 144.526 17.827C144.096 17.1436 143.47 16.8355 142.662 16.8355C142.458 16.8355 142.293 16.8448 142.128 16.969C142.08 17.0049 142.002 17.1528 142.058 17.2084C142.236 17.3864 142.647 16.9345 142.393 16.7295C142.149 16.5329 141.711 16.5645 141.422 16.5685C141.105 16.573 140.565 16.6753 140.414 17.0092C140.197 17.4889 140.979 17.6061 141.266 17.4456C141.64 17.2359 141.499 16.6364 141.011 16.8524C140.452 17.1003 140.028 17.9938 140.63 18.4287C140.961 18.6683 141.604 18.7037 141.986 18.6109C142.292 18.5365 143.299 17.5792 142.668 17.3736C141.787 17.0867 140.906 17.9936 141.121 18.8757C141.207 19.2252 141.504 19.3678 141.829 19.4096C142.062 19.4396 142.307 19.4806 142.537 19.4117C143.001 19.2728 143.09 18.7561 143.134 18.327C143.186 17.8242 142.672 17.7773 142.27 17.7889C141.758 17.8036 141.328 18.2205 141.096 18.6448C140.891 19.0203 140.795 19.4706 141.126 19.8016C141.468 20.1434 142.103 20.0574 142.522 19.9372C143.085 19.7753 143.413 19.4186 143.49 18.8376C143.529 18.5494 143.178 18.5407 142.96 18.5558C142.699 18.5739 142.571 18.7871 142.46 18.9986C142.275 19.3538 142.129 20.0323 142.342 20.399C142.54 20.7404 143.121 20.7517 143.456 20.7126C144.124 20.6348 144.487 20.267 144.494 19.6024C144.498 19.233 144.136 19.0722 143.812 19.0558C143.253 19.0276 142.825 19.7148 142.647 20.1575C142.508 20.5028 142.491 21.0312 142.825 21.2804C143.217 21.5725 143.961 21.4666 144.319 21.1744C145.045 20.581 145.151 18.81 143.88 18.863C143.37 18.8842 142.937 19.4304 142.816 19.8863C142.735 20.1941 142.638 20.814 143.058 20.916C143.41 21.0016 143.754 20.7162 143.918 20.4244C144.063 20.1679 144.12 19.8772 144.164 19.5897C144.189 19.4269 144.249 19.2204 144.206 19.0558C144.15 18.8413 143.91 18.7247 143.719 18.8524C143.374 19.0821 143.18 19.536 143.255 19.9414C143.314 20.2643 143.539 20.3397 143.844 20.3397C144.31 20.3397 144.507 20.0588 144.518 19.6045C144.543 18.5688 143.104 18.484 142.672 19.2719C142.313 19.9283 143.024 20.4225 143.549 19.9244C143.903 19.5895 143.819 18.9468 143.668 18.5431C143.505 18.1079 142.97 18.0167 142.566 18.1596C141.944 18.3799 141.453 18.9335 141.168 19.5113C141.038 19.7749 140.874 20.4116 141.234 20.5855C141.657 20.7904 142.139 20.4133 142.348 20.0728C142.618 19.6319 142.717 18.8164 142.431 18.3609C142.174 17.9533 141.339 18.1748 141.003 18.31C140.249 18.6131 139.496 19.2604 139.079 19.9583C138.942 20.1886 138.865 20.6658 139.227 20.7168C139.739 20.7888 140.221 20.3782 140.424 19.9393C140.561 19.6434 140.628 19.315 140.66 18.9922C140.675 18.8383 140.705 18.6147 140.598 18.4817C140.34 18.1586 139.866 18.6113 139.723 18.8185C139.471 19.1856 139.235 19.7322 139.388 20.1829C139.637 20.9121 140.516 20.0311 140.666 19.6723C140.836 19.2663 140.991 18.4335 140.691 18.0452C140.425 17.6995 139.902 17.7925 139.598 18.0283C139.158 18.3696 138.454 20.0734 139.588 19.7846C140.06 19.6642 140.508 19.3021 140.613 18.81C140.646 18.6574 140.783 18.0731 140.46 18.1406C139.926 18.2522 139.505 18.9566 139.236 19.3736C138.93 19.8474 138.392 20.7242 138.706 21.3164C138.975 21.8237 139.588 21.6823 140.013 21.4986C140.628 21.2333 141.309 20.8047 141.45 20.0982C141.552 19.586 141.157 19.5592 140.742 19.6723C139.946 19.8895 139.134 20.6534 138.766 21.3736C138.632 21.6347 138.389 22.2092 138.838 22.31C139.301 22.4144 139.932 21.9653 140.266 21.7041C140.492 21.5264 141.285 20.7184 141.041 20.3524C140.98 20.2616 140.748 20.3201 140.674 20.3376C140.241 20.4413 139.837 20.6731 139.507 20.9689C139.034 21.3931 138.25 22.1309 138.28 22.8354C138.302 23.3351 138.908 23.3192 139.251 23.2062C139.966 22.9704 140.823 22.6022 141.217 21.916C141.466 21.4811 141.102 21.4528 140.74 21.577C139.939 21.852 139.172 22.2646 138.63 22.9329C138.554 23.0262 138.168 23.585 138.469 23.6151C139.107 23.6789 139.822 23.2439 140.283 22.8566C140.339 22.8091 140.585 22.6326 140.554 22.5219C140.522 22.4102 140.128 22.5162 140.077 22.5261C139.263 22.6854 138.331 22.9477 137.645 23.4329C137.524 23.5187 136.96 24.0465 137.416 24.096C138.081 24.1683 138.723 23.7739 139.278 23.4732C139.559 23.3212 139.866 23.1746 140.109 22.9626C140.201 22.8817 140.477 22.5816 140.431 22.4499C140.329 22.16 139.514 22.7693 139.452 22.8227C139.178 23.06 138.678 23.6652 138.939 24.0643C139.156 24.3946 140.01 24.1168 140.274 24.0346C140.596 23.9342 140.918 23.8118 141.217 23.6532C141.881 23.3002 142.645 22.9278 143.117 22.3227C143.25 22.1526 143.639 21.6118 143.274 21.4541C142.963 21.3196 142.518 21.4974 142.236 21.6151C141.595 21.883 140.784 22.3466 140.556 23.0579C140.416 23.493 140.932 23.5359 141.238 23.4986C142.096 23.394 143.285 22.9466 143.719 22.1321C143.822 21.9387 143.965 21.5905 143.869 21.3694C143.783 21.1693 143.342 21.1974 143.177 21.1999C142.322 21.2126 141.461 21.8529 141.011 22.5431C140.788 22.8854 140.72 23.5035 141.304 23.4922C141.549 23.4875 141.886 23.377 142.092 23.3058C142.733 23.0842 143.411 22.8318 143.984 22.4605C144.223 22.3052 144.401 21.9686 144.308 21.6723C144.249 21.4856 143.873 21.4833 143.727 21.4753C143.364 21.4553 143.076 21.5488 142.742 21.6914C142.318 21.8728 141.371 22.3183 141.371 22.9096C141.371 23.2404 142.092 23.0336 142.217 23.0071C143.028 22.8342 143.851 22.4951 144.388 21.827C144.633 21.5229 144.308 21.4771 144.037 21.5049C143.137 21.5973 142.178 22.0143 141.435 22.5049C141.357 22.5562 141.061 22.8898 141.272 22.6469C141.631 22.2332 142.035 21.6929 142.117 21.1363C142.2 20.5707 141.662 20.62 141.304 20.791C140.905 20.981 140.228 21.5994 140.494 22.0939C140.783 22.63 141.879 22.3876 142.319 22.2592C142.638 22.1658 143.082 21.9971 143.143 21.6236C143.188 21.3428 143.166 20.8363 142.808 20.7867C142.18 20.6998 141.141 20.8431 140.893 21.5516C140.463 22.7744 143.006 22.3949 143.532 22.0304C143.786 21.8546 143.37 21.7416 143.232 21.7719C142.714 21.8852 142.202 22.3708 142.249 22.9265C142.288 23.3983 143.119 23.2236 143.384 23.1384C144.025 22.9325 144.547 22.4996 144.696 21.8249C144.719 21.7207 144.806 21.1487 144.541 21.2867C144.251 21.4377 144.173 21.8792 144.249 22.1702C144.337 22.512 144.548 22.702 144.893 22.738C145.164 22.7664 145.346 22.663 145.386 22.3778C145.437 22.0207 145.358 21.9838 145.024 21.9838" stroke="white" stroke-width="2" stroke-linecap="round"/>
<path id="Vector 233" d="M143.804 17.9034C144.057 17.6502 143.175 16.9047 142.897 17.4839C142.781 17.7258 142.883 18.0477 143.096 18.2C143.26 18.3166 143.686 18.4091 143.876 18.2826C143.996 18.2024 144.113 18.0712 144.103 17.9161C144.083 17.6357 143.919 17.5792 143.687 17.4839C143.444 17.3837 142.918 17.2807 142.812 17.5983" stroke="white" stroke-width="2" stroke-linecap="round"/>
<circle id="Ellipse 34" cx="67.7721" cy="41.6482" r="19.1013" fill="#FF8364" stroke="white" stroke-width="7"/>
<circle id="Ellipse 35" cx="231.631" cy="41.6482" r="19.1013" stroke="white" stroke-width="7"/>
</g>
</svg>
