<svg width="213" height="213" viewBox="0 0 213 213" fill="none" xmlns="http://www.w3.org/2000/svg">
<g id="people">
<rect id="Rectangle 4" width="213" height="213" fill="#FF8364"/>
<g id="people_2">
<path id="Vector 30" d="M111.985 100.706C111.54 100.706 110.669 100.532 110.254 100.729C109.739 100.973 108.912 101.5 108.647 102.03C108.122 103.079 108.17 104.886 108.398 106.025C108.826 108.165 110.797 110.891 113.208 110.891C113.714 110.891 114.234 110.992 114.758 110.992C115.379 110.992 115.739 110.674 116.263 110.381C116.841 110.058 117.23 109.41 117.791 109.08C118.085 108.907 117.893 107.644 117.893 107.303C117.893 106.63 117.538 106.019 117.18 105.47C116.906 105.052 116.595 104.83 116.252 104.44C115.895 104.035 115.696 103.585 115.426 103.128C114.864 102.177 113.968 101.493 113.004 101.012" stroke="white" stroke-width="3" stroke-linecap="round"/>
<path id="Vector 31" d="M122.374 108.65C122.235 107.327 121.251 106.108 120.648 104.978C120.041 103.84 119.93 102.854 119.93 101.6C119.93 100.142 120.404 99.0097 121.452 97.9619C122.03 97.3837 122.934 97.5146 123.692 97.5545C124.634 97.604 125.266 98.3047 125.859 98.9747C126.606 99.8173 127.425 100.654 127.975 101.645C128.264 102.165 128.384 102.764 128.637 103.303C128.972 104.016 129.363 104.733 129.554 105.498C130.122 107.77 130.114 110.081 131.438 112.09C131.814 112.661 132.209 113.22 132.598 113.782C132.765 114.023 132.655 114.505 132.683 114.783C132.782 115.785 132.864 116.753 132.864 117.76C132.864 118.459 132.833 119.03 132.609 119.7C132.358 120.454 132.3 121.24 132.049 121.992C131.758 122.867 131.69 123.833 131.54 124.742C131.382 125.698 131.286 126.66 131.234 127.627C131.198 128.306 131.181 128.947 130.72 129.478C129.834 130.496 128.438 130.852 127.67 131.973C127.137 132.75 126.483 133.43 125.837 134.112C125.19 134.794 124.697 135.606 124.054 136.296C123.367 137.034 122.601 137.689 121.916 138.434C121.14 139.278 120.392 140.304 119.805 141.286C118.514 143.444 117.964 145.938 117.542 148.41C117.251 150.111 117.604 151.731 117.587 153.44C117.581 154.01 117.538 154.622 117.429 155.182C117.361 155.528 117.188 155.833 117.18 156.19C117.164 156.89 117.226 157.601 117.174 158.3C117.115 159.094 116.686 159.851 116.569 160.642C116.446 161.467 116.207 162.448 115.958 163.24C115.679 164.125 115.133 164.676 114.481 165.327C113.64 166.168 112.594 165.111 111.986 164.564C111.712 164.317 111.351 164.159 111.046 163.952C110.176 163.362 109.971 162.177 109.796 161.203C109.545 159.811 109.541 158.459 109.541 157.05C109.541 155.455 109.714 153.586 110.101 152.036C110.537 150.294 111.224 148.643 111.454 146.865C111.598 145.75 112.338 143.271 111.374 142.361C110.768 141.788 109.662 142.298 109.083 142.61C107.787 143.308 106.454 143.92 105.162 144.681C104.246 145.22 103.161 145.456 102.208 145.926C101.508 146.271 100.796 146.435 100.019 146.435C99.4109 146.435 98.837 146.292 98.2363 146.237C97.5749 146.177 96.8861 146.231 96.222 146.231C94.1798 146.231 92.1148 146.318 90.0886 146.022C89.3564 145.915 88.6758 145.754 87.9725 145.541C87.6907 145.456 87.3657 145.528 87.0728 145.462C86.1417 145.251 85.1809 145.16 84.2607 144.907C83.2705 144.636 81.8206 144.278 81.0752 143.532C80.6852 143.142 80.2796 142.757 79.904 142.361C79.4359 141.868 79.1156 140.81 78.8855 140.177C78.6126 139.427 77.8554 137.835 78.7837 137.371C79.5861 136.969 80.2463 137.246 81.0243 137.523C81.6183 137.736 82.1964 137.982 82.8575 137.982C84.0287 137.982 85.2 137.982 86.3712 137.982C88.1214 137.982 89.8531 138.185 91.5937 138.185C92.5377 138.185 93.7476 138.367 94.6773 138.134C95.8161 137.85 97.0097 138.005 98.1344 137.755C98.8621 137.594 99.6304 137.476 100.375 137.393C101.31 137.289 102.117 137.052 103.029 136.81C103.681 136.638 104.331 136.458 104.969 136.245C105.453 136.083 105.891 135.811 106.384 135.662C106.904 135.504 107.47 135.455 107.968 135.232C108.67 134.918 109.24 134.413 109.796 133.857C110.173 133.48 110.553 132.941 110.809 132.476C111.03 132.074 111.054 131.496 111.374 131.158C111.969 130.531 111.884 129.354 111.884 128.555C111.884 127.578 111.041 126.976 110.231 126.677C109.461 126.392 108.612 126.398 107.81 126.247C107.037 126.101 106.284 125.71 105.518 125.511C104.526 125.254 103.566 124.982 102.61 124.589C101.241 124.027 99.8211 123.606 98.4626 123.033C97.3579 122.567 96.3628 121.949 95.1809 121.686C94.144 121.456 93.0866 121.163 92.1029 120.77C90.8268 120.259 89.5608 119.936 88.5609 118.936C87.598 117.974 86.295 117.634 85.3018 116.696C84.6447 116.075 83.5517 116.024 83.0046 115.321C82.6121 114.816 82.5422 113.956 82.6765 113.335C83.0086 111.799 84.3521 111.932 85.7092 112.017C87.0449 112.1 87.7408 113.317 88.9683 113.742C90.2694 114.193 91.51 114.249 92.8837 114.359C94.2162 114.466 95.4358 114.532 96.7086 114.964C98.3649 115.527 100.286 115.677 102.01 115.474C104.23 115.213 106.386 115.147 108.625 115.168C110.976 115.19 113.183 116.288 115.556 116.288C117.559 116.288 119.29 115.304 120.286 113.533C120.543 113.076 120.907 112.733 121.197 112.311C121.38 112.044 121.83 111.506 121.865 111.196C121.941 110.508 122.17 109.878 122.17 109.159" stroke="white" stroke-width="3" stroke-linecap="round"/>
<path id="Vector 32" d="M99.6622 89.9103C98.5238 89.9103 97.5107 88.9444 96.3804 88.8919C95.1312 88.8338 93.8629 88.5291 92.9403 89.5029C92.0066 90.4886 91.7103 92.7933 92.4537 93.9615C92.9534 94.7468 94.1693 95.2768 94.9829 95.6194C96.4688 96.245 97.8776 96.2248 99.4585 96.2248C100.36 96.2248 101.215 96.1994 102.084 95.9419C102.249 95.8929 102.43 95.9548 102.593 95.8966C102.997 95.7524 103.338 95.3515 103.685 95.1101C104.049 94.8571 104.621 94.626 104.732 94.1426C104.826 93.7323 104.804 93.2176 104.602 92.8582C104.14 92.0374 103.123 90.9677 102.254 90.5723C101.49 90.2253 100.723 90.3658 99.9677 90.114" stroke="white" stroke-width="3" stroke-linecap="round"/>
<path id="Vector 33" d="M115.754 83.6977C114.713 83.6977 113.663 83.7405 112.744 84.3088C112.18 84.6571 111.505 84.8666 111.114 85.4347C110.767 85.9399 110.663 86.0933 110.514 86.7078C110.339 87.4361 110.237 88.3226 110.254 89.0729C110.291 90.7038 110.98 92.3525 112.285 93.4127C112.65 93.709 112.875 93.8799 113.309 94.0351C113.744 94.1905 114.747 94.4096 115.12 94.0634C115.634 93.5863 116.22 93.2228 116.772 92.7846C117.456 92.242 117.861 91.3871 118.243 90.6232C118.955 89.2005 119.055 87.9103 119.013 86.3457C118.989 85.4558 118.468 83.2884 117.327 83.081C116.872 82.9983 115.652 83.0042 115.652 83.6977" stroke="white" stroke-width="3" stroke-linecap="round"/>
<path id="Vector 34" d="M92.0237 101.215C93.4498 101.268 95.0085 101.701 96.3465 102.183C96.9324 102.394 97.4977 102.509 98.1118 102.618C98.4581 102.68 98.8862 102.617 99.2038 102.794C99.8173 103.135 100.554 103.196 100.579 104.067C100.609 105.133 99.3787 105.59 98.6437 106.127C97.0846 107.264 95.2109 107.246 93.3873 107.128C91.8114 107.026 90.1973 107.122 88.6175 107.122C88.059 107.122 87.4622 107.179 86.9087 107.1C85.8816 106.953 84.9307 106.377 83.9269 106.11C83.0215 105.868 82.1198 105.882 81.228 105.617C80.5302 105.41 79.9219 105.032 79.2929 104.678C78.6776 104.332 78.0484 104.15 77.3805 103.942C76.6421 103.713 76.0485 103.421 75.5246 102.839C74.8412 102.08 74.2275 101.201 73.7932 100.276C73.2785 99.1797 73.018 97.9878 72.5202 96.8925C72.076 95.9154 71.553 94.8966 71.2471 93.8597C70.9083 92.7115 70.6207 91.5546 70.2286 90.4196C69.3956 88.0081 68.592 85.5955 67.6259 83.2338C67.0421 81.8067 66.4381 80.3146 65.3174 79.1939C64.4048 78.2813 63.1563 77.8461 62.1318 77.0721C61.3016 76.4448 60.5138 75.9199 59.8969 75.0974C59.0848 74.0147 58.0371 73.0008 56.949 72.1948C56.4799 71.8473 55.9729 71.5285 55.4496 71.2669C54.1819 70.633 53.0276 69.7433 52.0208 68.749C51.3833 68.1194 50.6547 67.6382 49.9669 67.0516C49.5947 66.7341 49.2612 66.4009 48.8409 66.1576C48.057 65.7037 47.1062 64.4547 47.0134 63.5265C46.8673 62.0659 47.9418 62.1064 49.1465 62.1064C50.909 62.1064 52.6289 62.2544 54.3293 62.774C56.1453 63.3289 57.5896 65.0102 58.7822 66.3952C60.1689 68.0055 61.5851 69.5722 63.2012 70.9443C63.9801 71.6056 64.602 72.2297 65.5437 72.6757C66.3139 73.0406 66.7526 73.584 67.3996 74.1016C68.2907 74.8144 71.2384 68.0252 71.4508 67.1987C72.0622 64.8191 72.2755 62.302 73.2331 60.0185C74.0439 58.0849 74.5957 56.024 75.8302 54.3095C76.6703 53.1425 77.5117 52.0012 78.6366 51.1013C79.4714 50.4335 80.3861 50.164 81.3072 49.6585C82.2236 49.1556 83.0464 48.4998 83.9326 47.9497C84.8263 47.395 85.9187 46.779 87.0106 47.0784C87.6117 47.2432 88.2554 47.571 88.2554 48.2609C88.2554 49.0908 87.9859 49.4819 87.5651 50.1677C87.2241 50.7234 87.085 51.3551 86.7051 51.8991C86.1263 52.7278 85.4569 53.4981 84.7417 54.2133C83.6692 55.2858 82.6475 56.353 81.7429 57.5742C80.9586 58.6329 80.4455 59.7511 80.1077 61.0313C79.9673 61.5633 79.7851 62.0756 79.5985 62.593C79.5114 62.8342 79.4218 63.5583 79.1684 63.685C78.1041 64.2171 77.7723 65.2757 77.4823 66.3839C77.1093 67.8093 76.6449 69.2037 76.6449 70.6841C76.6449 72.1753 76.513 73.7438 76.7241 75.2219C77.0027 77.1721 76.6761 79.7797 78.9308 80.5914C80.0677 81.0007 81.3548 81.5153 82.3483 80.5405C83.0802 79.8224 83.9754 79.3095 84.6964 78.5885C86.0926 77.1922 86.8884 75.4315 87.9272 73.796C88.0933 73.5346 88.4525 73.3619 88.6854 73.1623C89.1256 72.785 89.5509 72.3902 89.9868 72.0081C90.8819 71.2233 91.8456 70.5368 92.7366 69.7448C94.3307 68.3278 95.8879 66.9603 97.6309 65.7219C98.4357 65.15 99.3433 64.7665 100.171 64.2451C100.738 63.8886 101.421 63.489 102.056 63.2776C103.109 62.9265 103.921 62.1254 105.06 61.9989C105.946 61.9004 106.504 61.893 107.323 62.1856C108.38 62.5629 109.096 62.9622 109.315 64.1433C109.416 64.6897 109.541 65.3174 109.315 65.852C109.242 66.0246 109.059 65.9315 108.93 65.9991C108.559 66.1938 108.185 66.6303 107.861 66.8988C106.529 68.0032 105.363 69.1447 103.843 69.9994C102.652 70.6697 101.601 71.7248 100.579 72.6191C98.9254 74.0658 97.8932 76.1096 96.0183 77.338C94.397 78.4002 92.8625 79.8258 91.6389 81.3553C91.2602 81.8287 90.9384 82.3213 90.5978 82.832C90.2472 83.358 89.7751 83.7813 89.602 84.4107C89.415 85.0908 89.1081 85.7458 88.9457 86.4249C88.8007 87.0311 88.7248 87.6199 88.6118 88.2299C88.371 89.5305 87.6527 90.6781 87.4406 92.0039C87.2752 93.0377 86.8862 94.1112 87.2878 95.1554C87.4516 95.5811 87.5794 96.0188 87.7235 96.4511C87.8332 96.7802 88.1183 96.9857 88.2554 97.2942C88.4427 97.7158 89.0476 98.0537 89.3757 98.3636C89.8964 98.8554 90.5155 99.2743 91.1863 99.5065C91.4622 99.602 92.1168 100.009 92.3066 100.219C92.6481 100.599 93.0159 100.959 93.2458 101.419" stroke="white" stroke-width="3" stroke-linecap="round"/>
<path id="Vector 35" d="M115.55 76.6704C113.893 76.6704 112.338 77.5253 110.826 78.1415C109.639 78.625 108.717 79.8195 108.014 80.8461C107.517 81.5708 106.906 82.2642 106.339 82.934C105.919 83.43 105.83 83.4941 105.185 83.4941C104.34 83.4941 104.234 83.2989 103.844 82.47C103.261 81.2316 103.227 79.8223 103.227 78.481C103.227 76.9322 104.16 75.7765 104.97 74.526C105.619 73.5228 106.472 72.6822 107.301 71.8327C108.274 70.8354 109.519 70.1617 110.548 69.2357C111.054 68.7802 111.615 68.4603 111.906 67.8664C112.286 67.092 112.996 66.3419 113.638 65.7729C114.228 65.2497 114.765 64.6175 115.397 64.149C115.921 63.7614 116.567 63.5539 117.129 63.2211C118.123 62.6319 118.932 62.0046 120.133 62.0046C121.378 62.0046 122.68 62.2763 123.924 62.3893C126.75 62.6462 129.516 63.37 132.366 63.4248C134.379 63.4635 136.397 63.5083 138.409 63.5323C139.047 63.5399 139.665 63.4881 140.299 63.4078C141.424 63.2651 142.522 63.0287 143.654 62.9155C144.799 62.801 145.984 62.919 147.128 62.7684C148.701 62.5615 150.298 62.6798 151.83 62.2083C153.606 61.6618 155.811 60.8886 157.103 59.4528C157.815 58.6625 158.729 58.1591 159.57 57.5234C160.365 56.9229 161.367 56.3798 162.303 56.0522C163.407 55.6659 165.054 56.0514 166.021 56.5615C166.654 56.8957 165.408 58.9789 165.308 59.4641C165.203 59.9744 165.271 60.6152 165.047 61.088C164.826 61.5567 164.612 62.0408 164.357 62.4912C163.712 63.6318 162.512 64.3475 161.404 65.0373C160.588 65.5447 159.588 65.9 158.835 66.4858C158.117 67.0443 156.962 67.487 156.085 67.7306C154.723 68.1088 153.386 68.6116 152.062 69.1282C150.855 69.5991 149.658 69.6408 148.396 69.7505C147.878 69.7955 146.885 70.0142 146.919 70.6615C146.964 71.5267 148.024 72.0136 148.656 72.3929C150.085 73.2503 151.441 74.203 152.871 75.0635C154.242 75.8887 155.273 77.0865 156.515 78.0736C156.862 78.3498 156.994 78.3928 157.002 78.8318C157.008 79.2346 157.112 79.619 157.205 80.0087C157.404 80.8371 157.905 81.5589 158.167 82.3682C158.391 83.0614 158.708 83.6592 159.033 84.3089C159.642 85.5265 160.625 86.5139 161.075 87.8169C161.339 88.58 161.662 89.3574 162.043 90.0689C162.727 91.3472 163.006 92.8348 163.158 94.2615C163.208 94.7389 163.347 95.2059 163.237 95.6591C163.051 96.4214 163.011 97.2065 162.886 97.9789C162.77 98.6996 162.624 99.7678 162.037 100.248C161.398 100.771 159.646 100.607 159.038 100.152C157.194 98.7684 156.222 96.1325 155.429 94.0408C154.748 92.2478 153.981 90.4427 153.488 88.5808C153.308 87.9029 153.092 87.2296 152.849 86.5721C152.792 86.4183 152.722 86.4825 152.6 86.4024C152.199 86.1397 151.838 85.7655 151.502 85.4292C150.609 84.5361 149.701 83.6259 148.86 82.685C148.245 81.9982 147.738 81.0752 147.015 80.501C146.505 80.0963 145.688 79.9355 145.289 79.3976C144.657 78.5435 143.812 77.9004 142.992 77.2249C142.142 76.5241 141.133 75.7792 140.072 75.4256C139.245 75.1498 138.255 75.1906 137.391 75.2502C136.315 75.3244 135.389 75.4934 134.776 76.3649C134.134 77.279 134.273 78.272 134.448 79.3241C134.675 80.6838 134.888 82.0289 135.059 83.3979C135.179 84.3531 135.367 85.305 135.818 86.1647C136.113 86.7288 136.308 87.0433 136.332 87.6868C136.388 89.1269 136.847 90.6123 137.119 92.0266C137.344 93.193 137.427 94.3901 137.832 95.512C138.383 97.037 139.109 98.5612 139.28 100.191C139.372 101.061 139.485 101.914 139.688 102.766C139.871 103.537 140.317 104.208 140.502 104.984C140.673 105.695 140.604 106.453 140.604 107.179C140.604 108.005 140.717 108.913 140.452 109.708C140.197 110.472 139.659 111.674 138.952 112.113C137.728 112.873 136.475 111.543 135.818 110.63C135.443 110.111 135.087 109.581 134.72 109.057C134.278 108.428 134.153 107.631 133.905 106.919C133.661 106.216 133.592 105.292 133.475 104.554C133.287 103.362 133.047 102.181 132.864 100.989C132.696 99.8998 132.468 98.8462 132.253 97.7696C132.192 97.4649 131.894 97.1066 131.795 96.7624C131.486 95.6931 131.247 94.6097 130.827 93.5769C130.247 92.1497 129.375 90.8616 128.813 89.4238C128.575 88.8148 128.464 88.2278 128.173 87.6472C127.49 86.2798 126.859 84.8783 126.001 83.6073C124.932 82.0234 123.746 80.546 122.589 79.0185C122.287 78.6201 121.618 77.1972 121.005 77.1797C120.604 77.1682 120.193 77.17 119.805 77.0552C119.585 76.9899 119.386 76.7723 119.166 76.7723C118.953 76.7723 118.607 76.6926 118.402 76.6195C118.115 76.5171 117.785 76.5771 117.485 76.5686C117.234 76.5614 116.986 76.3774 116.772 76.3649C116.39 76.3424 115.882 76.1434 115.55 76.3649" stroke="white" stroke-width="3" stroke-linecap="round"/>
</g>
</g>
</svg>
