<svg width="254" height="47" viewBox="0 0 254 47" fill="none" xmlns="http://www.w3.org/2000/svg">
<g id="group2">
<path id="g3" d="M19.8828 16.8722C19.4175 11.6467 11.2419 11.1037 7.81935 13.0008C5.71466 14.1675 3.24321 20.9685 7.14916 21.4671C10.78 21.9305 13.4071 22.3244 16.168 19.6096C16.767 19.0206 18.2957 17.8788 18.4849 17.0091C18.5933 16.511 18.7417 15.3997 18.8679 16.5594C19.0599 18.3241 19.7041 20.0568 20.0359 21.7995C20.5434 24.4645 20.1819 27.1945 20.6487 29.816C20.8771 31.099 21.2685 32.8693 20.7253 34.1371C18.0708 40.3326 15.7321 43.928 8.85336 44.9496C3.57514 45.7336 -0.269582 37.1592 3.53014 33.5896C5.00567 32.2035 7.422 29.6224 9.61929 29.5423C11.4274 29.4763 13.2479 29.5423 15.0574 29.5423" stroke="#FF8364" stroke-width="3" stroke-linecap="round"/>
<g id="r2">
<path id="Vector 55" d="M30.4289 8.03052V24.55" stroke="#FF8364" stroke-width="3" stroke-linecap="round"/>
<path id="Vector 56" d="M31.4833 16.4661C31.4833 14.6881 33.6449 12.2484 35.5253 12.2484C36.7439 12.2484 38.9679 11.7525 39.5673 12.9513" stroke="#FF8364" stroke-width="3" stroke-linecap="round"/>
</g>
<path id="o" d="M52.4067 13C49.7608 13 48.976 14.3178 47.1162 16.1822C45.1511 18.1523 45 19.5321 45 22.2127C45 23.9453 45.0401 26.6543 47.4689 26.7896C49.4047 26.8974 52.366 27.2965 54.1702 26.5931C55.5655 26.0492 58.2595 24.7285 58.7357 23.0573C59.052 21.9477 59.2299 18.1759 58.4026 17.2429C56.7092 15.3331 54.5851 14.4455 52.4067 13.3536" stroke="#FF8364" stroke-width="3" stroke-linecap="round"/>
<path id="u2" d="M68.1195 14.0598C68.1195 17.0558 68.1195 20.0519 68.1195 23.048C68.1195 24.1138 67.7549 25.9905 68.2992 26.9534C68.9954 28.185 73.4054 28.1147 74.7689 27.8169C76.9583 27.3388 76.7457 22.6824 76.7457 21.0463C76.7457 19.9822 77.3679 16.7669 76.6659 15.9045C76.0192 15.1101 76.6387 13.902 76.0269 13" stroke="#FF8364" stroke-width="3" stroke-linecap="round"/>
<g id="p">
<path id="Vector 59" d="M82.7992 12.5999C82.7992 20.359 83.8536 28.0678 83.8536 35.7974C83.8536 36.9039 83.8536 38.0104 83.8536 39.1169C83.8536 39.4656 83.8536 41.8903 83.8536 40.7181" stroke="#FF8364" stroke-width="3" stroke-linecap="round"/>
<path id="Vector 60" d="M83.1508 12.2483C83.2238 11.6637 92.2911 11.2438 93.2655 12.3264C94.6427 13.8566 95.7315 16.1899 94.8276 18.2235C93.3225 21.6101 87.8138 22.0897 84.5567 22.0897" stroke="#FF8364" stroke-width="3" stroke-linecap="round"/>
</g>
<g id="p2">
<path id="Vector 61" d="M118.79 16.4141V41.369" stroke="#FF8364" stroke-width="3" stroke-linecap="round"/>
<path id="Vector 62" d="M118.087 17.1168C118.763 17.0416 119.279 16.3168 119.922 16.0624C120.887 15.6808 122.352 15.1301 123.378 15.0275C124.577 14.9076 127.536 14.5386 128.631 15.086C130.234 15.8875 130.74 19.2991 130.74 20.8073C130.74 22.5662 128.699 25.6484 127.03 26.2552C124.778 27.0743 122.562 26.9582 120.196 26.9582" stroke="#FF8364" stroke-width="3" stroke-linecap="round"/>
</g>
<g id="r3">
<path id="Vector 63" d="M138.824 13.6023C138.824 18.3389 139.175 22.9452 139.175 27.6614" stroke="#FF8364" stroke-width="3" stroke-linecap="round"/>
<path id="Vector 64" d="M139.176 18.8743C141.018 17.032 142.954 15.0081 145.678 15.0081C147.213 15.0081 149.289 15.2 150.071 16.7654" stroke="#FF8364" stroke-width="3" stroke-linecap="round"/>
</g>
<path id="o2" d="M162.661 14C160.032 14 158.777 15.4557 157.233 17.3903C155.824 19.1566 156.008 20.7992 156.008 22.9744C156.008 27.4758 160.943 28 164.412 28C168.427 28 171.19 23.0593 169.489 19.2251C168.444 16.8669 165.192 14.7179 162.661 14.7179" stroke="#FF8364" stroke-width="3" stroke-linecap="round"/>
<g id="j">
<path id="Vector 66" d="M179.595 13.2507C179.595 16.4422 178.923 19.5558 178.892 22.7406C178.866 25.5998 178.991 28.4207 178.619 31.2542C178.231 34.2115 178.11 37.4373 177.311 40.3146C177.12 41.0016 177.123 42.3966 176.588 42.9311C175.977 43.5424 173.483 43.1618 172.742 43.1069C170.211 42.9194 168.349 41.02 167.294 38.9087" stroke="#FF8364" stroke-width="3" stroke-linecap="round"/>
<path id="Vector 67" d="M181.001 2.3548C179.344 2.56202 183.11 5.67876 183.11 3.58497C183.11 1.95133 181.245 1.27163 180.65 3.05776" stroke="#FF8364" stroke-width="3" stroke-linecap="round"/>
</g>
<path id="e3" d="M191.988 17.0817C193.879 17.0817 199.664 17.2092 199.664 14.2098C199.664 12.3462 198.518 11 196.735 11C195.882 11 195.029 11 194.176 11C193.321 11 192.887 11.8855 192.248 12.3515C190.502 13.6243 190.803 20.0125 191.84 21.6617C193.898 24.9358 198.243 29.3321 202 25.5285" stroke="#FF8364" stroke-width="3" stroke-linecap="round"/>
<path id="c" d="M222.51 10.774C220.228 9.21155 219.349 9 216.752 9C215.234 9 213.355 9.322 212.545 10.6163C210.618 13.6947 209.079 20.4367 210.645 23.9018C211.728 26.2971 214.435 27.7859 217.082 26.5628C218.035 26.1222 219.02 26.31 219.99 25.6758C222.156 24.2598 224.179 22.2056 226 20.3538" stroke="#FF8364" stroke-width="3" stroke-linecap="round"/>
<g id="t">
<path id="Vector 70" d="M237.589 3.40942C237.589 6.58684 237.941 9.71222 237.941 12.8993C237.941 16.7471 237.735 20.8164 239.151 24.4591C239.948 26.5085 241.055 26.6701 243.213 27.0366C248.604 27.952 251.194 23.3611 252 18.523" stroke="#FF8364" stroke-width="3" stroke-linecap="round"/>
<path id="Vector 71" d="M232.317 7.97876H248.485" stroke="#FF8364" stroke-width="3" stroke-linecap="round"/>
</g>
</g>
</svg>
