<svg width="230" height="59" viewBox="0 0 230 59" fill="none" xmlns="http://www.w3.org/2000/svg">
<g id="guide">
<g id="r">
<path id="Vector 37" d="M2.77094 13.9497C1.39523 14.1217 2.70156 27.0244 2.77094 28.8976C2.85284 31.109 2.77094 37.7493 2.77094 35.5364" stroke="#FFD98E" stroke-width="3" stroke-linecap="round"/>
<path id="Vector 38" d="M2 22.8158C4.61761 22.5249 6.62974 18.961 9.5382 18.961C11.8903 18.961 14.095 18.7208 15.8771 20.5029" stroke="#FFD98E" stroke-width="3" stroke-linecap="round"/>
</g>
<path id="e" d="M23.6715 23.742C26.0576 23.742 28.4183 23.4878 30.706 23.3549C31.9885 23.2804 36.2595 21.0759 36.2595 19.4839C36.2595 18.6674 34.1988 17.6051 33.5856 17.1613C32.1892 16.1506 31.6514 16 29.9655 16C27.0614 16 25.4698 16.0252 23.9594 18.7097C22.1857 21.8624 22.9816 28.2251 25.4404 30.7958C28.6973 34.2011 32.8549 32.6453 37 32.6453" stroke="#FFD98E" stroke-width="3" stroke-linecap="round"/>
<g id="a">
<path id="Vector 40" d="M51.3408 18.1901C51.3408 16.3929 51.1072 10.9588 53.4823 10.0951C55.4969 9.36257 58.0446 8.93185 60.1211 9.62401C63.2511 10.6673 63.368 16.2489 63.2905 18.9611C63.2245 21.2737 61.7025 21.2456 60.3995 22.2591C58.7925 23.5089 58.6648 24.771 58.6648 26.6706C58.6648 29.7377 60.1986 35.1511 64.0615 35.1511" stroke="#FFD98E" stroke-width="3" stroke-linecap="round"/>
<path id="Vector 41" d="M58.6649 22.4302C56.0998 22.4302 53.8582 22.1724 51.3409 21.7449C49.5611 21.4427 48.9477 21.8006 47.6789 22.8157C47.2111 23.1899 46.7472 25.2902 46.7152 25.8995C46.6332 27.457 46.9488 27.505 47.6789 28.6407C49.1532 30.934 50.942 33.9945 54.1249 33.9945C55.219 33.9945 56.6215 34.213 57.7012 33.9731C58.8197 33.7245 59.2466 32.4526 60.5923 32.4526" stroke="#FFD98E" stroke-width="3" stroke-linecap="round"/>
</g>
<path id="d" d="M83 21.2354C81.3175 19.7395 78.8115 17.6493 76.4615 17.773C75.4244 17.8276 74.4491 18.111 74.2393 19.1836C73.8516 21.1657 73 23.4585 73 25.4672C73 27.9151 74.7762 29.5187 76.8462 30.5539C78.8246 31.5434 80.3325 30.8084 81.2692 29.1219C81.8576 28.0626 81.8462 24.2597 81.8462 22.988C81.8462 20.3722 81.9636 17.6771 82.2521 15.0801C82.4588 13.22 81.8304 2.58496 83 2" stroke="#FFD98E" stroke-width="3" stroke-linecap="round"/>
<g id="i">
<path id="Vector 43" d="M91.4304 17.8044V32.838" stroke="#FFD98E" stroke-width="3" stroke-linecap="round"/>
<path id="Vector 44" d="M93.3579 6.62573C92.4595 6.73803 91.3849 9.00815 92.4156 9.30265C93.8756 9.7198 93.5898 7.088 94.5143 6.62573" stroke="#FFD98E" stroke-width="3" stroke-linecap="round"/>
</g>
<g id="n">
<path id="Vector 45" d="M104.151 16.2627C104.151 19.4108 104.151 22.5588 104.151 25.7069C104.151 26.9034 103.161 31.5723 104.151 32.0672" stroke="#FFD98E" stroke-width="3" stroke-linecap="round"/>
<path id="Vector 46" d="M104.151 23.2016C104.34 21.5034 106.949 21.2742 108.177 21.2742C110.231 21.2742 111.555 21.7349 112.846 23.3943C115.266 26.5064 113.788 30.4965 113.788 33.9949" stroke="#FFD98E" stroke-width="3" stroke-linecap="round"/>
</g>
<path id="g" d="M131.582 28.3138C131.582 26.0368 127.363 26 125.739 26C123.021 26 124.031 27.2176 123.21 29.085C121.843 32.1926 124.096 38.1348 127.956 38.34C128.869 38.3886 132.54 36.1938 132.769 35.4264C133.161 34.1117 133.194 32.8776 133.194 31.3988C133.194 30.7061 133.194 30.0134 133.194 29.3207C133.194 28.2423 133.194 31.4773 133.194 32.5556C133.194 34.484 133.597 35.9485 133.597 37.8687C133.597 42.5302 134 47.1459 134 51.837C134 55.606 130.598 57.74 126.747 56.7644C122.93 55.7974 119.654 47.6572 124.24 46.1383C126.927 45.2481 129.901 44.9288 132.388 43.7388" stroke="#FFD98E" stroke-width="3" stroke-linecap="round"/>
<path id="g2" d="M168.47 23.7464C167.94 19.1929 161.731 19.1753 159.148 21.639C156.828 23.8527 158.553 27.2866 160.518 29.0571C162.264 30.6306 167.686 31.7594 168.448 28.4881C168.682 27.4853 168.868 24.4051 168.868 25.4324C168.868 27.02 168.868 28.6075 168.868 30.1951C168.868 33.9813 169.343 38.1153 168.492 41.7648C167.914 44.2486 165.321 47.8917 162.02 46.8015C158.08 45.5005 156.641 41.8172 159.502 39.0884C161.445 37.234 163.541 35.9354 166.085 35.1265" stroke="#FFD98E" stroke-width="3" stroke-linecap="round"/>
<path id="u" d="M175.364 22C175.364 25.6419 174.53 30.3631 175.388 33.9389C175.754 35.4662 179.793 36.7124 181.067 35.5322C182.975 33.766 182.576 31.3577 182.576 29.0716C182.576 26.8836 183 24.8249 183 22.7857" stroke="#FFD98E" stroke-width="3" stroke-linecap="round"/>
<g id="i2">
<path id="Vector 50" d="M191.757 24.7847C191.757 26.1532 190.986 27.2768 190.986 28.6394C190.986 29.6674 190.986 30.6953 190.986 31.7232C190.986 33.844 190.215 35.7274 190.215 37.8909" stroke="#FFD98E" stroke-width="3" stroke-linecap="round"/>
<path id="Vector 51" d="M193.684 15.5332C192.118 15.7289 192.527 17.5675 193.877 17.8675C194.189 17.9368 195.437 18.6854 195.59 17.996C195.734 17.349 195.798 16.2046 195.226 15.9187" stroke="#FFD98E" stroke-width="3" stroke-linecap="round"/>
</g>
<path id="d2" d="M206.7 29.2778C204.429 29.2778 200.413 28.0299 200.183 32C200.06 34.1103 199.69 34.8615 200.566 36.8611C201.255 38.4324 203.077 39 204.591 39C206.628 39 208.1 38.3213 208.233 35.8889C208.343 33.8941 208.233 31.8575 208.233 29.8611C208.233 25.8273 209 22.0493 209 18" stroke="#FFD98E" stroke-width="3" stroke-linecap="round"/>
<path id="e2" d="M218 31.2269C220.519 31.2269 228.292 35.4894 227.992 30.0741C227.871 27.9001 225.535 27 223.764 27C221.554 27 221.252 27.0657 219.921 28.7292C218.81 30.119 218.384 30.2494 218.384 32.1876C218.384 33.8086 218.185 35.4028 218.961 36.7988C219.785 38.2826 220.658 39.9333 222.035 41.0044C223.562 42.1918 224.851 41.9864 226.839 41.9864" stroke="#FFD98E" stroke-width="3" stroke-linecap="round"/>
</g>
</svg>
