<svg width="411" height="51" viewBox="0 0 411 51" fill="none" xmlns="http://www.w3.org/2000/svg">
<g id="international2">
<g id="p3">
<path id="Vector 61" d="M270.325 20.929V46.9076" stroke="#FFB677" stroke-width="3" stroke-linecap="round"/>
<path id="Vector 62" d="M269.594 21.6606C270.298 21.5823 270.834 20.8277 271.504 20.5629C272.509 20.1657 274.034 19.5924 275.102 19.4855C276.35 19.3608 279.431 18.9766 280.57 19.5465C282.239 20.3809 282.766 23.9324 282.766 25.5025C282.766 27.3334 280.641 30.5421 278.904 31.1739C276.559 32.0265 274.252 31.9057 271.789 31.9057" stroke="#FFB677" stroke-width="3" stroke-linecap="round"/>
</g>
<g id="r5">
<path id="Vector 63" d="M291.181 18.0017C291.181 22.9326 291.547 27.7279 291.547 32.6376" stroke="#FFB677" stroke-width="3" stroke-linecap="round"/>
<path id="Vector 64" d="M291.547 23.4902C293.465 21.5723 295.48 19.4653 298.316 19.4653C299.915 19.4653 302.075 19.6651 302.89 21.2948" stroke="#FFB677" stroke-width="3" stroke-linecap="round"/>
</g>
<path id="o4" d="M315.661 18.1367C313.032 18.1367 311.777 19.6964 310.233 21.7692C308.824 23.6617 309.008 25.4216 309.008 27.7521C309.008 32.5751 313.943 33.1367 317.412 33.1367C321.427 33.1367 324.19 27.8431 322.489 23.735C321.444 21.2084 318.192 18.9059 315.661 18.9059" stroke="#FFB677" stroke-width="3" stroke-linecap="round"/>
<g id="j2">
<path id="Vector 66" d="M333.625 17.6357C333.625 20.9582 332.925 24.1995 332.894 27.5149C332.866 30.4914 332.996 33.428 332.609 36.3778C332.205 39.4563 332.079 42.8145 331.247 45.8098C331.048 46.525 331.051 47.9772 330.495 48.5336C329.859 49.17 327.263 48.7738 326.49 48.7166C323.856 48.5214 321.918 46.5442 320.819 44.3462" stroke="#FFB677" stroke-width="3" stroke-linecap="round"/>
<path id="Vector 67" d="M335.089 6.29294C333.363 6.50866 337.284 9.75325 337.284 7.57357C337.284 5.87292 335.343 5.16533 334.723 7.02473" stroke="#FFB677" stroke-width="3" stroke-linecap="round"/>
</g>
<path id="e5" d="M346.078 21.5985C348.141 21.5985 354.452 21.734 354.452 18.5471C354.452 16.5671 353.202 15.1367 351.256 15.1367C350.326 15.1367 349.395 15.1367 348.465 15.1367C347.532 15.1367 347.059 16.0776 346.361 16.5727C344.456 17.9251 344.785 24.7125 345.916 26.4648C348.161 29.9435 352.902 34.6146 357 30.5732" stroke="#FFB677" stroke-width="3" stroke-linecap="round"/>
<path id="c2" d="M378.292 15.0093C375.868 13.36 374.934 13.1367 372.174 13.1367C370.561 13.1367 368.565 13.4766 367.704 14.8428C365.657 18.0923 364.022 25.2088 365.686 28.8664C366.836 31.3948 369.713 32.9663 372.524 31.6753C373.538 31.2101 374.583 31.4084 375.614 30.739C377.916 29.2443 380.065 27.076 382 25.1212" stroke="#FFB677" stroke-width="3" stroke-linecap="round"/>
<g id="t4">
<path id="Vector 70" d="M393.998 7.39062C393.998 10.6984 394.364 13.952 394.364 17.2698C394.364 21.2754 394.15 25.5117 395.624 29.3037C396.454 31.4373 397.606 31.6055 399.853 31.987C405.465 32.94 408.16 28.1608 409 23.1242" stroke="#FFB677" stroke-width="3" stroke-linecap="round"/>
<path id="Vector 71" d="M388.51 12.1472H405.341" stroke="#FFB677" stroke-width="3" stroke-linecap="round"/>
</g>
<g id="i3">
<path id="Vector 72" d="M3.51439 15.6299C3.51439 23.7537 2 31.4875 2 39.3553" stroke="#FFB677" stroke-width="3" stroke-linecap="round"/>
<path id="Vector 73" d="M2.5048 3.00996C3.51338 3.13604 7.04796 7.76135 7.04796 4.27195C7.04796 2.39585 7.19779 2.00037 5.28117 2.00037C3.9994 2.00037 3.07425 1.96804 2 2.50517" stroke="#FFB677" stroke-width="3" stroke-linecap="round"/>
</g>
<g id="n2">
<path id="Vector 74" d="M17.6651 15.9993C17.6651 21.6782 17.432 27.3502 17.432 33.0163C17.432 33.9432 17.1989 34.6943 17.1989 35.6323C17.1989 36.1536 17.2777 39.0411 16.7327 37.6785" stroke="#FFB677" stroke-width="3" stroke-linecap="round"/>
<path id="Vector 75" d="M18.1312 22.9926C19.5907 22.9926 20.6164 21.9367 22.0423 21.8271C23.1403 21.7426 24.2147 21.3608 25.3576 21.3608C26.1369 21.3608 27.162 22.5695 27.5074 23.2257C28.094 24.3402 28.3668 25.4028 28.6341 26.6058C29.4691 30.3634 29.0874 41.994 29.0874 38.1447" stroke="#FFB677" stroke-width="3" stroke-linecap="round"/>
</g>
<g id="t2">
<path id="Vector 76" d="M42.6078 12.0364C42.6078 16.7158 42.6078 21.3953 42.6078 26.0748C42.6078 28.7032 42.1601 31.8579 43.877 34.0652C44.2091 34.4922 44.484 35.7731 45.172 35.8136C45.8256 35.852 47.0453 36.0161 47.6197 35.697C48.099 35.4307 48.1321 34.8857 48.5651 34.5315C49.2548 33.9672 49.9157 33.4353 50.5336 32.7831C51.7165 31.5345 52.1845 30.2986 52.3984 28.5872" stroke="#FFB677" stroke-width="3" stroke-linecap="round"/>
<path id="Vector 77" d="M34.6821 15.7661C37.9068 15.7661 41.1314 15.7661 44.3561 15.7661C45.1843 15.7661 48.4407 16.4551 48.6687 15.9992" stroke="#FFB677" stroke-width="3" stroke-linecap="round"/>
</g>
<path id="e4" d="M64.765 20.328C67.1342 20.328 69.7296 20.6598 72.0347 19.974C73.8024 19.4481 74.1335 18.7472 73.2463 16.9198C72.3485 15.0705 69.5255 15.137 67.8491 15.137C66.0279 15.137 65.5605 16.3905 64.7528 17.8505C63.6304 19.8791 63.0027 21.0376 63.0027 23.4478C63.0027 27.2494 62.8406 30.2709 65.0343 33.4888C66.5545 35.7188 67.6895 36.1367 70.101 36.1367C71.7292 36.1367 72.8462 35.9997 74.3356 35.2978C74.9834 34.9925 75.4406 34.3127 76 34.0132" stroke="#FFB677" stroke-width="3" stroke-linecap="round"/>
<g id="r4">
<path id="Vector 79" d="M86.6655 12.0364V35.8136" stroke="#FFB677" stroke-width="3" stroke-linecap="round"/>
<path id="Vector 80" d="M86.6655 20.1951C86.6655 18.9111 87.8487 17.2375 88.5822 16.2323C89.188 15.4021 90.3226 14.6155 91.3148 14.3674C92.5225 14.0655 93.6346 13.9799 94.7208 14.6005C96.4893 15.6111 99.0127 16.5704 100.186 18.3303" stroke="#FFB677" stroke-width="3" stroke-linecap="round"/>
</g>
<g id="n3">
<path id="Vector 81" d="M107.179 12.0364C107.179 19.7306 107.645 42.8084 107.645 35.1142" stroke="#FFB677" stroke-width="3" stroke-linecap="round"/>
<path id="Vector 82" d="M107.646 20.4283C107.646 16.5753 110.91 14.781 114.173 16.1158C116.747 17.1689 118.382 18.5725 118.602 21.5421C118.956 26.3247 119.301 30.967 119.301 35.8135" stroke="#FFB677" stroke-width="3" stroke-linecap="round"/>
</g>
<g id="a2">
<path id="Vector 83" d="M127.693 11.8033C130.395 11.8033 133.12 11.2784 134.919 13.5775C135.944 14.8865 136.953 16.1981 137.432 17.8123C138.337 20.8694 136.245 24.4185 134.453 26.7223C132.485 29.2523 134.15 31.5203 135.735 33.7156C136.456 34.7141 139.815 36.6304 139.815 34.4149" stroke="#FFB677" stroke-width="3" stroke-linecap="round"/>
<path id="Vector 84" d="M136.318 23.2257C133.723 23.2257 131.047 22.6486 128.509 23.2128C127.795 23.3714 126.821 24.3306 126.294 24.8575C125.45 25.7014 125.362 26.7587 125.362 27.8879C125.362 29.8654 125.211 31.3547 126.411 33.0163C127.002 33.8346 127.993 34.8812 129.091 34.8812C129.886 34.8812 131.548 35.1991 132.251 34.7517C132.896 34.3414 134.151 33.7157 134.919 33.7157" stroke="#FFB677" stroke-width="3" stroke-linecap="round"/>
</g>
<g id="t3">
<path id="Vector 85" d="M149.139 10.4045C149.139 4.57212 149.007 22.1149 149.838 27.8877C150.163 30.1407 150.516 32.3655 150.952 34.5961C151.138 35.5459 151.265 37.1611 151.936 37.9115C153.472 39.628 155.831 37.5692 157.065 36.461C159.063 34.6658 159.312 32.1029 160.095 29.7526" stroke="#FFB677" stroke-width="3" stroke-linecap="round"/>
<path id="Vector 86" d="M145.409 18.3301C148.206 18.3301 150.892 19.2625 153.698 19.2625C154.672 19.2625 155.681 19.9413 156.365 19.0294" stroke="#FFB677" stroke-width="3" stroke-linecap="round"/>
</g>
<g id="i4">
<path id="Vector 87" d="M168.487 17.3979V37.6785" stroke="#FFB677" stroke-width="3" stroke-linecap="round"/>
<path id="Vector 88" d="M168.487 8.53966C168.437 8.19183 168.03 9.07333 168.021 9.23899C167.997 9.66336 168.021 10.096 168.021 10.5211C168.021 11.0783 169.701 12.2759 169.873 11.6737C170.09 10.9135 170.401 10.3496 170.352 9.4721C170.314 8.78548 168.994 8.38859 168.72 7.84033" stroke="#FFB677" stroke-width="3" stroke-linecap="round"/>
</g>
<path id="o3" d="M180.155 17.5943C174.139 17.8974 174.593 25.6273 175.612 29.7342C176.404 32.9256 180.196 34.5252 183.221 34.0563C184.974 33.7847 187.509 30.9303 187.991 29.3656C188.683 27.1183 189.401 23.1929 188.736 20.8486C187.852 17.7334 182.316 18.5881 180.155 17.1367" stroke="#FFB677" stroke-width="3" stroke-linecap="round"/>
<g id="n4">
<path id="Vector 90" d="M197.859 12.7358V38.1448" stroke="#FFB677" stroke-width="3" stroke-linecap="round"/>
<path id="Vector 91" d="M197.859 18.5636C200.228 18.5636 202.296 17.048 204.619 16.9318C205.387 16.8934 206.893 16.8297 207.365 17.6312C208.952 20.3293 209.195 22.6755 209.281 25.79C209.339 27.8719 209.514 30.0068 209.514 32.1358C209.514 32.9366 209.454 37.7648 209.281 37.6786" stroke="#FFB677" stroke-width="3" stroke-linecap="round"/>
</g>
<g id="a3">
<path id="Vector 92" d="M215.109 14.3675C216.745 14.3675 218.809 14.0136 220.341 14.6266C221.786 15.2044 223.582 16.6786 224.291 18.0973C225.864 21.2441 224.415 24.5603 222.789 27.3051C221.647 29.2313 219.937 32.8417 221.869 34.8812C222.936 36.0069 224.887 35.5805 226.298 35.5805" stroke="#FFB677" stroke-width="3" stroke-linecap="round"/>
<path id="Vector 93" d="M223.501 24.6243C221.928 24.6243 220.362 24.0822 218.839 23.7437C218.009 23.5594 215.774 23.3743 214.993 23.8084C213.729 24.5106 213.477 27.2837 213.477 28.5872C213.477 30.0061 213.623 34.2864 215.808 34.4149C217.432 34.5104 218.962 34.4516 220.471 33.9487" stroke="#FFB677" stroke-width="3" stroke-linecap="round"/>
</g>
<path id="l" d="M234 32.5798C234.096 28.9237 235.874 25.2671 236.75 21.7409C237.595 18.3403 238.099 14.7078 239.258 11.4017C239.603 10.4182 240.821 6.7601 239.602 6.05917C238.162 5.2313 236.905 5.13672 235.26 5.13672C233.833 5.13672 234.217 11.178 234.344 12.0423C234.822 15.3132 236.623 18.1284 238.074 21.0491C238.658 22.2251 239.552 23.1008 240.238 24.2264C240.826 25.1903 241.219 26.3093 241.792 27.2244C242.401 28.1981 243.072 29.0331 243.574 30.043C243.915 30.7292 244.166 31.429 244.491 32.1186C244.692 32.5452 244.78 33.6958 245 32.8104" stroke="#FFB677" stroke-width="3" stroke-linecap="round"/>
</g>
</svg>
