<svg width="165" height="154" viewBox="0 0 165 154" fill="none" xmlns="http://www.w3.org/2000/svg">
<g id="plane">
<rect id="Rectangle 4" width="165" height="154" fill="#FFB677"/>
<g id="plane_2">
<path id="Vector 9" d="M61.4072 110.396C63.0968 110.396 64.8089 109.562 66.3215 108.89C68.3641 107.982 70.7602 107.107 72.6588 105.928C73.9803 105.108 76.3296 103.279 77.4903 104.439C79.0538 106.003 80.8827 107.49 82.6197 108.841C82.6252 108.845 83.4329 107.1 83.6125 106.838C84.171 106.026 84.9461 105.319 85.5318 104.505C86.9244 102.571 91.6567 107.016 92.9777 107.715C95.6709 109.141 98.0586 111.447 100.721 112.779" stroke="white" stroke-width="3" stroke-linecap="round"/>
<path id="Vector 10" d="M101.019 98.4825V112.779" stroke="white" stroke-width="3" stroke-linecap="round"/>
<path id="Vector 11" d="M60.8115 99.3761V110.098" stroke="white" stroke-width="3" stroke-linecap="round"/>
<path id="Vector 12" d="M60.8115 99.3761C65.0566 99.3761 68.3331 95.4664 71.8314 93.7173" stroke="white" stroke-width="3" stroke-linecap="round"/>
<path id="Vector 13" d="M100.722 98.1847C98.1665 98.1847 95.2486 96.9708 93.9375 94.6107C93.4279 93.6935 92.6068 93.1453 91.8527 92.4597C91.1061 91.781 89.526 91.2811 89.106 90.441" stroke="white" stroke-width="3" stroke-linecap="round"/>
<path id="Vector 14" d="M71.5336 93.1215C71.5336 90.4907 71.5336 87.8598 71.5336 85.2289C71.5336 83.1732 71.4508 81.1832 71.2357 79.1398C71.066 77.5269 70.454 75.9937 70.3588 74.3745C70.1996 71.6683 69.4487 68.9056 69.4487 66.3164" stroke="white" stroke-width="3" stroke-linecap="round"/>
<path id="Vector 15" d="M89.404 91.0366C89.404 86.7259 89.2958 82.4311 89.1061 78.1636C88.91 73.7505 87.6169 69.7863 87.6169 65.4229" stroke="white" stroke-width="3" stroke-linecap="round"/>
<path id="Vector 16" d="M87.6169 65.1251C88.8524 65.1251 90.0879 65.1251 91.3233 65.1251C93.2207 65.1251 94.6599 66.1821 96.4031 66.7632C100.215 68.0338 103.43 70.2776 107.042 71.9091C110.991 73.6925 115.16 75.1582 119.055 77.0385C121.417 78.1789 124.828 80.0169 127.527 80.0169" stroke="white" stroke-width="3" stroke-linecap="round"/>
<path id="Vector 17" d="M69.1511 66.0186C65.7183 66.0186 62.0807 66.9394 59.0247 68.4674C57.6017 69.1789 56.1575 69.8965 54.7888 70.7177C53.8327 71.2914 52.8642 71.766 51.8767 72.2731C51.1189 72.6622 50.6171 73.4533 49.7918 73.6961C47.9687 74.2323 45.8278 76.0995 44.3646 77.2701C43.4803 77.9775 41.6406 78.3508 40.5589 78.8916C39.6469 79.3477 38.8423 79.9933 37.8784 80.3146" stroke="white" stroke-width="3" stroke-linecap="round"/>
<path id="Vector 18" d="M36.0552 80.5212C36.0552 78.8526 35.9207 77.1286 36.0717 75.4671C36.3237 72.6949 37.6946 70.0827 38.8796 67.6216C40.6004 64.0476 43.6679 61.2361 46.4608 58.5209C48.9964 56.0557 51.9984 54.0969 55.066 52.4097C56.1818 51.796 57.2159 50.9762 58.4189 50.5598C59.3096 50.2515 60.2111 50.1468 61.0286 49.6018" stroke="white" stroke-width="3" stroke-linecap="round"/>
<path id="Vector 19" d="M128.814 79.6293C128.814 78.6649 129.319 75.3961 128.665 74.8725C128.183 74.4871 128.183 72.1892 127.922 71.47C127.38 69.9806 126.993 68.532 126.567 67.0105C125.711 63.9537 122.933 61.2618 120.786 59.1155C119.669 57.9985 118.236 56.7927 116.773 56.1425C115.152 55.4219 113.772 54.2472 112.165 53.4667C109.681 52.2605 106.755 51.9077 104.369 50.4937C102.596 49.443 100.315 49.9688 98.4888 49.2384C96.3603 48.387 92.7472 48.7192 91.3535 46.6288" stroke="white" stroke-width="3" stroke-linecap="round"/>
<path id="Vector 20" d="M59.542 50.1964C59.542 48.0712 59.542 45.9461 59.542 43.8209C59.542 42.4715 59.7403 41.1931 59.8393 39.8569C59.8861 39.2245 61.4251 39.4935 61.9204 39.4935C63.6704 39.4935 64.7919 40.2408 64.8934 42.1692C64.9905 44.0144 66.0826 45.679 66.0826 47.5207" stroke="white" stroke-width="3" stroke-linecap="round"/>
<path id="Vector 21" d="M91.0562 46.3314C91.0562 44.2019 91.9244 39.7908 88.975 39.7908C87.8517 39.7908 86.2993 39.6436 86.2993 41.1286C86.2993 42.6363 85.1101 43.7252 85.1101 45.1422" stroke="white" stroke-width="3" stroke-linecap="round"/>
<path id="Vector 22" d="M65.488 47.8181C66.4904 46.7043 68.2629 44.6468 69.6503 43.9531" stroke="white" stroke-width="3" stroke-linecap="round"/>
<path id="Vector 23" d="M79.7585 41.5747C81.1078 41.7246 81.7122 43.618 82.7316 44.1844C83.6061 44.6702 84.0618 45.3875 85.11 45.7369" stroke="white" stroke-width="3" stroke-linecap="round"/>
<path id="Vector 24" d="M69.3531 44.2504C69.3531 37.7181 69.1766 31.1585 69.3531 24.6284C69.3822 23.5511 69.6784 21.7732 70.1129 20.78C70.4272 20.0616 70.7024 18.287 71.4342 17.8565C72.9131 16.9866 74.5579 16.6354 76.0589 17.4932C80.4039 19.976 80.6506 24.3057 80.6506 28.9393C80.6506 31.3307 80.9479 33.7001 80.9479 36.058C80.9479 38.1843 80.6506 40.5155 80.6506 42.4665" stroke="white" stroke-width="3" stroke-linecap="round"/>
<path id="Vector 25" d="M37.8391 85.8727V105.197" stroke="white" stroke-width="3" stroke-linecap="round"/>
<path id="Vector 26" d="M53.2989 81.7104C53.2989 90.6736 53.2989 99.6367 53.2989 108.6C53.2989 112.151 52.9298 115.931 53.4476 119.451C53.7238 121.33 53.8935 123.521 53.8935 125.414" stroke="white" stroke-width="3" stroke-linecap="round"/>
<path id="Vector 27" d="M82.7317 113.819V137.009" stroke="white" stroke-width="3" stroke-linecap="round"/>
<path id="Vector 28" d="M110.678 78.7374C110.678 82.8061 110.678 86.8747 110.678 90.9433C110.678 97.3895 112.391 103.442 113.354 109.756C114 113.992 114.246 118.171 114.246 122.441" stroke="white" stroke-width="3" stroke-linecap="round"/>
<path id="Vector 29" d="M123.76 86.4673C123.76 91.3509 124.057 96.1441 124.057 101.035" stroke="white" stroke-width="3" stroke-linecap="round"/>
</g>
</g>
</svg>
