<svg width="571" height="359" viewBox="0 0 571 359" fill="none" xmlns="http://www.w3.org/2000/svg">
<path d="M87.4602 5.60107C48.5679 5.60107 5.7749 32.7892 5.7749 75.4289C5.7749 90.4961 11.315 105.593 25.3911 113.637C37.9821 120.831 52.8965 118.907 67.5513 118.907C97.9795 118.907 119.08 85.6654 119.08 58.3013C119.08 44.5982 118.791 34.8839 110.59 24.6317C108.756 22.339 87.4602 0.278972 87.4602 8.23608" stroke="white" stroke-width="10" stroke-linecap="round"/>
<path d="M92.7302 113.637C92.7302 132.53 104.68 155.743 118.495 169.558C134.133 185.196 149.45 207.51 169.146 218.452C179.064 223.962 188.139 228.972 198.131 234.262C206.396 238.637 219.646 242.412 226.53 248.608C246.278 266.381 277.435 268.722 300.311 282.277C319.19 293.465 353.03 300.722 374.676 300.722C384.427 300.722 399.709 303.943 408.932 308.042C420.039 312.979 433.905 311.263 445.822 311.263C470.749 311.263 488.284 308.26 509.062 296.038C517.456 291.1 523.858 283.516 532.777 279.057C541.978 274.457 550.51 270.776 559.127 266.467" stroke="white" stroke-width="10" stroke-linecap="round"/>
<path d="M196 232.212C196.828 238.839 286.036 206.786 294.813 201.91C311.598 192.585 334.937 187.016 349.855 175.413C356.94 169.903 364.664 164.816 372.546 159.749C378.577 155.872 383.513 147.678 388.356 145.257" stroke="white" stroke-width="10" stroke-linecap="round"/>
<path d="M187.591 228.465C187.591 217.173 198.222 201.909 202.815 191.575C207.662 180.669 210.15 168.351 215.99 157.32C221.308 147.276 228.342 143.22 237.656 138.289C245.375 134.203 268.438 130.012 271.911 123.065" stroke="white" stroke-width="10" stroke-linecap="round"/>
<path d="M271.911 123.065C271.911 114.541 274.546 105.84 274.546 96.7151C274.546 88.4842 269.276 80.6474 269.276 73" stroke="white" stroke-width="10" stroke-linecap="round"/>
<path d="M271.911 130.97C283.652 130.97 289.001 144.785 298.261 149.415" stroke="white" stroke-width="10" stroke-linecap="round"/>
<path d="M271.911 130.97C272.012 130.159 295.62 104.623 295.626 104.62" stroke="white" stroke-width="10" stroke-linecap="round"/>
<path d="M383.086 150.527C383.086 136.571 377.816 124.564 377.816 111.001" stroke="white" stroke-width="10" stroke-linecap="round"/>
<path d="M390.991 150.527C398.07 150.527 414.535 160.725 417.341 166.337" stroke="white" stroke-width="10" stroke-linecap="round"/>
<path d="M388.356 147.892C388.675 145.336 404.706 133.011 407.387 130.032C412.32 124.55 417.341 113.241 417.341 105.731" stroke="white" stroke-width="10" stroke-linecap="round"/>
<path d="M82.1902 42.4912C82.1902 50.1597 88.5187 60.1003 98.0002 55.0807C110.003 48.7261 91.6497 44.349 84.8252 47.7612" stroke="white" stroke-width="10" stroke-linecap="round"/>
<path d="M90.8543 86.8459C87.6066 90.9055 96.053 100.736 100.471 100.736" stroke="white" stroke-width="10" stroke-linecap="round"/>
<path d="M506.427 300.722C506.427 316.104 521.627 326.463 531.459 336.295C536.194 341.029 544.375 347.347 551.222 348.153C554.698 348.562 569.203 351.02 564.397 353.423" stroke="white" stroke-width="10" stroke-linecap="round"/>
</svg>
