<svg width="722" height="496" viewBox="0 0 722 496" fill="none" xmlns="http://www.w3.org/2000/svg">
<path d="M5.9375 280.938C12.8894 281.711 21.7008 290.433 27.7858 293.856C39.3918 300.384 51.5164 306.434 63.3492 312.515C78.6319 320.369 90.0279 329.99 97.7962 345.527C106.007 361.947 113.584 378.731 113.584 397.277C113.584 410.407 113.584 423.537 113.584 436.668C113.584 444.565 110.714 451.834 110.714 459.632C110.714 470.082 102.102 479.517 102.102 490.491" stroke="white" stroke-width="10" stroke-linecap="round"/>
<path d="M106.408 359.879C111.59 359.361 118.183 353.059 122.117 349.912C128.376 344.904 135.964 341.835 142.291 336.914C152.741 328.786 168.34 323.191 180.326 317.458C193.87 310.981 209.066 307.035 222.667 300.235C239.136 292 255.383 282.744 272.185 275.277C278.941 272.274 286.348 271.25 292.996 268.02C298.156 265.514 304.713 262.693 310.22 261.163C323.397 257.503 335.779 251.806 349.292 249.043C368.741 245.064 388.097 237.482 407.82 236.444C419.725 235.817 430.956 229.268 442.984 229.268C462.628 229.268 483.04 206.146 490.269 189.717C496.912 174.62 505.39 158.977 510.044 143.15C514.411 128.303 515.467 113.621 515.467 97.699C515.467 75.3453 515.936 50.487 502.23 31.1971C498.828 26.4095 496.025 22.1932 493.618 16.8442C492.458 14.2649 491.966 9.39952 489.631 8.23242" stroke="white" stroke-width="10" stroke-linecap="round"/>
<path d="M503.984 157.503C509.339 163.527 513.641 171.149 518.656 177.597C527.526 189 541.169 196.272 552.465 204.868C569.656 217.948 594.658 228.269 615.937 232.138C639.885 236.492 663.268 240.75 687.702 240.75C698.227 240.75 729.804 240.75 719.278 240.75" stroke="white" stroke-width="10" stroke-linecap="round"/>
<path d="M506.855 156.068C513.07 155.291 521.633 150.138 527.667 147.456C535.737 143.869 541.367 137.982 547.363 131.987C558.365 120.984 561.397 113.945 561.397 97.9382C561.397 80.2469 570.311 66.8107 582.926 55.5971C589.84 49.4514 600.434 46.9854 609.479 46.9854C616.191 46.9854 622.252 47.22 628.855 48.4206C632.758 49.1301 644.842 50.1038 647.514 53.4442C649.182 55.5294 653.751 57.6602 656.126 59.903C659.396 62.9919 661.539 66.5636 664.738 69.95C670.332 75.8731 670.479 84.6367 670.479 92.1971C670.479 109.716 668.003 119.377 651.82 127.043C634.169 135.404 614.785 131.668 596.561 131.668C583.504 131.668 571.309 124.424 559.961 118.75" stroke="white" stroke-width="10" stroke-linecap="round"/>
<path d="M595.843 79.9972C596.659 73.4749 607.032 73.3239 610.515 76.8077C616.238 82.5301 596.954 81.4325 594.408 81.4325" stroke="white" stroke-width="10" stroke-linecap="round"/>
<path d="M634.597 88.6091C634.597 81.2653 648.95 82.8028 648.95 89.3267C648.95 95.427 633.681 93.954 631.727 90.0444" stroke="white" stroke-width="10" stroke-linecap="round"/>
<path d="M578.619 94.3496C578.619 101.086 577.738 105.527 582.925 110.138C586.334 113.168 590.576 117.314 595.125 117.314C598.878 117.314 606.314 116.784 608.76 113.726C610.154 111.985 611.663 110.641 613.704 110.058C615.247 109.617 615.666 105.25 617.372 104.397" stroke="white" stroke-width="10" stroke-linecap="round"/>
<path d="M607.326 48.4203C607.326 34.8125 584.897 28.3262 574.314 28.3262" stroke="white" stroke-width="10" stroke-linecap="round"/>
<path d="M644.642 52.727C645.976 52.5603 651.442 45.4352 651.819 44.1152C653.184 39.336 656.415 35.2717 657.48 30.4799C659.518 21.3088 650.708 9.11287 643.207 5.3623" stroke="white" stroke-width="10" stroke-linecap="round"/>
<path d="M669.043 74.2561C669.043 59.1912 703.235 68.3874 709.231 71.3856" stroke="white" stroke-width="10" stroke-linecap="round"/>
<path d="M673.35 98.6562C674.629 108.895 691.74 110.139 699.185 110.139" stroke="white" stroke-width="10" stroke-linecap="round"/>
</svg>
