<svg width="371" height="47" viewBox="0 0 371 47" fill="none" xmlns="http://www.w3.org/2000/svg">
<path d="M230.732 11.6859V37.6645" stroke="#BBC9FC" stroke-width="3" stroke-linecap="round"/>
<path d="M230 12.4176C230.704 12.3394 231.241 11.5848 231.911 11.3199C232.916 10.9227 234.44 10.3495 235.509 10.2426C236.756 10.1178 239.837 9.73372 240.977 10.3036C242.646 11.1379 243.172 14.6895 243.172 16.2595C243.172 18.0905 241.047 21.2992 239.31 21.9309C236.965 22.7836 234.658 22.6627 232.195 22.6627" stroke="#BBC9FC" stroke-width="3" stroke-linecap="round"/>
<path d="M251.588 16C251.588 20.9309 251.954 25.7262 251.954 30.6358" stroke="#BBC9FC" stroke-width="3" stroke-linecap="round"/>
<path d="M251.954 21.4884C253.872 19.5705 255.887 17.4635 258.723 17.4635C260.321 17.4635 262.482 17.6633 263.297 19.293" stroke="#BBC9FC" stroke-width="3" stroke-linecap="round"/>
<path d="M276.068 16C273.439 16 272.184 17.5597 270.64 19.6325C269.23 21.5249 269.414 23.2849 269.414 25.6154C269.414 30.4384 274.35 31 277.818 31C281.833 31 284.596 25.7064 282.896 21.5983C281.85 19.0717 278.599 16.7692 276.068 16.7692" stroke="#BBC9FC" stroke-width="3" stroke-linecap="round"/>
<path d="M294.032 13.7122C294.032 17.0346 293.331 20.2759 293.3 23.5914C293.272 26.5678 293.402 29.5044 293.016 32.4542C292.612 35.5327 292.486 38.8909 291.654 41.8862C291.455 42.6014 291.458 44.0536 290.902 44.6101C290.265 45.2464 287.669 44.8502 286.897 44.793C284.262 44.5978 282.325 42.6206 281.226 40.4226" stroke="#BBC9FC" stroke-width="3" stroke-linecap="round"/>
<path d="M295.496 2.36935C293.77 2.58507 297.691 5.82966 297.691 3.64999C297.691 1.94933 295.75 1.24175 295.13 3.10115" stroke="#BBC9FC" stroke-width="3" stroke-linecap="round"/>
<path d="M306.485 22.4618C308.547 22.4618 314.858 22.5973 314.858 19.4104C314.858 17.4304 313.608 16 311.662 16C310.732 16 309.802 16 308.871 16C307.938 16 307.465 16.9408 306.768 17.436C304.863 18.7883 305.192 25.5758 306.323 27.3281C308.568 30.8068 313.308 35.4779 317.406 31.4365" stroke="#BBC9FC" stroke-width="3" stroke-linecap="round"/>
<path d="M338.699 16.8726C336.274 15.2233 335.34 15 332.581 15C330.968 15 328.972 15.3399 328.111 16.7061C326.064 19.9555 324.428 27.0721 326.092 30.7297C327.242 33.2581 330.119 34.8295 332.931 33.5386C333.944 33.0734 334.99 33.2717 336.021 32.6023C338.323 31.1076 340.471 28.9393 342.406 26.9845" stroke="#BBC9FC" stroke-width="3" stroke-linecap="round"/>
<path d="M354.405 12C354.405 15.3078 354.771 18.5613 354.771 21.8792C354.771 25.8848 354.556 30.121 356.031 33.9131C356.861 36.0466 358.013 36.2149 360.259 36.5964C365.871 37.5493 368.567 32.7702 369.407 27.7335" stroke="#BBC9FC" stroke-width="3" stroke-linecap="round"/>
<path d="M348.917 16.7567H365.748" stroke="#BBC9FC" stroke-width="3" stroke-linecap="round"/>
<path d="M3.08423 14.9274C3.64118 21.6108 3.73403 28.1779 3.73403 34.9088C3.73403 37.5644 4.05893 45.5245 4.05893 42.8689" stroke="#BBC9FC" stroke-width="3" stroke-linecap="round"/>
<path d="M1.78467 15.2523C1.78467 11.77 8.60193 12.0033 10.8819 12.0033C13.9427 12.0033 17.3023 13.8469 18.0117 17.0392C18.6397 19.8652 15.903 21.7503 13.3006 21.7503C10.5428 21.7503 2.56706 20.8419 5.03368 22.0752" stroke="#BBC9FC" stroke-width="3" stroke-linecap="round"/>
<path d="M30.3541 23.9156C33.2587 23.9156 36.0669 23.2585 38.9131 23.2585C40.2868 23.2585 43.2839 21.4937 41.8164 19.7178C40.2872 17.8673 37.3558 18.0022 35.1049 18.0022C31.7557 18.0022 29.9831 19.0124 28.4688 21.9445C27.5153 23.7908 26.3246 26.0268 27.4696 28.0221C28.8827 30.4844 29.7369 33.3613 32.2205 35.2314C36.435 38.4048 43.1848 38.6104 48 37.0565" stroke="#BBC9FC" stroke-width="3" stroke-linecap="round"/>
<path d="M58.3174 16.3137C56.9715 20.6881 58.0736 26.9161 58.895 31.3314C59.3268 33.6522 58.9672 36.3582 58.9672 38.7319" stroke="#BBC9FC" stroke-width="3" stroke-linecap="round"/>
<path d="M57.3428 24.1112C57.5391 22.5403 63.2511 21.5119 64.4184 21.5119C65.4846 21.5119 67.3466 21.155 68.1909 21.9993C68.8987 22.7071 69.4414 23.9873 70.3388 24.4361" stroke="#BBC9FC" stroke-width="3" stroke-linecap="round"/>
<path d="M89.8849 19.8818C86.0912 18.0681 82.9175 19.0694 81.2177 22.7262C79.5857 26.2374 87.6062 26.6326 89.3891 27.9585C90.5788 28.8433 91.7723 29.2957 91.868 30.9433C91.9316 32.0365 92.4136 33.3441 91.0234 34.1037C88.402 35.536 85.9157 36 82.9438 36" stroke="#BBC9FC" stroke-width="3" stroke-linecap="round"/>
<path d="M113.311 22.6279C109.176 22.6279 107 26.7942 107 30.7674C107 33.8175 109.313 35 112.119 35C114.557 35 115.753 34.832 117.484 32.9742C119.203 31.13 118.992 29.193 118.992 26.7881C118.992 24.9885 118.833 23.5478 117.098 22.7003C115.265 21.8042 113.141 21 111.102 21" stroke="#BBC9FC" stroke-width="3" stroke-linecap="round"/>
<path d="M132.72 18.0391C132.72 19.1868 133.44 20.1438 133.695 21.2881C134.359 24.2772 134.994 27.481 134.994 30.5478C134.994 31.5143 134.485 36.1415 135.319 36.5585" stroke="#BBC9FC" stroke-width="3" stroke-linecap="round"/>
<path d="M135.319 25.187C135.319 23.3029 136.052 21.4099 138.243 21.2881C140.266 21.1758 144.202 21.336 145.391 23.4181C146.422 25.2226 147.341 25.9963 147.341 28.2735C147.341 30.1688 147.341 32.064 147.341 33.9593" stroke="#BBC9FC" stroke-width="3" stroke-linecap="round"/>
<path d="M158.387 20.0709C158.728 17.3481 164.621 20.1313 165.391 20.9012C167.861 23.3718 168.078 25.8726 167.178 29.0238C166.571 31.1454 164.025 32.1759 165.282 34.6915C166.339 36.8043 169.686 36.316 171.708 36.316" stroke="#BBC9FC" stroke-width="3" stroke-linecap="round"/>
<path d="M166.835 27.5438C165.041 27.5438 163.482 27.3221 162.124 28.681C161.012 29.7922 160.227 30.8484 159.29 32.0202C158.406 33.1246 158.383 35.0786 159.524 35.9913C160.729 36.9547 162.436 36.8077 163.91 36.3162" stroke="#BBC9FC" stroke-width="3" stroke-linecap="round"/>
<path d="M182 39C182.118 38.068 183.291 37.0862 183.926 36.4356C185.867 34.4468 187.662 32.3532 189.667 30.4274C192.494 27.7106 195.177 25.4081 196.074 21.5251C196.699 18.8225 196.318 16.8133 193.333 15.9933C191.054 15.367 189.376 13.9858 187.741 16.2497C185.527 19.3157 186.925 22.8423 188.926 25.4817C189.788 26.6182 190.645 27.4954 191.259 28.7789C191.647 29.588 191.986 30.4938 192.593 31.1601C194.354 33.096 197.869 34.4542 199 36.692" stroke="#BBC9FC" stroke-width="3" stroke-linecap="round"/>
</svg>
