<svg width="97" height="110" viewBox="0 0 97 110" fill="none" xmlns="http://www.w3.org/2000/svg">
<g id="sheet">
<path id="Vector 4" d="M5.41128 6.67071C5.41128 22.2531 5.41128 37.8355 5.41128 53.4179C5.41128 65.2486 3.13709 77.2834 3.13709 89.0469C3.13709 94.0278 2 98.8543 2 103.766C2 108.011 5.25935 106.735 8.82257 106.735C24.4729 106.735 40.6994 105.598 56.6437 105.598C64.9271 105.598 73.2224 107.872 81.5966 107.872C85.3869 107.872 89.1772 107.872 92.9675 107.872C98.0041 107.872 93.2868 92.6942 93.0307 89.2364C91.83 73.0273 90.6933 55.8688 90.6933 39.6464C90.6933 33.4977 90.6933 27.349 90.6933 21.2003C90.6933 18.4748 89.8637 14.2461 91.5778 12.1035C94.3417 8.64857 88.0245 9.00099 86.6503 8.37636C69.519 0.589381 52.2212 2.12234 33.8386 2.12234C28.2331 2.12234 23.0904 3.25943 17.3508 3.25943C11.952 3.25943 4.23174 0.857911 6.54838 7.80781" stroke="white" stroke-width="3" stroke-linecap="round"/>
<path id="Vector 5" d="M22.4678 22.59C32.8701 22.59 43.2724 22.59 53.6747 22.59C59.3832 22.59 64.6164 24.8642 70.2257 24.8642" stroke="white" stroke-width="3" stroke-linecap="round"/>
<path id="Vector 6" d="M23.6047 44.1948H71.3627" stroke="white" stroke-width="3" stroke-linecap="round"/>
<path id="Vector 7" d="M24.7418 65.7996H69.0885" stroke="white" stroke-width="3" stroke-linecap="round"/>
<path id="Vector 8" d="M24.7418 86.2672H71.3627" stroke="white" stroke-width="3" stroke-linecap="round"/>
</g>
</svg>
