<svg width="147" height="25" viewBox="0 0 147 25" fill="none" xmlns="http://www.w3.org/2000/svg">
<g id="resume">
<g id="r6">
<path id="Vector 120" d="M4.64105 2.69922C1.22318 6.54432 3.32052 18.1907 3.32052 23.1675" stroke="#AAC0AA" stroke-width="3" stroke-linecap="round"/>
<path id="Vector 121" d="M2 11.9429C2.34114 8.87258 13.2843 6.12007 14.5451 8.64154" stroke="#AAC0AA" stroke-width="3" stroke-linecap="round"/>
</g>
<path id="e5" d="M24.449 9.30166C28.193 9.30166 33.1244 10.2845 36.0037 7.98113C38.1171 6.2904 35.4367 4.01953 33.6928 4.01953C31.042 4.01953 29.6311 4.02894 27.6037 5.85361C24.1118 8.99628 23.1589 12.5444 24.4124 16.9314C25.6509 21.2664 31.2808 21.8467 35.0133 21.8467" stroke="#AAC0AA" stroke-width="3" stroke-linecap="round"/>
<path id="s" d="M60.1036 5.3401C59.8075 2.97137 50.1689 3.33213 49.5026 6.3305C48.263 11.9086 51.5676 12.603 56.8022 12.603C59.0718 12.603 61.3742 13.0549 63.4049 14.0703C64.7583 14.747 66.7582 18.057 64.3953 18.5821C62.1474 19.0816 60.1801 19.2057 57.7926 19.2057C56.8054 19.2057 55.478 19.4405 54.528 19.169C53.4675 18.866 53.5441 17.8852 52.1804 17.8852" stroke="#AAC0AA" stroke-width="3" stroke-linecap="round"/>
<path id="u3" d="M71.9882 5.34018C71.9882 10.1109 71.4149 17.8852 77.9306 17.8852C83.4202 17.8852 80.5716 6.38135 80.5716 3.35938" stroke="#AAC0AA" stroke-width="3" stroke-linecap="round"/>
<g id="m2">
<path id="Vector 125" d="M97.7388 3.35938V19.866" stroke="#AAC0AA" stroke-width="3" stroke-linecap="round"/>
<path id="Vector 126" d="M97.0784 9.96217C97.0784 4.46398 102.266 2.82774 105.002 7.61456C107.408 11.8263 106.982 15.6518 106.982 20.5264" stroke="#AAC0AA" stroke-width="3" stroke-linecap="round"/>
<path id="Vector 127" d="M105.662 9.96201C106.681 9.83467 108.954 7.54633 109.954 6.99081C111.315 6.23457 115.071 6.20688 116.079 7.46767C117.74 9.54315 117.547 17.21 117.547 19.866" stroke="#AAC0AA" stroke-width="3" stroke-linecap="round"/>
</g>
<path id="e6" d="M127.451 7.98126C131.762 7.98126 138.893 8.03956 141.463 4.82665C142.752 3.21541 131.764 0.660128 129.578 2.84585C126.555 5.86903 127.744 12.5736 130.899 15.0975C134.434 17.9254 140.819 15.9045 144.618 15.9045" stroke="#AAC0AA" stroke-width="3" stroke-linecap="round"/>
</g>
</svg>
