<svg width="443" height="53" viewBox="0 0 443 53" fill="none" xmlns="http://www.w3.org/2000/svg">
<g id="shardfindersText">
<path id="Vector 294" d="M17.8647 13.5586C14.5841 13.2604 6.05949 12.1472 6.78544 17.7936C7.51744 23.4869 13.0291 23.2196 16.9022 25.5148C18.718 26.5908 20.1671 28.6831 20.4741 30.7978C20.8837 33.6192 17.9269 34.7326 15.7259 35.4819C13.3356 36.2956 9.70791 36.9572 7.17044 36.5727C5.72666 36.3539 4.44531 35.3671 3.12801 34.7974C2.77915 34.6466 1.69989 34.3483 2.07997 34.3483" stroke="#FF8364" stroke-width="3" stroke-linecap="round"/>
<g id="Group 37">
<path id="Vector 295" d="M29.7994 2.77881C28.7436 3.04277 29.4787 8.61851 29.5 9.19537C29.7245 15.2855 29.7926 21.3753 30.0988 27.4612C30.3433 32.3199 30.5694 46.913 30.5694 42.0482" stroke="#FF8364" stroke-width="3" stroke-linecap="round"/>
<path id="Vector 296" d="M30.9543 23.1834C33.8348 20.783 39.864 20.3634 42.5897 23.0551C45.3057 25.7371 47.1864 29.0455 46.6535 32.8938C46.1999 36.1701 46.3541 38.5105 46.3541 41.6631" stroke="#FF8364" stroke-width="3" stroke-linecap="round"/>
</g>
<g id="Group 38">
<path id="Vector 297" d="M59.0688 13.1736C59.4131 11.6244 62.9913 12.0038 64.0738 12.0186C67.0157 12.0589 69.364 13.1689 70.9823 15.6974C73.5018 19.6342 71.4687 23.3155 69.5065 26.8195C67.8912 29.7038 68.5468 43.2031 73.3136 43.2031" stroke="#FF8364" stroke-width="3" stroke-linecap="round"/>
<path id="Vector 298" d="M67.5387 30.8833C64.2696 30.8833 61.2968 30.9617 58.0849 31.5677C56.3966 31.8863 55.2691 32.4392 55.2189 34.3482C55.1818 35.7565 54.4449 37.7273 55.005 39.0537C56.6855 43.0338 61.7126 42.5111 65.1432 42.4331C66.8727 42.3938 69.6418 41.5136 70.2336 39.7382" stroke="#FF8364" stroke-width="3" stroke-linecap="round"/>
</g>
<g id="Group 39">
<path id="Vector 299" d="M85.4033 14.3286C85.1676 23.2845 84.6333 32.3253 84.6333 41.2782" stroke="#FF8364" stroke-width="3" stroke-linecap="round"/>
<path id="Vector 300" d="M85.0183 27.8033C85.444 26.2423 87.7132 24.7871 88.8469 23.7823C90.4716 22.3421 92.0474 21.0357 94.3009 20.8948C97.3198 20.7061 100.264 22.6445 102.343 24.7234" stroke="#FF8364" stroke-width="3" stroke-linecap="round"/>
</g>
<path id="Vector 301" d="M121.978 25.1084C120.128 23.2587 115.461 23.2413 113.572 25.1298C111.155 27.5472 110.813 33.2396 110.813 36.423C110.813 42.393 118.624 43.3243 121.785 38.9254C125.603 33.6139 125.895 25.776 124.972 19.5474C124.433 15.9049 123.685 11.7558 124.373 8.08315C124.713 6.27349 125.443 4.20615 125.443 2.3938" stroke="#FF8364" stroke-width="3" stroke-linecap="round"/>
<g id="Group 40">
<path id="Vector 302" d="M155.087 9.70866C155.087 6.57991 153.837 2.39378 150.082 2.39378C147.132 2.39378 145.078 2.26314 143.537 5.25985C141.789 8.65884 142.095 13.4262 142.468 17.1519C142.825 20.7272 143.859 24.1319 144.222 27.7178C144.524 30.7065 144.692 33.7378 144.692 36.7438C144.692 39.895 144.692 43.0463 144.692 46.1975C144.692 47.5945 144.841 49.0878 144.5 50.4538C144.047 52.2655 143.142 49.6203 142.767 48.978" stroke="#FF8364" stroke-width="3" stroke-linecap="round"/>
<path id="Vector 303" d="M138.917 28.9583C143.644 28.9583 148.205 30.2096 152.392 27.4183" stroke="#FF8364" stroke-width="3" stroke-linecap="round"/>
</g>
<g id="Group 41">
<path id="Vector 304" d="M165.482 20.1035C161.79 24.2056 163.526 32.3312 165.097 37.0432" stroke="#FF8364" stroke-width="3" stroke-linecap="round"/>
<path id="Vector 305" d="M167.792 11.2486C167.792 9.89904 167.847 8.5193 169.696 9.55895C172.209 10.9727 169.685 11.6547 168.562 12.4036" stroke="#FF8364" stroke-width="3" stroke-linecap="round"/>
</g>
<g id="Group 42">
<path id="Vector 306" d="M177.417 19.3335C177.669 22.8718 178.572 26.3788 178.572 29.9422C178.572 32.4888 178.643 34.9145 178.957 37.4282" stroke="#FF8364" stroke-width="3" stroke-linecap="round"/>
<path id="Vector 307" d="M177.802 24.3384C178.564 24.2537 178.994 23.6722 179.513 23.1834C180.509 22.2444 182.087 21.4564 183.406 21.0873C186.511 20.2176 189.844 21.6926 191.084 24.7233C192.73 28.7467 191.662 32.6392 191.662 36.6581" stroke="#FF8364" stroke-width="3" stroke-linecap="round"/>
</g>
<path id="Vector 308" d="M208.986 23.1835C207.198 23.1835 204.671 22.6534 203.425 24.2102C201.508 26.6068 201.008 29.4439 201.308 32.4447C201.515 34.5165 202.345 36.1662 204.366 36.7438C205.736 37.1352 207.665 38.1677 208.815 36.808C212.021 33.019 212.061 26.5484 211.382 21.943C210.443 15.5805 211.404 9.8321 212.451 3.54883" stroke="#FF8364" stroke-width="3" stroke-linecap="round"/>
<path id="Vector 309" d="M220.536 23.5684C223.854 23.5684 227.607 24.1118 230.845 23.3759C231.514 23.2239 232.068 23.3247 232.086 22.5417C232.103 21.7859 232.412 20.055 231.487 19.7184C228.973 18.8044 226.488 18.9485 223.851 18.9485C222.455 18.9485 220.433 21.951 219.574 22.9909C212.646 31.3769 229.573 37.4491 232.086 32.4232" stroke="#FF8364" stroke-width="3" stroke-linecap="round"/>
<g id="Group 43">
<path id="Vector 310" d="M240.171 17.7935C240.171 24.0959 240.941 30.3472 240.941 36.6581" stroke="#FF8364" stroke-width="3" stroke-linecap="round"/>
<path id="Vector 311" d="M240.941 23.9534C241.69 21.7056 245.91 21.6435 247.678 21.6435C249.699 21.6435 251.514 21.6164 252.49 23.5684" stroke="#FF8364" stroke-width="3" stroke-linecap="round"/>
</g>
<path id="Vector 312" d="M268.275 21.2585C266.535 20.9421 260.458 18.3701 259.848 21.8788C259.444 24.2053 260.047 26.7192 261.73 28.4023C263.008 29.6798 265.171 29.8227 266.179 31.2897C268.889 35.2306 263.192 36.2475 260.148 35.2038C258.502 34.6395 256.971 34.127 255.571 33.1933" stroke="#FF8364" stroke-width="3" stroke-linecap="round"/>
<g id="Group 44">
<path id="Vector 313" d="M295.169 20.1035C295.169 22.9989 296.324 25.9531 296.324 28.9584C296.324 31.1565 296.709 33.3615 296.709 35.5033" stroke="#FF8364" stroke-width="3" stroke-linecap="round"/>
<path id="Vector 314" d="M294.399 10.4786C293.822 11.1277 293.857 11.803 294.592 12.2111C295.361 12.6385 295.362 11.0542 295.554 10.4786" stroke="#FF8364" stroke-width="3" stroke-linecap="round"/>
</g>
<g id="Group 45">
<path id="Vector 315" d="M303.639 18.9485C304.13 24.8443 305.949 30.7241 305.949 36.6582" stroke="#FF8364" stroke-width="3" stroke-linecap="round"/>
<path id="Vector 316" d="M305.179 25.4934C309.912 20.7607 314.48 22.3102 317.413 28.4023C318.303 30.251 317.884 32.7004 317.884 34.7333" stroke="#FF8364" stroke-width="3" stroke-linecap="round"/>
</g>
<g id="Group 46">
<path id="Vector 317" d="M322.889 13.5586C322.889 16.7631 323.135 19.7629 323.573 22.9268C323.807 24.6142 323.539 26.3114 323.851 27.9959C324.262 30.2122 324.429 36.9873 324.429 34.7332" stroke="#FF8364" stroke-width="3" stroke-linecap="round"/>
<path id="Vector 318" d="M319.039 18.9485C322.643 18.9485 326.223 18.5635 329.819 18.5635" stroke="#FF8364" stroke-width="3" stroke-linecap="round"/>
</g>
<path id="Vector 319" d="M333.669 23.9534C336.686 23.9534 339.695 24.3384 342.695 24.3384C343.462 24.3384 343.915 22.4637 343.636 21.836C342.79 19.9336 339.005 20.1035 337.369 20.1035C335.686 20.1035 334.891 22.5042 334.054 23.7609C331.13 28.1469 333.198 32.6286 338.588 32.8083C339.246 32.8302 340.382 33.0078 340.983 32.7227C342.193 32.1496 343.802 31.9558 344.833 31.2683" stroke="#FF8364" stroke-width="3" stroke-linecap="round"/>
<g id="Group 47">
<path id="Vector 320" d="M350.223 20.4885C351.028 20.8912 350.879 23.8773 350.993 24.6379C351.298 26.6665 351.594 28.6776 351.849 30.7122C352.037 32.2168 352.169 33.6623 352.533 35.1183" stroke="#FF8364" stroke-width="3" stroke-linecap="round"/>
<path id="Vector 321" d="M351.378 25.8783C352.152 23.5566 355.731 21.4688 358.094 21.2798C360.465 21.0901 362.492 22.7479 364.083 24.3383" stroke="#FF8364" stroke-width="3" stroke-linecap="round"/>
</g>
<g id="Group 48">
<path id="Vector 322" d="M384.488 19.3335C384.288 16.5428 383.401 11.6336 379.633 11.6336C377.833 11.6336 375.559 11.2937 374.863 13.3447C373.796 16.4859 373.855 19.8538 374.777 23.0123C375.846 26.672 376.403 30.0867 376.403 33.9205C376.403 36.1718 375.873 39.2831 376.595 41.4492C377.537 44.2753 377.558 46.8033 377.558 49.748" stroke="#FF8364" stroke-width="3" stroke-linecap="round"/>
<path id="Vector 323" d="M372.553 33.1932H384.488" stroke="#FF8364" stroke-width="3" stroke-linecap="round"/>
</g>
<g id="Group 49">
<path id="Vector 324" d="M399.502 17.0236C399.502 14.0521 401.369 12.659 404.293 12.4251C406.626 12.2384 408.648 12.4574 410.047 14.4784C411.148 16.0693 410.832 19.0162 409.897 20.5741C407.882 23.9325 405.662 27.226 405.662 31.247C405.662 32.9717 405.036 34.7584 405.299 36.4658C405.48 37.6473 406.457 37.862 406.817 38.5832" stroke="#FF8364" stroke-width="3" stroke-linecap="round"/>
<path id="Vector 325" d="M406.817 27.0334C404.455 26.7972 402.826 24.38 400.272 24.7448C398.109 25.0538 394.607 30.401 394.497 32.4233C394.22 37.5582 402.289 35.9719 405.277 35.1183" stroke="#FF8364" stroke-width="3" stroke-linecap="round"/>
</g>
<path id="Vector 326" d="M421.062 22.4134C419.844 22.4134 418.453 22.1352 417.511 23.0551C415.525 24.996 412.646 29.0063 413.662 31.9527C415.525 37.3573 422.766 34.3482 426.837 34.3482" stroke="#FF8364" stroke-width="3" stroke-linecap="round"/>
<path id="Vector 327" d="M432.227 23.9534C433.845 23.9534 439.265 24.6527 439.542 22.0285C439.666 20.8434 440.101 20.3325 438.772 19.6329C437.551 18.9907 436.079 19.3323 434.922 19.911C429.927 22.4082 430.736 27.4315 433.018 31.9955C433.693 33.3448 435.13 34.5882 436.676 34.7119C437.895 34.8094 440.222 34.2586 441.082 35.1182" stroke="#FF8364" stroke-width="3" stroke-linecap="round"/>
</g>
</svg>
