<svg width="98" height="129" viewBox="0 0 98 129" fill="none" xmlns="http://www.w3.org/2000/svg">
<g id="skills">
<g id="Group 1">
<path id="Vector 100" d="M49.158 2.47923C45.2281 2.0411 41.9722 1.35275 38.3901 3.34959C35.6628 4.86989 32.722 6.30395 30.1646 8.15155C28.568 9.30498 26.9495 11.3878 25.1396 11.9931C22.9855 12.7136 21.2944 14.3015 19.5463 15.6546C17.8863 16.9395 16.3035 18.4282 14.8353 19.9013C12.3747 22.3703 9.22431 25.271 8.4494 28.77C8.06327 30.5134 6.73581 32.1365 6.08644 33.812C5.25361 35.9609 4.2851 37.9671 3.25988 40.0245C2.22795 42.0954 1.83346 45.0249 2.06344 47.3325C2.23401 49.0439 3.03248 50.8062 3.66367 52.3896C4.4007 54.2384 4.85862 56.1341 5.54805 58.0019C5.8166 58.7294 6.35564 59.0995 6.35564 59.9076C6.35564 61.0231 6.35564 62.1386 6.35564 63.254C6.35564 65.2923 7.066 66.8666 7.41747 68.8063C7.99445 71.9904 10.2887 74.8607 11.4106 77.9C11.9169 79.2718 12.5298 80.6198 13.2351 81.9066C14.0547 83.4018 15.4282 84.1918 16.1813 85.7032C17.0987 87.5441 18.0873 89.3046 19.0677 91.0754C20.0586 92.865 21.9691 93.9292 21.9691 96.1924C21.9691 98.7505 20.2416 98.9494 19.2173 100.799C18.391 102.292 17.9311 102.812 17.9311 104.581C17.9311 106.56 17.9278 108.558 18.7387 110.388C19.6763 112.505 21.4991 113.503 23.3151 114.515C26.8371 116.478 25.1007 120.935 27.8914 123.158C32.8861 127.138 40.0042 125.78 45.9874 125.649C48.2691 125.6 52.2179 125.063 54.3923 126.055C55.272 126.456 56.555 126.369 57.5031 126.475C58.5909 126.596 59.6578 127 60.7334 127C64.6405 127 69.0965 126.61 71.621 123.354C73.0581 121.499 72.8473 118.699 72.8473 116.526C72.8473 114.444 75.5248 114.305 77.2891 114.305C81.2642 114.305 82 111.298 82 107.837C82 106.403 80.7682 104.915 79.5772 104.251C77.9602 103.349 77.0433 100.894 76.6161 99.1787" stroke="white" stroke-width="3" stroke-linecap="round"/>
<path id="Vector 101" d="M76.9504 99C77.6051 98.2673 78.0638 97.2695 78.7105 96.5546C79.8657 95.2777 80.2826 93.4976 81.3203 92.2073C81.7788 91.6371 81.9516 90.7432 82.352 90.094C82.8411 89.3012 83.528 88.6877 84.0514 87.9203C84.773 86.8625 85.5248 85.6781 85.9633 84.4787C86.7543 82.3146 87.9078 80.3775 88.4213 78.0784C89.0097 75.4445 90.4298 73.105 91.0918 70.4706C91.4697 68.9666 92.0256 67.5426 92.4574 66.0629C93.2178 63.4571 92.907 60.6043 93.8836 58.0324C94.2221 57.1412 94.2342 56.0669 94.6423 55.2549C95.1442 54.2562 95.6151 53.4163 95.7803 52.2661C96.2656 48.8863 95.7955 45.1486 95.7955 41.7298C95.7955 39.9354 95.9611 38.1321 95.5223 36.3862C94.9959 34.2912 94.1969 32.2994 93.6105 30.2577C93.2626 29.0462 92.0862 28.1406 91.5622 26.9821C91.0255 25.7956 91.0895 24.553 90.7125 23.3442C90.2598 21.8933 88.9148 20.6059 88.0268 19.4045C87.2735 18.3853 86.6811 17.0502 85.5384 16.4006C84.6359 15.8875 83.7161 15.2122 82.959 14.4986C81.5218 13.1441 79.3587 12.6169 77.8911 11.2381C76.6166 10.0406 74.4719 9.23941 72.9143 8.30968C70.8784 7.09444 68.5281 6.46011 66.2988 5.66807C64.5872 5.05993 63.3525 4.71709 61.5193 4.71709C60.0405 4.71709 58.5861 4.2655 57.286 3.69063C54.2838 2.36322 51.2623 2 48 2" stroke="white" stroke-width="3" stroke-linecap="round"/>
<path id="Vector 102" d="M49.7235 3C49.7235 5.08114 49.783 6.87156 49.1903 8.83136C48.7089 10.4231 48.7472 11.929 48.6571 13.5778C48.507 16.3275 46.3818 17.6154 43.8586 17.9174C41.3386 18.2191 39.4605 20.62 39.3267 23.0707C39.1534 26.2442 42.0319 27.9103 44.5251 29.0377C45.9097 29.6638 47.3879 29.5801 48.9237 29.5801C50.0665 29.5801 49.9901 29.8286 49.9901 30.9363C49.9901 31.8463 50.2566 32.6189 50.2566 33.5129C50.2566 36.2707 50.5232 38.8978 50.5232 41.6497C50.5232 45.3518 50.2566 48.957 50.2566 52.6343C50.2566 56.4428 50.5232 60.2003 50.5232 64.0258C50.5232 67.0037 50.5355 71.8914 54.4627 71.8914C56.0021 71.8914 57.3518 71.6522 58.654 72.5694C59.9203 73.4614 61.4774 74.4091 60.8608 76.2913C59.7801 79.5896 56.3415 80.1396 53.7222 81.324C52.4709 81.8898 51.1211 81.4715 49.8716 82.198C48.5353 82.9749 48.9237 85.2966 48.9237 86.5526C48.9237 89.7184 48.6571 92.942 48.6571 96.1661C48.6571 97.5895 48.9993 99.5848 48.4498 100.913C48.0012 101.997 48.4463 102.175 46.9095 101.862C44.6682 101.406 42.3346 101.172 40.1413 100.521C38.559 100.051 36.9819 100.099 35.3279 100.099C33.7828 100.099 32.2973 101.069 30.7812 101.455C26.4752 102.55 22.3153 101.455 18 101.455" stroke="white" stroke-width="3" stroke-linecap="round"/>
<path id="Vector 103" d="M48 101C51.7745 101 55.4642 102.143 59.1793 102.143C60.9095 102.143 62.5909 102.714 64.3158 102.714C66.1186 102.714 67.9214 102.714 69.7242 102.714C72.8933 102.714 75.9344 103 79 103" stroke="white" stroke-width="3" stroke-linecap="round"/>
<path id="Vector 104" d="M24 115C27.4757 115 31.013 115.443 34.4472 115.74C38.4447 116.086 42.4789 115.987 46.5075 115.987C50.8216 115.987 55.1234 116.024 59.4121 115.831C62.7587 115.681 66.0071 115.164 69.3769 115.164C71.4171 115.164 73.4573 115.164 75.4975 115.164C76.3141 115.164 77.3093 115.279 78 115" stroke="white" stroke-width="3" stroke-linecap="round"/>
<path id="Vector 105" d="M6 57.0002C9.17708 57.0002 12.3439 57.5539 15.5455 57.5539C16.4395 57.5539 17.3647 57.8714 18.2121 58.1692C19.5013 58.6222 19.8044 59.0159 20.2424 60.2611C20.8092 61.8722 20.1185 64.6881 21.2121 65.9217C22.4683 67.3386 24.6676 67.0785 26.3182 66.7062C29.7803 65.9251 34.9091 64.7966 34.9091 60.3227C34.9091 57.9598 37.9692 57.277 39.8182 57.277C41.7468 57.277 43.6485 56.9361 45.6061 57.0002C47.765 57.0709 50.0041 57.5539 52.1364 57.5539C56.7572 57.5539 61.304 56.7233 65.8636 56.7233C68.3449 56.7233 67.7866 52.7498 68.8788 51.3242C70.6742 48.9808 74.3034 48.5095 77.1212 49.463C79.3469 50.2162 79.0909 52.6283 79.0909 54.5083C79.0909 55.3466 80.0101 57.2212 81 57.277C81.9419 57.3302 82.6988 58.1077 83.5909 58.1077C84.9045 58.1077 86.2083 57.8308 87.5606 57.8308C88.7763 57.8308 89.442 58.2091 90.5455 58.3692C92.293 58.6226 94.2316 58.3845 96 58.3845" stroke="white" stroke-width="3" stroke-linecap="round"/>
</g>
<g id="plus">
<path id="Vector 106" d="M74 66C74 67.5672 75 69.0305 75 70.608C75 71.7135 75 72.819 75 73.9245C75 75.9497 75 77.9748 75 80" stroke="white" stroke-width="3" stroke-linecap="round"/>
<path id="Vector 107" d="M67 72C72.3269 72 77.8242 72 83 72" stroke="white" stroke-width="3" stroke-linecap="round"/>
</g>
<path id="heart" d="M68.6807 41.1825C67.2389 41.1825 64.3615 39.6098 63.3404 38.5938C62.461 37.7188 61.6601 37.1726 61.0734 36.005C59.5502 32.9739 58 29.3002 58 25.862C58 24.1527 58.2718 23.2828 59.7801 22.2439C61.3024 21.1952 63.5799 20.9226 65.3944 21.0176C66.7558 21.0889 67.4426 22.615 67.9961 23.6064C68.7386 24.9362 69.6884 23.3715 70.4609 22.7737C72.4416 21.2408 75.4464 20.917 77.1705 23.0614C79.1426 25.5141 77.1135 28.094 76.0751 30.4188C75.6177 31.4427 74.5362 32.4938 73.945 33.5525C73.4551 34.43 73.1536 35.5902 72.6366 36.3986C71.9188 37.5209 71.0422 38.6426 70.3848 39.82C69.9162 40.6592 69.5677 41.5587 68.6807 42" stroke="white" stroke-width="3" stroke-linecap="round"/>
<path id="star" d="M20.4294 48.3574C20.5396 46.5193 21.2624 44.1158 21.7567 42.4191C22.0645 41.3626 22.2161 40.9462 21.2347 40.3275C20.2581 39.7118 19.2486 38.7746 18.4159 37.958C17.8503 37.4034 17.0847 36.8451 16.4025 36.4515C14.7526 35.4997 18.6819 35.7202 19.0871 35.7202C20.2216 35.7202 22.7533 36.6728 23.442 35.4569C24.4334 33.707 24.1284 31.2966 25.1274 29.5332C25.41 29.0342 25.8753 27.2175 26.4846 27.0468C27.4524 26.7756 28.7925 27.7339 29.02 28.6264C29.3321 29.8507 29.7004 31.0421 30.2281 32.1806C30.7461 33.2984 31.6342 34.0344 32.2415 35.0766C33.301 36.8949 36.0488 35.4569 37.6256 35.4569C38.5567 35.4569 40.0509 35.2557 40.7725 36.042C41.6345 36.9813 39.8157 38.4601 39.1617 38.8795C37.4185 39.9973 34.5097 39.8837 33.375 41.7755C32.6302 43.0171 32.399 45.6165 34.0014 46.5144C34.5178 46.8038 34.9261 47.9057 34.9261 48.489C34.9261 49.6744 34.7485 49.7705 33.718 50.3319C32.2114 51.1527 30.3824 50.7096 29.4973 49.1472C28.6286 47.6139 27.3481 47.3987 25.7985 47.5675C24.2185 47.7397 23.8844 50.8837 22.0401 50.9901C19.7747 51.1208 20.1609 49.948 20.1609 48.0941" stroke="white" stroke-width="3" stroke-linecap="round"/>
<path id="message" d="M33.6492 77.0825C30.4023 77.0825 27.0358 76.6247 24.0648 77.8658C21.7639 78.827 21.6816 81.9864 22.3979 83.8715C23.3693 86.4281 25.6005 86.4827 28.093 86.4827C31.1838 86.4827 30.5182 89.0686 31.6428 91.1828C31.9707 91.799 34.086 92.8262 34.8994 92.9961C35.6852 93.1602 35.4694 88.1347 35.6094 87.4111C36.1917 84.4005 40.1599 87.7335 40.8569 84.7854C41.1696 83.4628 40.8723 81.8297 40.8723 80.477C40.8723 79.2039 40.4816 78.376 39.2055 77.8078C38.1848 77.3534 32.3524 76.648 31.7046 77.8658" stroke="white" stroke-width="3" stroke-linecap="round"/>
</g>
</svg>
