<svg width="380" height="45" viewBox="0 0 380 45" fill="none" xmlns="http://www.w3.org/2000/svg">
<g id="stressText">
<path id="Vector 328" d="M15.8267 8.52635C14.1365 8.24464 12.714 6.96949 10.9277 7.05663C8.48809 7.17563 5.30067 9.14401 3.30689 10.486C0.262154 12.5353 4.18444 16.4587 6.1919 17.6168C9.26716 19.391 12.8519 20.2863 16.1533 21.5361C17.0567 21.8781 18.9005 22.3172 19.501 23.278C23.1302 29.0847 15.7907 32.6203 10.9277 31.2526C9.79411 30.9338 4.47202 28.352 4.06897 27.1428" stroke="#188198" stroke-width="3" stroke-linecap="round"/>
<g id="Group 50">
<path id="Vector 329" d="M31.9937 5.09705C31.9937 11.1275 33.3146 17.5153 34.0621 23.4958C34.4658 26.7246 33.0435 31.2021 34.4432 34.0015" stroke="#188198" stroke-width="3" stroke-linecap="round"/>
<path id="Vector 330" d="M25.625 14.8951C28.8797 14.8951 32.7978 14.0716 36.0219 13.5342C37.7206 13.2511 39.579 13.4254 41.302 13.4254" stroke="#188198" stroke-width="3" stroke-linecap="round"/>
</g>
<g id="Group 59">
<path id="Vector 331" d="M53.5496 8.52637C52.8345 8.685 54.9207 22.9469 55.5092 24.5136C56.4449 27.0043 55.9235 29.6588 56.979 32" stroke="#188198" stroke-width="3" stroke-linecap="round"/>
<path id="Vector 332" d="M53.9558 16.4525C56.0737 16.2437 57.7952 14.8246 60.0543 14.8246C61.9546 14.8246 64.7988 14.9497 66.1867 16.1812" stroke="#188198" stroke-width="3" stroke-linecap="round"/>
</g>
<path id="Vector 333" d="M77.1946 18.3765C77.2713 17.7629 79.3281 18.3384 79.7597 18.3595C81.2657 18.4329 82.5681 18.2133 84.0405 17.9348C86.5753 17.4552 88.498 14.465 85.3825 13.0084C81.968 11.4121 76.5831 12.7079 76.5831 17.1534C76.5831 19.4582 76.0709 21.6934 76.9568 23.9483C77.5764 25.5255 79.091 27.1054 80.0994 28.45C81.5401 30.3708 86.2504 29.3843 88.5082 29.3843" stroke="#188198" stroke-width="3" stroke-linecap="round"/>
<path id="Vector 334" d="M108.025 13.4496C107.937 12.6586 106.428 12.0258 105.76 11.994C103.789 11.9001 101.654 11.5632 99.7134 12.0839C97.8034 12.5963 96.2404 13.63 96.5775 15.8397C96.773 17.1212 98.2838 18.496 99.2821 19.1823C101.631 20.7974 104.606 21.1851 107.414 21.5993C108.62 21.7773 109.266 21.7437 109.957 22.8482C110.427 23.6008 110.754 24.7782 110.127 25.5438C109.405 26.4262 107.956 26.8773 106.964 27.3589C106.11 27.774 105.352 28.0062 104.413 27.6823C102.79 27.1229 101.115 26.3974 99.4528 26.065" stroke="#188198" stroke-width="3" stroke-linecap="round"/>
<path id="Vector 335" d="M125.489 12.5512C125.421 12.0413 123.482 12.0059 123.057 12.0059C122.262 12.0059 121.3 11.946 120.539 12.2078C119.95 12.4104 119.351 13.6842 118.96 14.1465C117.611 15.7422 119.168 18.2426 120.603 19.4375C121.385 20.0886 122.417 20.0129 123.377 20.2251C124.978 20.5793 126.583 20.8791 128.198 21.1742C129.998 21.503 130.498 22.8848 129.479 24.365C128.907 25.1947 128.543 25.9677 128.134 26.8691C127.925 27.3309 127.71 27.8077 127.153 27.9091C125.996 28.1197 124.775 27.8691 123.611 27.8283C122.933 27.8046 122.296 28 121.648 28C120.537 28 118.878 27.3507 118 26.7277" stroke="#188198" stroke-width="3" stroke-linecap="round"/>
<g id="Group 54">
<path id="Vector 336" d="M164.381 4.63501C164.215 8.2131 164.592 11.7619 164.426 15.3483C164.383 16.2665 164.341 17.1848 164.298 18.103C164.232 19.5316 164.528 20.9304 164.462 22.3469" stroke="#188198" stroke-width="3" stroke-linecap="round"/>
<path id="Vector 337" d="M164.629 10.9708C164.838 10.0628 166.792 8.56731 167.662 8.14022C168.659 7.65086 169.88 8.11095 170.898 8.27046C171.539 8.37085 172.921 8.12808 173.26 8.86201C174.146 10.7813 174.626 13.5933 174.526 15.7471C174.451 17.3796 174.917 19.0024 174.84 20.6606" stroke="#188198" stroke-width="3" stroke-linecap="round"/>
<path id="Vector 338" d="M174.014 11.2261C174.199 7.23304 179.788 6.68688 181.859 9.60279C182.343 10.285 183.064 10.8839 183.023 11.765C182.964 13.035 183.186 14.3305 183.307 15.5929C183.435 16.9306 183.487 18.8747 184.224 20.0525C184.38 20.3015 184.13 20.684 184.044 20.9074" stroke="#188198" stroke-width="3" stroke-linecap="round"/>
</g>
<g id="Group 51">
<path id="Vector 339" d="M198.585 3.51337C199.656 3.4445 200.573 3.01286 201.709 3.25692C203.196 3.57621 204.749 4.20076 206.156 4.7685C206.815 5.03411 207.498 5.39736 207.751 6.10742C208.139 7.1976 207.199 8.14405 206.644 8.96723C206.015 9.90057 205.441 10.8908 204.708 11.7484C203.51 13.1493 203.032 15.9726 203.525 17.7568C203.827 18.8472 204.551 19.5726 205.396 20.273C205.811 20.6168 206.405 21.4041 206.969 21.4302" stroke="#188198" stroke-width="3" stroke-linecap="round"/>
<path id="Vector 340" d="M204.347 11.7315C202.492 11.4757 201.625 10.6542 199.694 11.6158C197.789 12.5648 195.393 12.4882 194.705 14.8575C193.992 17.315 195.589 18.042 197.456 19.1814C199.172 20.2291 201.318 20.0497 203.094 19.2625" stroke="#188198" stroke-width="3" stroke-linecap="round"/>
</g>
<g id="Group 53">
<path id="Vector 341" d="M217.132 4.91663C217.509 7.01172 217.338 9.23745 217.555 11.361C217.728 13.0469 217.58 14.7287 217.501 16.418C217.42 18.167 217.277 19.8403 217.624 21.5635" stroke="#188198" stroke-width="3" stroke-linecap="round"/>
<path id="Vector 342" d="M218.629 7.69661C218.708 7.1975 219.769 6.80917 220.146 6.59254C221.575 5.77041 223.124 5.57329 224.748 5.63178C225.943 5.67481 226.344 6.034 226.863 7.20571C227.359 8.32378 228.041 9.69788 228.044 10.9548C228.052 14.1533 227.936 17.4035 227.788 20.59" stroke="#188198" stroke-width="3" stroke-linecap="round"/>
</g>
<g id="Group 52">
<path id="Vector 343" d="M237.016 4.75603C239.939 3.53401 243.741 4.24989 246.168 6.32554C247.312 7.30386 247.124 9.18853 247.046 10.5624C246.967 11.945 246.144 13.0612 245.363 14.1484C244.309 15.6172 244.441 17.3515 245.395 18.8781C246.505 20.6568 248.072 20.8094 249.999 20.8989" stroke="#188198" stroke-width="3" stroke-linecap="round"/>
<path id="Vector 344" d="M245.49 12.9195C244.074 12.6753 242.478 12.2615 240.948 12.1664C239.267 12.062 236.232 13.1966 235.777 14.9981C235.223 17.1898 235.425 20.0553 238.12 20.7486C240.487 21.3576 243.383 20.062 245.558 19.247" stroke="#188198" stroke-width="3" stroke-linecap="round"/>
</g>
<g id="Group 55">
<path id="Vector 345" d="M266.599 9.74398C266.694 7.68565 260.738 8.59653 259.697 8.98174C255.97 10.3609 255.32 15.0653 258.27 17.6591C260.32 19.4609 264.135 20.5275 266.496 18.8744C267.57 18.1222 269.965 15.6731 269.628 14.121C269.34 12.7996 268.115 11.7328 267.836 10.3435" stroke="#188198" stroke-width="3" stroke-linecap="round"/>
<path id="Vector 346" d="M268.532 10.9179C268.307 15.7473 268.625 20.5798 268.401 25.4076C268.282 27.9737 268.044 30.5759 268.132 33.145C268.182 34.618 268.451 36.9574 267.758 38.3879C266.997 39.9576 265.64 41.7596 264.014 42.4804C262.065 43.3441 260.463 41.2687 259.455 39.9096C257.852 37.7484 257.174 35.4109 258.585 32.9324C259.346 31.5951 260.188 30.3043 260.967 28.9774C261.118 28.7199 261.326 28.4162 261.58 28.3032" stroke="#188198" stroke-width="3" stroke-linecap="round"/>
</g>
<path id="Vector 347" d="M280.384 10.4667C283.683 10.6199 286.831 11.1319 290.03 10.0496C290.93 9.74498 292.736 8.06048 291.692 7.18537C291.027 6.6289 289.621 6.48566 288.79 6.28161C287.924 6.06902 287.04 5.75818 286.141 5.71641C284.505 5.64042 282.641 5.79794 281.301 6.74121C280.059 7.61557 279.509 9.30631 279.444 10.6922C279.386 11.9479 279.94 13.0732 280.29 14.2688C280.671 15.5681 280.924 16.7075 281.991 17.6737C283.299 18.8576 284.693 19.6803 286.543 19.7499C288.017 19.8054 289.53 19.564 290.982 19.3505C291.463 19.2797 291.903 19.2311 292.082 18.796" stroke="#188198" stroke-width="3" stroke-linecap="round"/>
<g id="Group 56">
<path id="Vector 348" d="M302.928 5.64905C302.788 8.6704 303.169 11.67 303.05 14.6895C302.988 16.2748 303.066 17.8996 303.554 19.411" stroke="#188198" stroke-width="3" stroke-linecap="round"/>
<path id="Vector 349" d="M303.382 11.4523C304.063 10.7534 304.347 9.72862 305.11 9.033C305.832 8.37518 307.031 7.87986 308.015 8.09378C309.333 8.38026 310.478 10.2263 311.211 11.2438C311.862 12.1455 311.81 12.8417 311.759 13.9295C311.703 15.1457 311.673 16.3039 312.097 17.4587C312.374 18.2109 311.989 20.6963 312.439 18.7395" stroke="#188198" stroke-width="3" stroke-linecap="round"/>
<path id="Vector 350" d="M311.29 12.3617C311.412 11.1631 313.279 9.31668 314.108 8.53739C315.181 7.52766 317.443 7.3863 318.814 7.70195C320.376 8.06138 321.882 9.80676 322.784 11.0586C323.854 12.5414 322.998 14.0712 322.88 15.6908C322.799 16.8027 322.777 17.9233 322.725 19.0365" stroke="#188198" stroke-width="3" stroke-linecap="round"/>
</g>
<path id="Vector 351" d="M333.912 10.84C336.816 10.9749 340.689 11.6482 342.785 8.95588C345.213 5.83574 338.127 6.12448 336.762 6.21306C332.417 6.49515 333.259 13.2398 334.487 15.9107C335.292 17.6621 337.674 18.8729 339.498 19.1856C340.699 19.3913 341.782 18.758 342.803 18.2204C343.6 17.8009 344.514 17.5344 345.222 17.0177" stroke="#188198" stroke-width="3" stroke-linecap="round"/>
<g id="Group 57">
<path id="Vector 352" d="M352.286 5.05054C353.022 6.04135 352.893 7.44839 353.064 8.60024C353.412 10.9345 353.346 13.2145 353.515 15.5478C353.557 16.1323 353.667 16.4819 353.818 17.0175C353.924 17.3933 354.212 20.0661 354.002 18.6824" stroke="#188198" stroke-width="3" stroke-linecap="round"/>
<path id="Vector 353" d="M353.896 9.28132C354.467 7.91361 357.974 6.59215 359.419 6.86756C361.182 7.20354 362.793 10.0517 362.808 11.703C362.824 13.4183 363.205 15.0437 363.126 16.7571C363.086 17.6041 363.23 18.1613 363.386 18.9376" stroke="#188198" stroke-width="3" stroke-linecap="round"/>
</g>
<g id="Group 58">
<path id="Vector 354" d="M371.771 1.79944C371.676 3.84791 371.59 5.85609 372.031 7.87486C372.516 10.0942 373.054 12.3532 373.446 14.5862C373.658 15.7962 373.333 17.0561 373.495 18.2827C373.576 18.8967 373.601 20.7548 373.63 20.136" stroke="#188198" stroke-width="3" stroke-linecap="round"/>
<path id="Vector 355" d="M367.922 6.86099C370.437 6.97781 373.088 7.32488 375.6 7.1172C376.366 7.05385 376.919 6.73677 377.684 6.7723" stroke="#188198" stroke-width="3" stroke-linecap="round"/>
</g>
</g>
</svg>
