<svg width="1300" height="900" viewBox="0 0 1300 900" fill="none" xmlns="http://www.w3.org/2000/svg">
<rect width="1300" height="900" rx="20" fill="#BBC9FC"/>
<path d="M87.088 145V116.344H77.296V111.4H103.072V116.344H93.232V145H87.088ZM101.901 145L114.189 111.4H121.101L133.389 145H126.861L124.173 137.224H111.069L108.333 145H101.901ZM112.749 132.424H122.493L117.597 118.456L112.749 132.424ZM137.717 145V111.4H151.205C154.693 111.4 157.349 112.216 159.173 113.848C161.029 115.448 161.957 117.512 161.957 120.04C161.957 122.152 161.381 123.848 160.229 125.128C159.109 126.376 157.733 127.224 156.101 127.672C158.021 128.056 159.605 129.016 160.853 130.552C162.101 132.056 162.725 133.816 162.725 135.832C162.725 138.488 161.765 140.68 159.845 142.408C157.925 144.136 155.205 145 151.685 145H137.717ZM143.861 125.512H150.293C152.021 125.512 153.349 125.112 154.277 124.312C155.205 123.512 155.669 122.376 155.669 120.904C155.669 119.496 155.205 118.392 154.277 117.592C153.381 116.76 152.021 116.344 150.197 116.344H143.861V125.512ZM143.861 140.008H150.725C152.549 140.008 153.957 139.592 154.949 138.76C155.973 137.896 156.485 136.696 156.485 135.16C156.485 133.592 155.957 132.36 154.901 131.464C153.845 130.568 152.421 130.12 150.629 130.12H143.861V140.008ZM167.998 145V111.4H174.142V140.2H189.022V145H167.998ZM194.436 145V111.4H216.372V116.344H200.58V125.56H214.932V130.36H200.58V140.056H216.372V145H194.436ZM249.367 145.576C246.007 145.576 243.063 144.84 240.535 143.368C238.039 141.896 236.071 139.864 234.631 137.272C233.223 134.648 232.519 131.624 232.519 128.2C232.519 124.776 233.223 121.768 234.631 119.176C236.071 116.552 238.039 114.504 240.535 113.032C243.063 111.56 246.007 110.824 249.367 110.824C252.695 110.824 255.623 111.56 258.151 113.032C260.679 114.504 262.647 116.552 264.055 119.176C265.463 121.768 266.167 124.776 266.167 128.2C266.167 131.624 265.463 134.648 264.055 137.272C262.647 139.864 260.679 141.896 258.151 143.368C255.623 144.84 252.695 145.576 249.367 145.576ZM249.367 140.056C252.567 140.056 255.111 139 256.999 136.888C258.919 134.776 259.879 131.88 259.879 128.2C259.879 124.52 258.919 121.624 256.999 119.512C255.111 117.4 252.567 116.344 249.367 116.344C246.167 116.344 243.607 117.4 241.687 119.512C239.767 121.624 238.807 124.52 238.807 128.2C238.807 131.88 239.767 134.776 241.687 136.888C243.607 139 246.167 140.056 249.367 140.056ZM271.592 145V111.4H293.288V116.344H277.736V125.752H290.312V130.6H277.736V145H271.592ZM324.683 145.576C321.291 145.576 318.379 144.856 315.947 143.416C313.515 141.944 311.643 139.912 310.331 137.32C309.019 134.696 308.363 131.672 308.363 128.248C308.363 124.824 309.019 121.8 310.331 119.176C311.643 116.552 313.515 114.504 315.947 113.032C318.379 111.56 321.291 110.824 324.683 110.824C328.715 110.824 332.011 111.832 334.571 113.848C337.163 115.832 338.779 118.632 339.419 122.248H332.651C332.235 120.424 331.339 119 329.963 117.976C328.619 116.92 326.827 116.392 324.587 116.392C321.483 116.392 319.051 117.448 317.291 119.56C315.531 121.672 314.651 124.568 314.651 128.248C314.651 131.928 315.531 134.824 317.291 136.936C319.051 139.016 321.483 140.056 324.587 140.056C326.827 140.056 328.619 139.576 329.963 138.616C331.339 137.624 332.235 136.264 332.651 134.536H339.419C338.779 137.992 337.163 140.696 334.571 142.648C332.011 144.6 328.715 145.576 324.683 145.576ZM360.602 145.576C357.242 145.576 354.298 144.84 351.77 143.368C349.274 141.896 347.306 139.864 345.866 137.272C344.458 134.648 343.754 131.624 343.754 128.2C343.754 124.776 344.458 121.768 345.866 119.176C347.306 116.552 349.274 114.504 351.77 113.032C354.298 111.56 357.242 110.824 360.602 110.824C363.93 110.824 366.858 111.56 369.386 113.032C371.914 114.504 373.882 116.552 375.29 119.176C376.698 121.768 377.402 124.776 377.402 128.2C377.402 131.624 376.698 134.648 375.29 137.272C373.882 139.864 371.914 141.896 369.386 143.368C366.858 144.84 363.93 145.576 360.602 145.576ZM360.602 140.056C363.802 140.056 366.346 139 368.234 136.888C370.154 134.776 371.114 131.88 371.114 128.2C371.114 124.52 370.154 121.624 368.234 119.512C366.346 117.4 363.802 116.344 360.602 116.344C357.402 116.344 354.842 117.4 352.922 119.512C351.002 121.624 350.042 124.52 350.042 128.2C350.042 131.88 351.002 134.776 352.922 136.888C354.842 139 357.402 140.056 360.602 140.056ZM382.827 145V111.4H388.971L404.763 135.064V111.4H410.907V145H404.763L388.971 121.384V145H382.827ZM425.244 145V116.344H415.452V111.4H441.228V116.344H431.388V145H425.244ZM445.78 145V111.4H467.716V116.344H451.924V125.56H466.276V130.36H451.924V140.056H467.716V145H445.78ZM473.53 145V111.4H479.674L495.466 135.064V111.4H501.61V145H495.466L479.674 121.384V145H473.53ZM515.947 145V116.344H506.155V111.4H531.931V116.344H522.091V145H515.947ZM547.533 145.576C545.069 145.576 542.893 145.16 541.005 144.328C539.117 143.464 537.629 142.248 536.541 140.68C535.453 139.08 534.893 137.144 534.861 134.872H541.341C541.405 136.44 541.965 137.768 543.021 138.856C544.109 139.912 545.597 140.44 547.485 140.44C549.117 140.44 550.413 140.056 551.373 139.288C552.333 138.488 552.813 137.432 552.813 136.12C552.813 134.744 552.381 133.672 551.517 132.904C550.685 132.136 549.565 131.512 548.157 131.032C546.749 130.552 545.245 130.04 543.645 129.496C541.053 128.6 539.069 127.448 537.693 126.04C536.349 124.632 535.677 122.76 535.677 120.424C535.645 118.44 536.109 116.744 537.069 115.336C538.061 113.896 539.405 112.792 541.101 112.024C542.797 111.224 544.749 110.824 546.957 110.824C549.197 110.824 551.165 111.224 552.861 112.024C554.589 112.824 555.933 113.944 556.893 115.384C557.885 116.824 558.413 118.536 558.477 120.52H551.901C551.869 119.336 551.405 118.296 550.509 117.4C549.645 116.472 548.429 116.008 546.861 116.008C545.517 115.976 544.381 116.312 543.453 117.016C542.557 117.688 542.109 118.68 542.109 119.992C542.109 121.112 542.461 122.008 543.165 122.68C543.869 123.32 544.829 123.864 546.045 124.312C547.261 124.76 548.653 125.24 550.221 125.752C551.885 126.328 553.405 127 554.781 127.768C556.157 128.536 557.261 129.56 558.093 130.84C558.925 132.088 559.341 133.704 559.341 135.688C559.341 137.448 558.893 139.08 557.997 140.584C557.101 142.088 555.773 143.304 554.013 144.232C552.253 145.128 550.093 145.576 547.533 145.576Z" fill="#666D89"/>
<path d="M933.24 291.288C931.544 291.288 930.088 290.928 928.872 290.208C927.656 289.472 926.72 288.456 926.064 287.16C925.408 285.848 925.08 284.336 925.08 282.624C925.08 280.912 925.408 279.4 926.064 278.088C926.72 276.776 927.656 275.752 928.872 275.016C930.088 274.28 931.544 273.912 933.24 273.912C935.256 273.912 936.904 274.416 938.184 275.424C939.48 276.416 940.288 277.816 940.608 279.624H937.224C937.016 278.712 936.568 278 935.88 277.488C935.208 276.96 934.312 276.696 933.192 276.696C931.64 276.696 930.424 277.224 929.544 278.28C928.664 279.336 928.224 280.784 928.224 282.624C928.224 284.464 928.664 285.912 929.544 286.968C930.424 288.008 931.64 288.528 933.192 288.528C934.312 288.528 935.208 288.288 935.88 287.808C936.568 287.312 937.016 286.632 937.224 285.768H940.608C940.288 287.496 939.48 288.848 938.184 289.824C936.904 290.8 935.256 291.288 933.24 291.288ZM951.199 291.288C949.519 291.288 948.047 290.92 946.783 290.184C945.535 289.448 944.551 288.432 943.831 287.136C943.127 285.824 942.775 284.312 942.775 282.6C942.775 280.888 943.127 279.384 943.831 278.088C944.551 276.776 945.535 275.752 946.783 275.016C948.047 274.28 949.519 273.912 951.199 273.912C952.863 273.912 954.327 274.28 955.591 275.016C956.855 275.752 957.839 276.776 958.543 278.088C959.247 279.384 959.599 280.888 959.599 282.6C959.599 284.312 959.247 285.824 958.543 287.136C957.839 288.432 956.855 289.448 955.591 290.184C954.327 290.92 952.863 291.288 951.199 291.288ZM951.199 288.528C952.799 288.528 954.071 288 955.015 286.944C955.975 285.888 956.455 284.44 956.455 282.6C956.455 280.76 955.975 279.312 955.015 278.256C954.071 277.2 952.799 276.672 951.199 276.672C949.599 276.672 948.319 277.2 947.359 278.256C946.399 279.312 945.919 280.76 945.919 282.6C945.919 284.44 946.399 285.888 947.359 286.944C948.319 288 949.599 288.528 951.199 288.528ZM962.312 291V274.2H965.384L973.28 286.032V274.2H976.352V291H973.28L965.384 279.192V291H962.312ZM983.521 291V276.672H978.625V274.2H991.513V276.672H986.593V291H983.521ZM993.788 291V274.2H1004.76V276.672H996.86V281.28H1004.04V283.68H996.86V288.528H1004.76V291H993.788ZM1006.85 291L1012.1 282.504L1006.78 274.2H1010.3L1014.07 280.056L1017.53 274.2H1020.98L1015.73 282.648L1021.1 291H1017.58L1013.76 285.072L1010.3 291H1006.85ZM1027.4 291V276.672H1022.5V274.2H1035.39V276.672H1030.47V291H1027.4Z" fill="#666D89"/>
<path d="M1206.52 291.288C1204.97 291.288 1203.64 290.928 1202.54 290.208C1201.43 289.472 1200.58 288.456 1199.97 287.16C1199.38 285.848 1199.08 284.328 1199.08 282.6C1199.08 280.888 1199.38 279.376 1199.97 278.064C1200.58 276.752 1201.43 275.736 1202.54 275.016C1203.64 274.28 1204.97 273.912 1206.52 273.912C1208.07 273.912 1209.4 274.28 1210.5 275.016C1211.61 275.736 1212.46 276.752 1213.05 278.064C1213.66 279.376 1213.96 280.888 1213.96 282.6C1213.96 284.328 1213.66 285.848 1213.05 287.16C1212.46 288.456 1211.61 289.472 1210.5 290.208C1209.4 290.928 1208.07 291.288 1206.52 291.288ZM1206.52 288.528C1207.78 288.528 1208.82 288 1209.62 286.944C1210.42 285.888 1210.82 284.44 1210.82 282.6C1210.82 280.76 1210.42 279.312 1209.62 278.256C1208.82 277.2 1207.78 276.672 1206.52 276.672C1205.24 276.672 1204.2 277.2 1203.4 278.256C1202.62 279.312 1202.22 280.76 1202.22 282.6C1202.22 284.44 1202.62 285.888 1203.4 286.944C1204.2 288 1205.24 288.528 1206.52 288.528ZM1218.5 291V277.704L1215.74 278.352V276L1219.79 274.2H1221.69V291H1218.5Z" fill="#666D89"/>
<path d="M1201.52 372.288C1199.97 372.288 1198.64 371.928 1197.54 371.208C1196.43 370.472 1195.58 369.456 1194.97 368.16C1194.38 366.848 1194.08 365.328 1194.08 363.6C1194.08 361.888 1194.38 360.376 1194.97 359.064C1195.58 357.752 1196.43 356.736 1197.54 356.016C1198.64 355.28 1199.97 354.912 1201.52 354.912C1203.07 354.912 1204.4 355.28 1205.5 356.016C1206.61 356.736 1207.46 357.752 1208.05 359.064C1208.66 360.376 1208.96 361.888 1208.96 363.6C1208.96 365.328 1208.66 366.848 1208.05 368.16C1207.46 369.456 1206.61 370.472 1205.5 371.208C1204.4 371.928 1203.07 372.288 1201.52 372.288ZM1201.52 369.528C1202.78 369.528 1203.82 369 1204.62 367.944C1205.42 366.888 1205.82 365.44 1205.82 363.6C1205.82 361.76 1205.42 360.312 1204.62 359.256C1203.82 358.2 1202.78 357.672 1201.52 357.672C1200.24 357.672 1199.2 358.2 1198.4 359.256C1197.62 360.312 1197.22 361.76 1197.22 363.6C1197.22 365.44 1197.62 366.888 1198.4 367.944C1199.2 369 1200.24 369.528 1201.52 369.528ZM1211.15 372V369.768C1212.17 368.92 1213.16 368.08 1214.12 367.248C1215.1 366.416 1215.96 365.592 1216.71 364.776C1217.48 363.96 1218.09 363.168 1218.54 362.4C1219 361.616 1219.23 360.856 1219.23 360.12C1219.23 359.432 1219.04 358.824 1218.66 358.296C1218.29 357.768 1217.67 357.504 1216.81 357.504C1215.93 357.504 1215.27 357.792 1214.82 358.368C1214.37 358.944 1214.15 359.64 1214.15 360.456H1211.17C1211.2 359.224 1211.47 358.2 1211.99 357.384C1212.5 356.552 1213.18 355.936 1214.03 355.536C1214.87 355.12 1215.83 354.912 1216.88 354.912C1218.59 354.912 1219.92 355.384 1220.87 356.328C1221.83 357.256 1222.31 358.464 1222.31 359.952C1222.31 360.88 1222.09 361.784 1221.66 362.664C1221.24 363.544 1220.69 364.392 1220 365.208C1219.31 366.024 1218.57 366.792 1217.77 367.512C1216.97 368.216 1216.19 368.872 1215.44 369.48H1222.71V372H1211.15Z" fill="#666D89"/>
<path d="M1200.52 529.288C1198.97 529.288 1197.64 528.928 1196.54 528.208C1195.43 527.472 1194.58 526.456 1193.97 525.16C1193.38 523.848 1193.08 522.328 1193.08 520.6C1193.08 518.888 1193.38 517.376 1193.97 516.064C1194.58 514.752 1195.43 513.736 1196.54 513.016C1197.64 512.28 1198.97 511.912 1200.52 511.912C1202.07 511.912 1203.4 512.28 1204.5 513.016C1205.61 513.736 1206.46 514.752 1207.05 516.064C1207.66 517.376 1207.96 518.888 1207.96 520.6C1207.96 522.328 1207.66 523.848 1207.05 525.16C1206.46 526.456 1205.61 527.472 1204.5 528.208C1203.4 528.928 1202.07 529.288 1200.52 529.288ZM1200.52 526.528C1201.78 526.528 1202.82 526 1203.62 524.944C1204.42 523.888 1204.82 522.44 1204.82 520.6C1204.82 518.76 1204.42 517.312 1203.62 516.256C1202.82 515.2 1201.78 514.672 1200.52 514.672C1199.24 514.672 1198.2 515.2 1197.4 516.256C1196.62 517.312 1196.22 518.76 1196.22 520.6C1196.22 522.44 1196.62 523.888 1197.4 524.944C1198.2 526 1199.24 526.528 1200.52 526.528ZM1216.17 529.288C1215.06 529.288 1214.06 529.096 1213.17 528.712C1212.27 528.312 1211.55 527.704 1211.01 526.888C1210.46 526.072 1210.18 525.048 1210.14 523.816H1213.17C1213.18 524.632 1213.45 525.32 1213.96 525.88C1214.49 526.424 1215.22 526.696 1216.17 526.696C1217.06 526.696 1217.75 526.448 1218.23 525.952C1218.71 525.456 1218.95 524.832 1218.95 524.08C1218.95 523.2 1218.63 522.536 1217.99 522.088C1217.37 521.624 1216.56 521.392 1215.57 521.392H1214.32V518.872H1215.59C1216.41 518.872 1217.09 518.68 1217.63 518.296C1218.18 517.912 1218.45 517.344 1218.45 516.592C1218.45 515.968 1218.24 515.472 1217.82 515.104C1217.42 514.72 1216.86 514.528 1216.14 514.528C1215.36 514.528 1214.74 514.76 1214.3 515.224C1213.86 515.688 1213.62 516.256 1213.58 516.928H1210.58C1210.64 515.376 1211.18 514.152 1212.18 513.256C1213.21 512.36 1214.53 511.912 1216.14 511.912C1217.3 511.912 1218.26 512.12 1219.05 512.536C1219.85 512.936 1220.45 513.472 1220.85 514.144C1221.26 514.816 1221.47 515.56 1221.47 516.376C1221.47 517.32 1221.21 518.12 1220.68 518.776C1220.17 519.416 1219.53 519.848 1218.76 520.072C1219.7 520.264 1220.47 520.728 1221.06 521.464C1221.66 522.184 1221.95 523.096 1221.95 524.2C1221.95 525.128 1221.73 525.976 1221.28 526.744C1220.83 527.512 1220.18 528.128 1219.31 528.592C1218.46 529.056 1217.42 529.288 1216.17 529.288Z" fill="#666D89"/>
<path d="M1199.52 686.288C1197.97 686.288 1196.64 685.928 1195.54 685.208C1194.43 684.472 1193.58 683.456 1192.97 682.16C1192.38 680.848 1192.08 679.328 1192.08 677.6C1192.08 675.888 1192.38 674.376 1192.97 673.064C1193.58 671.752 1194.43 670.736 1195.54 670.016C1196.64 669.28 1197.97 668.912 1199.52 668.912C1201.07 668.912 1202.4 669.28 1203.5 670.016C1204.61 670.736 1205.46 671.752 1206.05 673.064C1206.66 674.376 1206.96 675.888 1206.96 677.6C1206.96 679.328 1206.66 680.848 1206.05 682.16C1205.46 683.456 1204.61 684.472 1203.5 685.208C1202.4 685.928 1201.07 686.288 1199.52 686.288ZM1199.52 683.528C1200.78 683.528 1201.82 683 1202.62 681.944C1203.42 680.888 1203.82 679.44 1203.82 677.6C1203.82 675.76 1203.42 674.312 1202.62 673.256C1201.82 672.2 1200.78 671.672 1199.52 671.672C1198.24 671.672 1197.2 672.2 1196.4 673.256C1195.62 674.312 1195.22 675.76 1195.22 677.6C1195.22 679.44 1195.62 680.888 1196.4 681.944C1197.2 683 1198.24 683.528 1199.52 683.528ZM1217.35 686V682.88H1209.07V680.432L1216.94 669.2H1220.42V680.216H1222.63V682.88H1220.42V686H1217.35ZM1212.36 680.216H1217.54V672.584L1212.36 680.216Z" fill="#666D89"/>
<path d="M925.632 372V355.2H931.8C933.144 355.2 934.248 355.432 935.112 355.896C935.992 356.344 936.648 356.96 937.08 357.744C937.512 358.512 937.728 359.368 937.728 360.312C937.728 361.336 937.456 362.272 936.912 363.12C936.384 363.968 935.552 364.584 934.416 364.968L937.896 372H934.368L931.248 365.376H928.704V372H925.632ZM928.704 363.12H931.608C932.632 363.12 933.384 362.872 933.864 362.376C934.344 361.88 934.584 361.224 934.584 360.408C934.584 359.608 934.344 358.968 933.864 358.488C933.4 358.008 932.64 357.768 931.584 357.768H928.704V363.12ZM940.585 372V355.2H951.553V357.672H943.657V362.28H950.833V364.68H943.657V369.528H951.553V372H940.585ZM960.196 372.288C958.964 372.288 957.876 372.08 956.932 371.664C955.988 371.232 955.244 370.624 954.7 369.84C954.156 369.04 953.876 368.072 953.86 366.936H957.1C957.132 367.72 957.412 368.384 957.94 368.928C958.484 369.456 959.228 369.72 960.172 369.72C960.988 369.72 961.636 369.528 962.116 369.144C962.596 368.744 962.836 368.216 962.836 367.56C962.836 366.872 962.62 366.336 962.188 365.952C961.772 365.568 961.212 365.256 960.508 365.016C959.804 364.776 959.052 364.52 958.252 364.248C956.956 363.8 955.964 363.224 955.276 362.52C954.604 361.816 954.268 360.88 954.268 359.712C954.252 358.72 954.484 357.872 954.964 357.168C955.46 356.448 956.132 355.896 956.98 355.512C957.828 355.112 958.804 354.912 959.908 354.912C961.028 354.912 962.012 355.112 962.86 355.512C963.724 355.912 964.396 356.472 964.876 357.192C965.372 357.912 965.636 358.768 965.668 359.76H962.38C962.364 359.168 962.132 358.648 961.684 358.2C961.252 357.736 960.644 357.504 959.86 357.504C959.188 357.488 958.62 357.656 958.156 358.008C957.708 358.344 957.484 358.84 957.484 359.496C957.484 360.056 957.66 360.504 958.012 360.84C958.364 361.16 958.844 361.432 959.452 361.656C960.06 361.88 960.756 362.12 961.54 362.376C962.372 362.664 963.132 363 963.82 363.384C964.508 363.768 965.06 364.28 965.476 364.92C965.892 365.544 966.1 366.352 966.1 367.344C966.1 368.224 965.876 369.04 965.428 369.792C964.98 370.544 964.316 371.152 963.436 371.616C962.556 372.064 961.476 372.288 960.196 372.288ZM968.78 372V355.2H979.748V357.672H971.852V362.28H979.028V364.68H971.852V369.528H979.748V372H968.78ZM981.575 372L987.719 355.2H991.175L997.319 372H994.055L992.711 368.112H986.159L984.791 372H981.575ZM986.999 365.712H991.871L989.423 358.728L986.999 365.712ZM999.484 372V355.2H1005.65C1007 355.2 1008.1 355.432 1008.96 355.896C1009.84 356.344 1010.5 356.96 1010.93 357.744C1011.36 358.512 1011.58 359.368 1011.58 360.312C1011.58 361.336 1011.31 362.272 1010.76 363.12C1010.24 363.968 1009.4 364.584 1008.27 364.968L1011.75 372H1008.22L1005.1 365.376H1002.56V372H999.484ZM1002.56 363.12H1005.46C1006.48 363.12 1007.24 362.872 1007.72 362.376C1008.2 361.88 1008.44 361.224 1008.44 360.408C1008.44 359.608 1008.2 358.968 1007.72 358.488C1007.25 358.008 1006.49 357.768 1005.44 357.768H1002.56V363.12ZM1022.04 372.288C1020.35 372.288 1018.89 371.928 1017.68 371.208C1016.46 370.472 1015.52 369.456 1014.87 368.16C1014.21 366.848 1013.88 365.336 1013.88 363.624C1013.88 361.912 1014.21 360.4 1014.87 359.088C1015.52 357.776 1016.46 356.752 1017.68 356.016C1018.89 355.28 1020.35 354.912 1022.04 354.912C1024.06 354.912 1025.71 355.416 1026.99 356.424C1028.28 357.416 1029.09 358.816 1029.41 360.624H1026.03C1025.82 359.712 1025.37 359 1024.68 358.488C1024.01 357.96 1023.12 357.696 1022 357.696C1020.44 357.696 1019.23 358.224 1018.35 359.28C1017.47 360.336 1017.03 361.784 1017.03 363.624C1017.03 365.464 1017.47 366.912 1018.35 367.968C1019.23 369.008 1020.44 369.528 1022 369.528C1023.12 369.528 1024.01 369.288 1024.68 368.808C1025.37 368.312 1025.82 367.632 1026.03 366.768H1029.41C1029.09 368.496 1028.28 369.848 1026.99 370.824C1025.71 371.8 1024.06 372.288 1022.04 372.288ZM1032.13 372V355.2H1035.2V362.184H1042.74V355.2H1045.81V372H1042.74V364.68H1035.2V372H1032.13Z" fill="#666D89"/>
<path d="M969.656 421V409.096H971.48L971.648 411.376C972.016 410.592 972.576 409.968 973.328 409.504C974.08 409.04 975.008 408.808 976.112 408.808V410.92H975.56C974.856 410.92 974.208 411.048 973.616 411.304C973.024 411.544 972.552 411.96 972.2 412.552C971.848 413.144 971.672 413.96 971.672 415V421H969.656ZM983.281 421.288C982.145 421.288 981.137 421.032 980.257 420.52C979.377 419.992 978.681 419.264 978.169 418.336C977.673 417.408 977.425 416.312 977.425 415.048C977.425 413.8 977.673 412.712 978.169 411.784C978.665 410.84 979.353 410.112 980.233 409.6C981.129 409.072 982.161 408.808 983.329 408.808C984.481 408.808 985.473 409.072 986.305 409.6C987.153 410.112 987.801 410.792 988.249 411.64C988.697 412.488 988.921 413.4 988.921 414.376C988.921 414.552 988.913 414.728 988.897 414.904C988.897 415.08 988.897 415.28 988.897 415.504H979.417C979.465 416.416 979.673 417.176 980.041 417.784C980.425 418.376 980.897 418.824 981.457 419.128C982.033 419.432 982.641 419.584 983.281 419.584C984.113 419.584 984.809 419.392 985.369 419.008C985.929 418.624 986.337 418.104 986.593 417.448H988.585C988.265 418.552 987.649 419.472 986.737 420.208C985.841 420.928 984.689 421.288 983.281 421.288ZM983.281 410.512C982.321 410.512 981.465 410.808 980.713 411.4C979.977 411.976 979.553 412.824 979.441 413.944H986.929C986.881 412.872 986.513 412.032 985.825 411.424C985.137 410.816 984.289 410.512 983.281 410.512ZM996.154 421.288C994.73 421.288 993.546 420.928 992.602 420.208C991.658 419.488 991.106 418.512 990.946 417.28H993.01C993.138 417.904 993.466 418.448 993.994 418.912C994.538 419.36 995.266 419.584 996.178 419.584C997.026 419.584 997.65 419.408 998.05 419.056C998.45 418.688 998.65 418.256 998.65 417.76C998.65 417.04 998.386 416.56 997.858 416.32C997.346 416.08 996.618 415.864 995.674 415.672C995.034 415.544 994.394 415.36 993.754 415.12C993.114 414.88 992.578 414.544 992.146 414.112C991.714 413.664 991.498 413.08 991.498 412.36C991.498 411.32 991.882 410.472 992.65 409.816C993.434 409.144 994.49 408.808 995.818 408.808C997.082 408.808 998.114 409.128 998.914 409.768C999.73 410.392 1000.2 411.288 1000.33 412.456H998.338C998.258 411.848 997.994 411.376 997.546 411.04C997.114 410.688 996.53 410.512 995.794 410.512C995.074 410.512 994.514 410.664 994.114 410.968C993.73 411.272 993.538 411.672 993.538 412.168C993.538 412.648 993.786 413.024 994.282 413.296C994.794 413.568 995.482 413.8 996.346 413.992C997.082 414.152 997.778 414.352 998.434 414.592C999.106 414.816 999.65 415.16 1000.07 415.624C1000.5 416.072 1000.71 416.728 1000.71 417.592C1000.73 418.664 1000.32 419.552 999.49 420.256C998.674 420.944 997.562 421.288 996.154 421.288ZM1008.95 421.288C1007.81 421.288 1006.8 421.032 1005.92 420.52C1005.04 419.992 1004.35 419.264 1003.83 418.336C1003.34 417.408 1003.09 416.312 1003.09 415.048C1003.09 413.8 1003.34 412.712 1003.83 411.784C1004.33 410.84 1005.02 410.112 1005.9 409.6C1006.79 409.072 1007.83 408.808 1008.99 408.808C1010.15 408.808 1011.14 409.072 1011.97 409.6C1012.82 410.112 1013.47 410.792 1013.91 411.64C1014.36 412.488 1014.59 413.4 1014.59 414.376C1014.59 414.552 1014.58 414.728 1014.56 414.904C1014.56 415.08 1014.56 415.28 1014.56 415.504H1005.08C1005.13 416.416 1005.34 417.176 1005.71 417.784C1006.09 418.376 1006.56 418.824 1007.12 419.128C1007.7 419.432 1008.31 419.584 1008.95 419.584C1009.78 419.584 1010.47 419.392 1011.03 419.008C1011.59 418.624 1012 418.104 1012.26 417.448H1014.25C1013.93 418.552 1013.31 419.472 1012.4 420.208C1011.51 420.928 1010.35 421.288 1008.95 421.288ZM1008.95 410.512C1007.99 410.512 1007.13 410.808 1006.38 411.4C1005.64 411.976 1005.22 412.824 1005.11 413.944H1012.59C1012.55 412.872 1012.18 412.032 1011.49 411.424C1010.8 410.816 1009.95 410.512 1008.95 410.512ZM1021.22 421.288C1020.23 421.288 1019.4 421.12 1018.75 420.784C1018.09 420.448 1017.6 420 1017.28 419.44C1016.96 418.88 1016.8 418.272 1016.8 417.616C1016.8 416.4 1017.27 415.464 1018.19 414.808C1019.12 414.152 1020.39 413.824 1021.99 413.824H1025.2V413.68C1025.2 412.64 1024.93 411.856 1024.39 411.328C1023.84 410.784 1023.11 410.512 1022.2 410.512C1021.42 410.512 1020.74 410.712 1020.16 411.112C1019.6 411.496 1019.25 412.064 1019.11 412.816H1017.04C1017.12 411.952 1017.41 411.224 1017.91 410.632C1018.42 410.04 1019.05 409.592 1019.8 409.288C1020.55 408.968 1021.35 408.808 1022.2 408.808C1023.87 408.808 1025.11 409.256 1025.95 410.152C1026.79 411.032 1027.22 412.208 1027.22 413.68V421H1025.42L1025.3 418.864C1024.96 419.536 1024.47 420.112 1023.81 420.592C1023.17 421.056 1022.31 421.288 1021.22 421.288ZM1021.53 419.584C1022.3 419.584 1022.95 419.384 1023.5 418.984C1024.06 418.584 1024.48 418.064 1024.77 417.424C1025.06 416.784 1025.2 416.112 1025.2 415.408V415.384H1022.15C1020.97 415.384 1020.13 415.592 1019.63 416.008C1019.15 416.408 1018.91 416.912 1018.91 417.52C1018.91 418.144 1019.14 418.648 1019.59 419.032C1020.05 419.4 1020.7 419.584 1021.53 419.584ZM1030.24 421V409.096H1032.07L1032.23 411.376C1032.6 410.592 1033.16 409.968 1033.91 409.504C1034.67 409.04 1035.59 408.808 1036.7 408.808V410.92H1036.15C1035.44 410.92 1034.79 411.048 1034.2 411.304C1033.61 411.544 1033.14 411.96 1032.79 412.552C1032.43 413.144 1032.26 413.96 1032.26 415V421H1030.24ZM1043.99 421.288C1042.85 421.288 1041.83 421.032 1040.92 420.52C1040.02 419.992 1039.31 419.264 1038.78 418.336C1038.27 417.392 1038.01 416.296 1038.01 415.048C1038.01 413.8 1038.27 412.712 1038.78 411.784C1039.31 410.84 1040.02 410.112 1040.92 409.6C1041.83 409.072 1042.85 408.808 1043.99 408.808C1045.4 408.808 1046.58 409.176 1047.54 409.912C1048.52 410.648 1049.13 411.632 1049.39 412.864H1047.32C1047.16 412.128 1046.77 411.56 1046.15 411.16C1045.52 410.744 1044.8 410.536 1043.96 410.536C1043.29 410.536 1042.66 410.704 1042.07 411.04C1041.48 411.376 1041 411.88 1040.63 412.552C1040.26 413.224 1040.08 414.056 1040.08 415.048C1040.08 416.04 1040.26 416.872 1040.63 417.544C1041 418.216 1041.48 418.728 1042.07 419.08C1042.66 419.416 1043.29 419.584 1043.96 419.584C1044.8 419.584 1045.52 419.384 1046.15 418.984C1046.77 418.568 1047.16 417.984 1047.32 417.232H1049.39C1049.15 418.432 1048.54 419.408 1047.56 420.16C1046.59 420.912 1045.4 421.288 1043.99 421.288ZM1052.2 421V403.72H1054.22V411.136C1054.62 410.4 1055.19 409.832 1055.92 409.432C1056.66 409.016 1057.46 408.808 1058.32 408.808C1059.7 408.808 1060.8 409.24 1061.63 410.104C1062.47 410.952 1062.88 412.264 1062.88 414.04V421H1060.89V414.256C1060.89 411.776 1059.89 410.536 1057.89 410.536C1056.85 410.536 1055.98 410.912 1055.27 411.664C1054.57 412.4 1054.22 413.456 1054.22 414.832V421H1052.2ZM1082.06 426.28V419.032C1081.67 419.608 1081.12 420.128 1080.4 420.592C1079.68 421.056 1078.78 421.288 1077.69 421.288C1076.5 421.288 1075.46 421.016 1074.57 420.472C1073.69 419.928 1073 419.184 1072.5 418.24C1072.02 417.296 1071.78 416.224 1071.78 415.024C1071.78 413.824 1072.03 412.76 1072.53 411.832C1073.02 410.888 1073.71 410.152 1074.59 409.624C1075.47 409.08 1076.51 408.808 1077.71 408.808C1078.69 408.808 1079.55 409.008 1080.3 409.408C1081.06 409.808 1081.64 410.368 1082.06 411.088L1082.25 409.096H1084.07V426.28H1082.06ZM1077.9 419.536C1078.7 419.536 1079.41 419.352 1080.02 418.984C1080.64 418.6 1081.12 418.072 1081.46 417.4C1081.81 416.728 1081.98 415.944 1081.98 415.048C1081.98 414.152 1081.81 413.368 1081.46 412.696C1081.12 412.024 1080.64 411.504 1080.02 411.136C1079.41 410.752 1078.7 410.56 1077.9 410.56C1077.12 410.56 1076.42 410.752 1075.79 411.136C1075.18 411.504 1074.7 412.024 1074.35 412.696C1074.02 413.368 1073.85 414.152 1073.85 415.048C1073.85 415.944 1074.02 416.728 1074.35 417.4C1074.7 418.072 1075.18 418.6 1075.79 418.984C1076.42 419.352 1077.12 419.536 1077.9 419.536ZM1091.7 421.288C1090.3 421.288 1089.18 420.864 1088.34 420.016C1087.51 419.152 1087.1 417.832 1087.1 416.056V409.096H1089.11V415.84C1089.11 418.32 1090.13 419.56 1092.16 419.56C1093.2 419.56 1094.06 419.192 1094.73 418.456C1095.42 417.704 1095.76 416.64 1095.76 415.264V409.096H1097.78V421H1095.95L1095.81 418.864C1095.44 419.616 1094.89 420.208 1094.15 420.64C1093.43 421.072 1092.62 421.288 1091.7 421.288ZM1106.45 421.288C1105.31 421.288 1104.3 421.032 1103.42 420.52C1102.54 419.992 1101.85 419.264 1101.33 418.336C1100.84 417.408 1100.59 416.312 1100.59 415.048C1100.59 413.8 1100.84 412.712 1101.33 411.784C1101.83 410.84 1102.52 410.112 1103.4 409.6C1104.29 409.072 1105.33 408.808 1106.49 408.808C1107.65 408.808 1108.64 409.072 1109.47 409.6C1110.32 410.112 1110.97 410.792 1111.41 411.64C1111.86 412.488 1112.09 413.4 1112.09 414.376C1112.09 414.552 1112.08 414.728 1112.06 414.904C1112.06 415.08 1112.06 415.28 1112.06 415.504H1102.58C1102.63 416.416 1102.84 417.176 1103.21 417.784C1103.59 418.376 1104.06 418.824 1104.62 419.128C1105.2 419.432 1105.81 419.584 1106.45 419.584C1107.28 419.584 1107.97 419.392 1108.53 419.008C1109.09 418.624 1109.5 418.104 1109.76 417.448H1111.75C1111.43 418.552 1110.81 419.472 1109.9 420.208C1109.01 420.928 1107.85 421.288 1106.45 421.288ZM1106.45 410.512C1105.49 410.512 1104.63 410.808 1103.88 411.4C1103.14 411.976 1102.72 412.824 1102.61 413.944H1110.09C1110.05 412.872 1109.68 412.032 1108.99 411.424C1108.3 410.816 1107.45 410.512 1106.45 410.512ZM1119.32 421.288C1117.89 421.288 1116.71 420.928 1115.77 420.208C1114.82 419.488 1114.27 418.512 1114.11 417.28H1116.17C1116.3 417.904 1116.63 418.448 1117.16 418.912C1117.7 419.36 1118.43 419.584 1119.34 419.584C1120.19 419.584 1120.81 419.408 1121.21 419.056C1121.61 418.688 1121.81 418.256 1121.81 417.76C1121.81 417.04 1121.55 416.56 1121.02 416.32C1120.51 416.08 1119.78 415.864 1118.84 415.672C1118.2 415.544 1117.56 415.36 1116.92 415.12C1116.28 414.88 1115.74 414.544 1115.31 414.112C1114.88 413.664 1114.66 413.08 1114.66 412.36C1114.66 411.32 1115.05 410.472 1115.81 409.816C1116.6 409.144 1117.65 408.808 1118.98 408.808C1120.25 408.808 1121.28 409.128 1122.08 409.768C1122.89 410.392 1123.37 411.288 1123.49 412.456H1121.5C1121.42 411.848 1121.16 411.376 1120.71 411.04C1120.28 410.688 1119.69 410.512 1118.96 410.512C1118.24 410.512 1117.68 410.664 1117.28 410.968C1116.89 411.272 1116.7 411.672 1116.7 412.168C1116.7 412.648 1116.95 413.024 1117.45 413.296C1117.96 413.568 1118.65 413.8 1119.51 413.992C1120.25 414.152 1120.94 414.352 1121.6 414.592C1122.27 414.816 1122.81 415.16 1123.23 415.624C1123.66 416.072 1123.88 416.728 1123.88 417.592C1123.89 418.664 1123.49 419.552 1122.65 420.256C1121.84 420.944 1120.73 421.288 1119.32 421.288ZM1130.92 421C1129.83 421 1128.98 420.736 1128.35 420.208C1127.73 419.68 1127.42 418.728 1127.42 417.352V410.8H1125.35V409.096H1127.42L1127.68 406.24H1129.43V409.096H1132.94V410.8H1129.43V417.352C1129.43 418.104 1129.59 418.616 1129.89 418.888C1130.19 419.144 1130.73 419.272 1131.5 419.272H1132.75V421H1130.92ZM1136.72 406.456C1136.32 406.456 1135.99 406.328 1135.72 406.072C1135.46 405.8 1135.33 405.464 1135.33 405.064C1135.33 404.68 1135.46 404.36 1135.72 404.104C1135.99 403.848 1136.32 403.72 1136.72 403.72C1137.11 403.72 1137.44 403.848 1137.71 404.104C1137.98 404.36 1138.12 404.68 1138.12 405.064C1138.12 405.464 1137.98 405.8 1137.71 406.072C1137.44 406.328 1137.11 406.456 1136.72 406.456ZM1135.72 421V409.096H1137.73V421H1135.72ZM1146.67 421.288C1145.55 421.288 1144.54 421.032 1143.64 420.52C1142.75 420.008 1142.03 419.288 1141.51 418.36C1140.99 417.416 1140.74 416.312 1140.74 415.048C1140.74 413.784 1141 412.688 1141.53 411.76C1142.06 410.816 1142.77 410.088 1143.67 409.576C1144.58 409.064 1145.59 408.808 1146.71 408.808C1147.83 408.808 1148.84 409.064 1149.74 409.576C1150.63 410.088 1151.34 410.816 1151.85 411.76C1152.38 412.688 1152.64 413.784 1152.64 415.048C1152.64 416.312 1152.38 417.416 1151.85 418.36C1151.32 419.288 1150.6 420.008 1149.69 420.52C1148.79 421.032 1147.79 421.288 1146.67 421.288ZM1146.67 419.56C1147.35 419.56 1147.99 419.392 1148.59 419.056C1149.18 418.72 1149.66 418.216 1150.03 417.544C1150.39 416.872 1150.58 416.04 1150.58 415.048C1150.58 414.056 1150.39 413.224 1150.03 412.552C1149.67 411.88 1149.2 411.376 1148.61 411.04C1148.02 410.704 1147.39 410.536 1146.71 410.536C1146.03 410.536 1145.39 410.704 1144.79 411.04C1144.2 411.376 1143.72 411.88 1143.35 412.552C1142.99 413.224 1142.8 414.056 1142.8 415.048C1142.8 416.04 1142.99 416.872 1143.35 417.544C1143.72 418.216 1144.19 418.72 1144.77 419.056C1145.36 419.392 1145.99 419.56 1146.67 419.56ZM1155.45 421V409.096H1157.27L1157.39 411.232C1157.77 410.48 1158.33 409.888 1159.05 409.456C1159.77 409.024 1160.58 408.808 1161.49 408.808C1162.9 408.808 1164.02 409.24 1164.85 410.104C1165.7 410.952 1166.13 412.264 1166.13 414.04V421H1164.11V414.256C1164.11 411.776 1163.09 410.536 1161.04 410.536C1160.01 410.536 1159.16 410.912 1158.47 411.664C1157.8 412.4 1157.46 413.456 1157.46 414.832V421H1155.45ZM1173.74 421.288C1172.32 421.288 1171.13 420.928 1170.19 420.208C1169.24 419.488 1168.69 418.512 1168.53 417.28H1170.6C1170.72 417.904 1171.05 418.448 1171.58 418.912C1172.12 419.36 1172.85 419.584 1173.76 419.584C1174.61 419.584 1175.24 419.408 1175.64 419.056C1176.04 418.688 1176.24 418.256 1176.24 417.76C1176.24 417.04 1175.97 416.56 1175.44 416.32C1174.93 416.08 1174.2 415.864 1173.26 415.672C1172.62 415.544 1171.98 415.36 1171.34 415.12C1170.7 414.88 1170.16 414.544 1169.73 414.112C1169.3 413.664 1169.08 413.08 1169.08 412.36C1169.08 411.32 1169.47 410.472 1170.24 409.816C1171.02 409.144 1172.08 408.808 1173.4 408.808C1174.67 408.808 1175.7 409.128 1176.5 409.768C1177.32 410.392 1177.79 411.288 1177.92 412.456H1175.92C1175.84 411.848 1175.58 411.376 1175.13 411.04C1174.7 410.688 1174.12 410.512 1173.38 410.512C1172.66 410.512 1172.1 410.664 1171.7 410.968C1171.32 411.272 1171.12 411.672 1171.12 412.168C1171.12 412.648 1171.37 413.024 1171.87 413.296C1172.38 413.568 1173.07 413.8 1173.93 413.992C1174.67 414.152 1175.36 414.352 1176.02 414.592C1176.69 414.816 1177.24 415.16 1177.65 415.624C1178.08 416.072 1178.3 416.728 1178.3 417.592C1178.32 418.664 1177.91 419.552 1177.08 420.256C1176.26 420.944 1175.15 421.288 1173.74 421.288Z" fill="#666D89"/>
<path d="M975.128 578.288C973.992 578.288 972.968 578.032 972.056 577.52C971.16 576.992 970.448 576.264 969.92 575.336C969.408 574.392 969.152 573.296 969.152 572.048C969.152 570.8 969.408 569.712 969.92 568.784C970.448 567.84 971.16 567.112 972.056 566.6C972.968 566.072 973.992 565.808 975.128 565.808C976.536 565.808 977.72 566.176 978.68 566.912C979.656 567.648 980.272 568.632 980.528 569.864H978.464C978.304 569.128 977.912 568.56 977.288 568.16C976.664 567.744 975.936 567.536 975.104 567.536C974.432 567.536 973.8 567.704 973.208 568.04C972.616 568.376 972.136 568.88 971.768 569.552C971.4 570.224 971.216 571.056 971.216 572.048C971.216 573.04 971.4 573.872 971.768 574.544C972.136 575.216 972.616 575.728 973.208 576.08C973.8 576.416 974.432 576.584 975.104 576.584C975.936 576.584 976.664 576.384 977.288 575.984C977.912 575.568 978.304 574.984 978.464 574.232H980.528C980.288 575.432 979.68 576.408 978.704 577.16C977.728 577.912 976.536 578.288 975.128 578.288ZM988.768 578.288C987.648 578.288 986.64 578.032 985.744 577.52C984.848 577.008 984.136 576.288 983.608 575.36C983.096 574.416 982.84 573.312 982.84 572.048C982.84 570.784 983.104 569.688 983.632 568.76C984.16 567.816 984.872 567.088 985.768 566.576C986.68 566.064 987.696 565.808 988.816 565.808C989.936 565.808 990.944 566.064 991.84 566.576C992.736 567.088 993.44 567.816 993.952 568.76C994.48 569.688 994.744 570.784 994.744 572.048C994.744 573.312 994.48 574.416 993.952 575.36C993.424 576.288 992.704 577.008 991.792 577.52C990.896 578.032 989.888 578.288 988.768 578.288ZM988.768 576.56C989.456 576.56 990.096 576.392 990.688 576.056C991.28 575.72 991.76 575.216 992.128 574.544C992.496 573.872 992.68 573.04 992.68 572.048C992.68 571.056 992.496 570.224 992.128 569.552C991.776 568.88 991.304 568.376 990.712 568.04C990.12 567.704 989.488 567.536 988.816 567.536C988.128 567.536 987.488 567.704 986.896 568.04C986.304 568.376 985.824 568.88 985.456 569.552C985.088 570.224 984.904 571.056 984.904 572.048C984.904 573.04 985.088 573.872 985.456 574.544C985.824 575.216 986.296 575.72 986.872 576.056C987.464 576.392 988.096 576.56 988.768 576.56ZM997.547 578V560.72H999.563V578H997.547ZM1008.29 578.288C1007.17 578.288 1006.16 578.032 1005.27 577.52C1004.37 577.008 1003.66 576.288 1003.13 575.36C1002.62 574.416 1002.36 573.312 1002.36 572.048C1002.36 570.784 1002.63 569.688 1003.15 568.76C1003.68 567.816 1004.39 567.088 1005.29 566.576C1006.2 566.064 1007.22 565.808 1008.34 565.808C1009.46 565.808 1010.47 566.064 1011.36 566.576C1012.26 567.088 1012.96 567.816 1013.47 568.76C1014 569.688 1014.27 570.784 1014.27 572.048C1014.27 573.312 1014 574.416 1013.47 575.36C1012.95 576.288 1012.23 577.008 1011.31 577.52C1010.42 578.032 1009.41 578.288 1008.29 578.288ZM1008.29 576.56C1008.98 576.56 1009.62 576.392 1010.21 576.056C1010.8 575.72 1011.28 575.216 1011.65 574.544C1012.02 573.872 1012.2 573.04 1012.2 572.048C1012.2 571.056 1012.02 570.224 1011.65 569.552C1011.3 568.88 1010.83 568.376 1010.23 568.04C1009.64 567.704 1009.01 567.536 1008.34 567.536C1007.65 567.536 1007.01 567.704 1006.42 568.04C1005.83 568.376 1005.35 568.88 1004.98 569.552C1004.61 570.224 1004.43 571.056 1004.43 572.048C1004.43 573.04 1004.61 573.872 1004.98 574.544C1005.35 575.216 1005.82 575.72 1006.39 576.056C1006.99 576.392 1007.62 576.56 1008.29 576.56ZM1017.07 578V566.096H1018.89L1019.06 568.376C1019.43 567.592 1019.99 566.968 1020.74 566.504C1021.49 566.04 1022.42 565.808 1023.53 565.808V567.92H1022.97C1022.27 567.92 1021.62 568.048 1021.03 568.304C1020.44 568.544 1019.97 568.96 1019.61 569.552C1019.26 570.144 1019.09 570.96 1019.09 572V578H1017.07ZM1032.14 583.28V566.096H1033.96L1034.16 568.064C1034.54 567.488 1035.08 566.968 1035.79 566.504C1036.51 566.04 1037.42 565.808 1038.52 565.808C1039.71 565.808 1040.74 566.08 1041.62 566.624C1042.5 567.168 1043.18 567.912 1043.66 568.856C1044.16 569.8 1044.4 570.872 1044.4 572.072C1044.4 573.272 1044.16 574.344 1043.66 575.288C1043.18 576.216 1042.49 576.952 1041.6 577.496C1040.72 578.024 1039.68 578.288 1038.5 578.288C1037.52 578.288 1036.65 578.088 1035.88 577.688C1035.13 577.288 1034.56 576.728 1034.16 576.008V583.28H1032.14ZM1038.28 576.536C1039.08 576.536 1039.79 576.352 1040.4 575.984C1041 575.6 1041.48 575.072 1041.84 574.4C1042.19 573.728 1042.36 572.944 1042.36 572.048C1042.36 571.152 1042.19 570.368 1041.84 569.696C1041.48 569.024 1041 568.504 1040.4 568.136C1039.79 567.752 1039.08 567.56 1038.28 567.56C1037.48 567.56 1036.78 567.752 1036.17 568.136C1035.56 568.504 1035.08 569.024 1034.73 569.696C1034.38 570.368 1034.2 571.152 1034.2 572.048C1034.2 572.944 1034.38 573.728 1034.73 574.4C1035.08 575.072 1035.56 575.6 1036.17 575.984C1036.78 576.352 1037.48 576.536 1038.28 576.536ZM1051.17 578.288C1050.18 578.288 1049.35 578.12 1048.7 577.784C1048.04 577.448 1047.55 577 1047.23 576.44C1046.91 575.88 1046.75 575.272 1046.75 574.616C1046.75 573.4 1047.22 572.464 1048.15 571.808C1049.07 571.152 1050.34 570.824 1051.94 570.824H1055.15V570.68C1055.15 569.64 1054.88 568.856 1054.34 568.328C1053.79 567.784 1053.07 567.512 1052.15 567.512C1051.37 567.512 1050.69 567.712 1050.11 568.112C1049.55 568.496 1049.2 569.064 1049.06 569.816H1046.99C1047.07 568.952 1047.36 568.224 1047.86 567.632C1048.37 567.04 1049 566.592 1049.75 566.288C1050.51 565.968 1051.31 565.808 1052.15 565.808C1053.82 565.808 1055.07 566.256 1055.9 567.152C1056.75 568.032 1057.17 569.208 1057.17 570.68V578H1055.37L1055.25 575.864C1054.91 576.536 1054.42 577.112 1053.76 577.592C1053.12 578.056 1052.26 578.288 1051.17 578.288ZM1051.48 576.584C1052.25 576.584 1052.91 576.384 1053.45 575.984C1054.01 575.584 1054.43 575.064 1054.72 574.424C1055.01 573.784 1055.15 573.112 1055.15 572.408V572.384H1052.11C1050.92 572.384 1050.08 572.592 1049.59 573.008C1049.11 573.408 1048.87 573.912 1048.87 574.52C1048.87 575.144 1049.09 575.648 1049.54 576.032C1050 576.4 1050.65 576.584 1051.48 576.584ZM1060.2 578V560.72H1062.21V578H1060.2ZM1070.87 578.288C1069.73 578.288 1068.72 578.032 1067.84 577.52C1066.96 576.992 1066.27 576.264 1065.76 575.336C1065.26 574.408 1065.01 573.312 1065.01 572.048C1065.01 570.8 1065.26 569.712 1065.76 568.784C1066.25 567.84 1066.94 567.112 1067.82 566.6C1068.72 566.072 1069.75 565.808 1070.92 565.808C1072.07 565.808 1073.06 566.072 1073.89 566.6C1074.74 567.112 1075.39 567.792 1075.84 568.64C1076.28 569.488 1076.51 570.4 1076.51 571.376C1076.51 571.552 1076.5 571.728 1076.48 571.904C1076.48 572.08 1076.48 572.28 1076.48 572.504H1067C1067.05 573.416 1067.26 574.176 1067.63 574.784C1068.01 575.376 1068.48 575.824 1069.04 576.128C1069.62 576.432 1070.23 576.584 1070.87 576.584C1071.7 576.584 1072.4 576.392 1072.96 576.008C1073.52 575.624 1073.92 575.104 1074.18 574.448H1076.17C1075.85 575.552 1075.24 576.472 1074.32 577.208C1073.43 577.928 1072.28 578.288 1070.87 578.288ZM1070.87 567.512C1069.91 567.512 1069.05 567.808 1068.3 568.4C1067.56 568.976 1067.14 569.824 1067.03 570.944H1074.52C1074.47 569.872 1074.1 569.032 1073.41 568.424C1072.72 567.816 1071.88 567.512 1070.87 567.512ZM1083.49 578C1082.4 578 1081.54 577.736 1080.92 577.208C1080.29 576.68 1079.98 575.728 1079.98 574.352V567.8H1077.92V566.096H1079.98L1080.25 563.24H1082V566.096H1085.5V567.8H1082V574.352C1082 575.104 1082.15 575.616 1082.45 575.888C1082.76 576.144 1083.29 576.272 1084.06 576.272H1085.31V578H1083.49ZM1092.77 578C1091.68 578 1090.82 577.736 1090.2 577.208C1089.57 576.68 1089.26 575.728 1089.26 574.352V567.8H1087.2V566.096H1089.26L1089.53 563.24H1091.28V566.096H1094.78V567.8H1091.28V574.352C1091.28 575.104 1091.43 575.616 1091.73 575.888C1092.04 576.144 1092.57 576.272 1093.34 576.272H1094.59V578H1092.77ZM1102.37 578.288C1101.23 578.288 1100.22 578.032 1099.34 577.52C1098.46 576.992 1097.77 576.264 1097.26 575.336C1096.76 574.408 1096.51 573.312 1096.51 572.048C1096.51 570.8 1096.76 569.712 1097.26 568.784C1097.75 567.84 1098.44 567.112 1099.32 566.6C1100.22 566.072 1101.25 565.808 1102.42 565.808C1103.57 565.808 1104.56 566.072 1105.39 566.6C1106.24 567.112 1106.89 567.792 1107.34 568.64C1107.78 569.488 1108.01 570.4 1108.01 571.376C1108.01 571.552 1108 571.728 1107.98 571.904C1107.98 572.08 1107.98 572.28 1107.98 572.504H1098.5C1098.55 573.416 1098.76 574.176 1099.13 574.784C1099.51 575.376 1099.98 575.824 1100.54 576.128C1101.12 576.432 1101.73 576.584 1102.37 576.584C1103.2 576.584 1103.9 576.392 1104.46 576.008C1105.02 575.624 1105.42 575.104 1105.68 574.448H1107.67C1107.35 575.552 1106.74 576.472 1105.82 577.208C1104.93 577.928 1103.78 578.288 1102.37 578.288ZM1102.37 567.512C1101.41 567.512 1100.55 567.808 1099.8 568.4C1099.06 568.976 1098.64 569.824 1098.53 570.944H1106.02C1105.97 569.872 1105.6 569.032 1104.91 568.424C1104.22 567.816 1103.38 567.512 1102.37 567.512Z" fill="#666D89"/>
<path d="M969.656 735V717.72H971.672V735H969.656ZM976.2 720.456C975.8 720.456 975.464 720.328 975.192 720.072C974.936 719.8 974.808 719.464 974.808 719.064C974.808 718.68 974.936 718.36 975.192 718.104C975.464 717.848 975.8 717.72 976.2 717.72C976.584 717.72 976.912 717.848 977.184 718.104C977.456 718.36 977.592 718.68 977.592 719.064C977.592 719.464 977.456 719.8 977.184 720.072C976.912 720.328 976.584 720.456 976.2 720.456ZM975.192 735V723.096H977.208V735H975.192ZM987.079 735.288C986.103 735.288 985.231 735.088 984.463 734.688C983.711 734.288 983.135 733.728 982.735 733.008L982.543 735H980.719V717.72H982.735V725.064C983.119 724.488 983.663 723.968 984.367 723.504C985.087 723.04 985.999 722.808 987.103 722.808C988.287 722.808 989.319 723.08 990.199 723.624C991.079 724.168 991.759 724.912 992.239 725.856C992.735 726.8 992.983 727.872 992.983 729.072C992.983 730.272 992.735 731.344 992.239 732.288C991.759 733.216 991.071 733.952 990.175 734.496C989.295 735.024 988.263 735.288 987.079 735.288ZM986.863 733.536C987.663 733.536 988.367 733.352 988.975 732.984C989.583 732.6 990.063 732.072 990.415 731.4C990.767 730.728 990.943 729.944 990.943 729.048C990.943 728.152 990.767 727.368 990.415 726.696C990.063 726.024 989.583 725.504 988.975 725.136C988.367 724.752 987.663 724.56 986.863 724.56C986.063 724.56 985.359 724.752 984.751 725.136C984.143 725.504 983.663 726.024 983.311 726.696C982.959 727.368 982.783 728.152 982.783 729.048C982.783 729.944 982.959 730.728 983.311 731.4C983.663 732.072 984.143 732.6 984.751 732.984C985.359 733.352 986.063 733.536 986.863 733.536ZM995.789 735V723.096H997.613L997.781 725.376C998.149 724.592 998.709 723.968 999.461 723.504C1000.21 723.04 1001.14 722.808 1002.24 722.808V724.92H1001.69C1000.99 724.92 1000.34 725.048 999.749 725.304C999.157 725.544 998.685 725.96 998.333 726.552C997.981 727.144 997.805 727.96 997.805 729V735H995.789ZM1008.47 735.288C1007.48 735.288 1006.65 735.12 1006 734.784C1005.34 734.448 1004.85 734 1004.53 733.44C1004.21 732.88 1004.05 732.272 1004.05 731.616C1004.05 730.4 1004.52 729.464 1005.44 728.808C1006.37 728.152 1007.64 727.824 1009.24 727.824H1012.45V727.68C1012.45 726.64 1012.18 725.856 1011.64 725.328C1011.09 724.784 1010.36 724.512 1009.45 724.512C1008.67 724.512 1007.99 724.712 1007.41 725.112C1006.85 725.496 1006.5 726.064 1006.36 726.816H1004.29C1004.37 725.952 1004.66 725.224 1005.16 724.632C1005.67 724.04 1006.3 723.592 1007.05 723.288C1007.8 722.968 1008.6 722.808 1009.45 722.808C1011.12 722.808 1012.36 723.256 1013.2 724.152C1014.04 725.032 1014.47 726.208 1014.47 727.68V735H1012.67L1012.55 732.864C1012.21 733.536 1011.72 734.112 1011.06 734.592C1010.42 735.056 1009.56 735.288 1008.47 735.288ZM1008.78 733.584C1009.55 733.584 1010.2 733.384 1010.75 732.984C1011.31 732.584 1011.73 732.064 1012.02 731.424C1012.31 730.784 1012.45 730.112 1012.45 729.408V729.384H1009.4C1008.22 729.384 1007.38 729.592 1006.88 730.008C1006.4 730.408 1006.16 730.912 1006.16 731.52C1006.16 732.144 1006.39 732.648 1006.84 733.032C1007.3 733.4 1007.95 733.584 1008.78 733.584ZM1017.49 735V723.096H1019.32L1019.48 725.376C1019.85 724.592 1020.41 723.968 1021.16 723.504C1021.92 723.04 1022.84 722.808 1023.95 722.808V724.92H1023.4C1022.69 724.92 1022.04 725.048 1021.45 725.304C1020.86 725.544 1020.39 725.96 1020.04 726.552C1019.68 727.144 1019.51 727.96 1019.51 729V735H1017.49ZM1027.43 720.456C1027.03 720.456 1026.7 720.328 1026.43 720.072C1026.17 719.8 1026.04 719.464 1026.04 719.064C1026.04 718.68 1026.17 718.36 1026.43 718.104C1026.7 717.848 1027.03 717.72 1027.43 717.72C1027.82 717.72 1028.15 717.848 1028.42 718.104C1028.69 718.36 1028.83 718.68 1028.83 719.064C1028.83 719.464 1028.69 719.8 1028.42 720.072C1028.15 720.328 1027.82 720.456 1027.43 720.456ZM1026.43 735V723.096H1028.44V735H1026.43ZM1037.3 735.288C1036.17 735.288 1035.16 735.032 1034.28 734.52C1033.4 733.992 1032.7 733.264 1032.19 732.336C1031.7 731.408 1031.45 730.312 1031.45 729.048C1031.45 727.8 1031.7 726.712 1032.19 725.784C1032.69 724.84 1033.38 724.112 1034.26 723.6C1035.15 723.072 1036.18 722.808 1037.35 722.808C1038.5 722.808 1039.5 723.072 1040.33 723.6C1041.18 724.112 1041.82 724.792 1042.27 725.64C1042.72 726.488 1042.94 727.4 1042.94 728.376C1042.94 728.552 1042.94 728.728 1042.92 728.904C1042.92 729.08 1042.92 729.28 1042.92 729.504H1033.44C1033.49 730.416 1033.7 731.176 1034.06 731.784C1034.45 732.376 1034.92 732.824 1035.48 733.128C1036.06 733.432 1036.66 733.584 1037.3 733.584C1038.14 733.584 1038.83 733.392 1039.39 733.008C1039.95 732.624 1040.36 732.104 1040.62 731.448H1042.61C1042.29 732.552 1041.67 733.472 1040.76 734.208C1039.86 734.928 1038.71 735.288 1037.3 735.288ZM1037.3 724.512C1036.34 724.512 1035.49 724.808 1034.74 725.4C1034 725.976 1033.58 726.824 1033.46 727.944H1040.95C1040.9 726.872 1040.54 726.032 1039.85 725.424C1039.16 724.816 1038.31 724.512 1037.3 724.512ZM1050.18 735.288C1048.75 735.288 1047.57 734.928 1046.62 734.208C1045.68 733.488 1045.13 732.512 1044.97 731.28H1047.03C1047.16 731.904 1047.49 732.448 1048.02 732.912C1048.56 733.36 1049.29 733.584 1050.2 733.584C1051.05 733.584 1051.67 733.408 1052.07 733.056C1052.47 732.688 1052.67 732.256 1052.67 731.76C1052.67 731.04 1052.41 730.56 1051.88 730.32C1051.37 730.08 1050.64 729.864 1049.7 729.672C1049.06 729.544 1048.42 729.36 1047.78 729.12C1047.14 728.88 1046.6 728.544 1046.17 728.112C1045.74 727.664 1045.52 727.08 1045.52 726.36C1045.52 725.32 1045.9 724.472 1046.67 723.816C1047.46 723.144 1048.51 722.808 1049.84 722.808C1051.1 722.808 1052.14 723.128 1052.94 723.768C1053.75 724.392 1054.22 725.288 1054.35 726.456H1052.36C1052.28 725.848 1052.02 725.376 1051.57 725.04C1051.14 724.688 1050.55 724.512 1049.82 724.512C1049.1 724.512 1048.54 724.664 1048.14 724.968C1047.75 725.272 1047.56 725.672 1047.56 726.168C1047.56 726.648 1047.81 727.024 1048.3 727.296C1048.82 727.568 1049.5 727.8 1050.37 727.992C1051.1 728.152 1051.8 728.352 1052.46 728.592C1053.13 728.816 1053.67 729.16 1054.09 729.624C1054.52 730.072 1054.74 730.728 1054.74 731.592C1054.75 732.664 1054.34 733.552 1053.51 734.256C1052.7 734.944 1051.58 735.288 1050.18 735.288ZM1069.06 735.288C1067.9 735.288 1066.89 735.08 1066.01 734.664C1065.14 734.232 1064.46 733.64 1063.97 732.888C1063.49 732.12 1063.25 731.216 1063.25 730.176C1063.25 729.04 1063.58 728.032 1064.23 727.152C1064.9 726.256 1065.87 725.552 1067.14 725.04C1066.59 724.448 1066.2 723.888 1065.96 723.36C1065.72 722.816 1065.6 722.232 1065.6 721.608C1065.6 720.536 1065.98 719.656 1066.73 718.968C1067.5 718.264 1068.54 717.912 1069.87 717.912C1070.74 717.912 1071.49 718.08 1072.13 718.416C1072.77 718.736 1073.26 719.184 1073.62 719.76C1073.97 720.336 1074.13 720.992 1074.1 721.728H1072.1C1072.12 721.008 1071.9 720.464 1071.43 720.096C1070.98 719.728 1070.46 719.544 1069.87 719.544C1069.15 719.544 1068.59 719.736 1068.19 720.12C1067.79 720.504 1067.59 720.992 1067.59 721.584C1067.59 722.096 1067.73 722.592 1068 723.072C1068.29 723.552 1068.71 724.088 1069.27 724.68L1074.58 730.032C1075.04 729.36 1075.54 728.552 1076.09 727.608L1076.83 726.312H1078.97L1077.91 728.184C1077.21 729.448 1076.54 730.504 1075.9 731.352L1079.52 735H1076.98L1074.74 732.744C1073.9 733.656 1073.02 734.312 1072.1 734.712C1071.19 735.096 1070.18 735.288 1069.06 735.288ZM1065.26 730.104C1065.26 731.096 1065.62 731.92 1066.32 732.576C1067.02 733.232 1067.94 733.56 1069.08 733.56C1069.93 733.56 1070.7 733.4 1071.38 733.08C1072.09 732.744 1072.78 732.2 1073.45 731.448L1068.36 726.288C1067.3 726.704 1066.52 727.232 1066.01 727.872C1065.51 728.512 1065.26 729.256 1065.26 730.104ZM1088.55 735V724.8H1086.75V723.096H1088.55V721.032C1088.55 719.88 1088.83 719.04 1089.41 718.512C1089.99 717.984 1090.83 717.72 1091.93 717.72H1093.13V719.448H1092.24C1091.63 719.448 1091.2 719.576 1090.95 719.832C1090.69 720.072 1090.56 720.488 1090.56 721.08V723.096H1093.49V724.8H1090.56V735H1088.55ZM1095.89 735V723.096H1097.71L1097.88 725.376C1098.25 724.592 1098.81 723.968 1099.56 723.504C1100.31 723.04 1101.24 722.808 1102.35 722.808V724.92H1101.79C1101.09 724.92 1100.44 725.048 1099.85 725.304C1099.26 725.544 1098.79 725.96 1098.43 726.552C1098.08 727.144 1097.91 727.96 1097.91 729V735H1095.89ZM1108.57 735.288C1107.58 735.288 1106.75 735.12 1106.1 734.784C1105.44 734.448 1104.95 734 1104.63 733.44C1104.31 732.88 1104.15 732.272 1104.15 731.616C1104.15 730.4 1104.62 729.464 1105.55 728.808C1106.47 728.152 1107.74 727.824 1109.34 727.824H1112.55V727.68C1112.55 726.64 1112.28 725.856 1111.74 725.328C1111.19 724.784 1110.47 724.512 1109.55 724.512C1108.77 724.512 1108.09 724.712 1107.51 725.112C1106.95 725.496 1106.6 726.064 1106.46 726.816H1104.39C1104.47 725.952 1104.76 725.224 1105.26 724.632C1105.77 724.04 1106.4 723.592 1107.15 723.288C1107.91 722.968 1108.71 722.808 1109.55 722.808C1111.22 722.808 1112.47 723.256 1113.3 724.152C1114.15 725.032 1114.57 726.208 1114.57 727.68V735H1112.77L1112.65 732.864C1112.31 733.536 1111.82 734.112 1111.16 734.592C1110.52 735.056 1109.66 735.288 1108.57 735.288ZM1108.88 733.584C1109.65 733.584 1110.31 733.384 1110.85 732.984C1111.41 732.584 1111.83 732.064 1112.12 731.424C1112.41 730.784 1112.55 730.112 1112.55 729.408V729.384H1109.51C1108.32 729.384 1107.48 729.592 1106.99 730.008C1106.51 730.408 1106.27 730.912 1106.27 731.52C1106.27 732.144 1106.49 732.648 1106.94 733.032C1107.4 733.4 1108.05 733.584 1108.88 733.584ZM1117.59 735V723.096H1119.42L1119.56 724.824C1119.95 724.184 1120.46 723.688 1121.1 723.336C1121.74 722.984 1122.46 722.808 1123.26 722.808C1124.2 722.808 1125.01 723 1125.68 723.384C1126.37 723.768 1126.9 724.352 1127.27 725.136C1127.68 724.416 1128.25 723.848 1128.97 723.432C1129.71 723.016 1130.5 722.808 1131.35 722.808C1132.77 722.808 1133.91 723.24 1134.75 724.104C1135.6 724.952 1136.03 726.264 1136.03 728.04V735H1134.03V728.256C1134.03 727.024 1133.79 726.096 1133.29 725.472C1132.79 724.848 1132.08 724.536 1131.15 724.536C1130.19 724.536 1129.39 724.912 1128.75 725.664C1128.13 726.4 1127.82 727.456 1127.82 728.832V735H1125.8V728.256C1125.8 727.024 1125.55 726.096 1125.06 725.472C1124.56 724.848 1123.85 724.536 1122.92 724.536C1121.98 724.536 1121.19 724.912 1120.55 725.664C1119.92 726.4 1119.61 727.456 1119.61 728.832V735H1117.59ZM1144.41 735.288C1143.28 735.288 1142.27 735.032 1141.39 734.52C1140.51 733.992 1139.81 733.264 1139.3 732.336C1138.81 731.408 1138.56 730.312 1138.56 729.048C1138.56 727.8 1138.81 726.712 1139.3 725.784C1139.8 724.84 1140.49 724.112 1141.37 723.6C1142.26 723.072 1143.29 722.808 1144.46 722.808C1145.61 722.808 1146.61 723.072 1147.44 723.6C1148.29 724.112 1148.93 724.792 1149.38 725.64C1149.83 726.488 1150.05 727.4 1150.05 728.376C1150.05 728.552 1150.05 728.728 1150.03 728.904C1150.03 729.08 1150.03 729.28 1150.03 729.504H1140.55C1140.6 730.416 1140.81 731.176 1141.17 731.784C1141.56 732.376 1142.03 732.824 1142.59 733.128C1143.17 733.432 1143.77 733.584 1144.41 733.584C1145.25 733.584 1145.94 733.392 1146.5 733.008C1147.06 732.624 1147.47 732.104 1147.73 731.448H1149.72C1149.4 732.552 1148.78 733.472 1147.87 734.208C1146.97 734.928 1145.82 735.288 1144.41 735.288ZM1144.41 724.512C1143.45 724.512 1142.6 724.808 1141.85 725.4C1141.11 725.976 1140.69 726.824 1140.57 727.944H1148.06C1148.01 726.872 1147.65 726.032 1146.96 725.424C1146.27 724.816 1145.42 724.512 1144.41 724.512ZM1154.66 735L1151.18 723.096H1153.19L1155.71 732.432L1158.5 723.096H1160.78L1163.59 732.432L1166.08 723.096H1168.12L1164.64 735H1162.58L1159.65 725.184L1156.72 735H1154.66ZM1175.33 735.288C1174.21 735.288 1173.2 735.032 1172.31 734.52C1171.41 734.008 1170.7 733.288 1170.17 732.36C1169.66 731.416 1169.4 730.312 1169.4 729.048C1169.4 727.784 1169.67 726.688 1170.19 725.76C1170.72 724.816 1171.43 724.088 1172.33 723.576C1173.24 723.064 1174.26 722.808 1175.38 722.808C1176.5 722.808 1177.51 723.064 1178.4 723.576C1179.3 724.088 1180 724.816 1180.51 725.76C1181.04 726.688 1181.31 727.784 1181.31 729.048C1181.31 730.312 1181.04 731.416 1180.51 732.36C1179.99 733.288 1179.27 734.008 1178.35 734.52C1177.46 735.032 1176.45 735.288 1175.33 735.288ZM1175.33 733.56C1176.02 733.56 1176.66 733.392 1177.25 733.056C1177.84 732.72 1178.32 732.216 1178.69 731.544C1179.06 730.872 1179.24 730.04 1179.24 729.048C1179.24 728.056 1179.06 727.224 1178.69 726.552C1178.34 725.88 1177.87 725.376 1177.27 725.04C1176.68 724.704 1176.05 724.536 1175.38 724.536C1174.69 724.536 1174.05 724.704 1173.46 725.04C1172.87 725.376 1172.39 725.88 1172.02 726.552C1171.65 727.224 1171.47 728.056 1171.47 729.048C1171.47 730.04 1171.65 730.872 1172.02 731.544C1172.39 732.216 1172.86 732.72 1173.43 733.056C1174.03 733.392 1174.66 733.56 1175.33 733.56ZM1184.11 735V723.096H1185.93L1186.1 725.376C1186.47 724.592 1187.03 723.968 1187.78 723.504C1188.53 723.04 1189.46 722.808 1190.57 722.808V724.92H1190.01C1189.31 724.92 1188.66 725.048 1188.07 725.304C1187.48 725.544 1187.01 725.96 1186.65 726.552C1186.3 727.144 1186.13 727.96 1186.13 729V735H1184.11ZM1192.83 735V717.72H1194.84V728.112L1199.72 723.096H1202.19L1196.91 728.472L1202.86 735H1200.29L1194.84 728.832V735H1192.83ZM1208.78 735.288C1207.35 735.288 1206.17 734.928 1205.23 734.208C1204.28 733.488 1203.73 732.512 1203.57 731.28H1205.63C1205.76 731.904 1206.09 732.448 1206.62 732.912C1207.16 733.36 1207.89 733.584 1208.8 733.584C1209.65 733.584 1210.27 733.408 1210.67 733.056C1211.07 732.688 1211.27 732.256 1211.27 731.76C1211.27 731.04 1211.01 730.56 1210.48 730.32C1209.97 730.08 1209.24 729.864 1208.3 729.672C1207.66 729.544 1207.02 729.36 1206.38 729.12C1205.74 728.88 1205.2 728.544 1204.77 728.112C1204.34 727.664 1204.12 727.08 1204.12 726.36C1204.12 725.32 1204.51 724.472 1205.27 723.816C1206.06 723.144 1207.11 722.808 1208.44 722.808C1209.71 722.808 1210.74 723.128 1211.54 723.768C1212.35 724.392 1212.83 725.288 1212.95 726.456H1210.96C1210.88 725.848 1210.62 725.376 1210.17 725.04C1209.74 724.688 1209.15 724.512 1208.42 724.512C1207.7 724.512 1207.14 724.664 1206.74 724.968C1206.35 725.272 1206.16 725.672 1206.16 726.168C1206.16 726.648 1206.41 727.024 1206.91 727.296C1207.42 727.568 1208.11 727.8 1208.97 727.992C1209.71 728.152 1210.4 728.352 1211.06 728.592C1211.73 728.816 1212.27 729.16 1212.69 729.624C1213.12 730.072 1213.34 730.728 1213.34 731.592C1213.35 732.664 1212.95 733.552 1212.11 734.256C1211.3 734.944 1210.19 735.288 1208.78 735.288Z" fill="#666D89"/>
<path d="M975.128 457.288C973.992 457.288 972.968 457.032 972.056 456.52C971.16 455.992 970.448 455.264 969.92 454.336C969.408 453.392 969.152 452.296 969.152 451.048C969.152 449.8 969.408 448.712 969.92 447.784C970.448 446.84 971.16 446.112 972.056 445.6C972.968 445.072 973.992 444.808 975.128 444.808C976.536 444.808 977.72 445.176 978.68 445.912C979.656 446.648 980.272 447.632 980.528 448.864H978.464C978.304 448.128 977.912 447.56 977.288 447.16C976.664 446.744 975.936 446.536 975.104 446.536C974.432 446.536 973.8 446.704 973.208 447.04C972.616 447.376 972.136 447.88 971.768 448.552C971.4 449.224 971.216 450.056 971.216 451.048C971.216 452.04 971.4 452.872 971.768 453.544C972.136 454.216 972.616 454.728 973.208 455.08C973.8 455.416 974.432 455.584 975.104 455.584C975.936 455.584 976.664 455.384 977.288 454.984C977.912 454.568 978.304 453.984 978.464 453.232H980.528C980.288 454.432 979.68 455.408 978.704 456.16C977.728 456.912 976.536 457.288 975.128 457.288ZM988.768 457.288C987.648 457.288 986.64 457.032 985.744 456.52C984.848 456.008 984.136 455.288 983.608 454.36C983.096 453.416 982.84 452.312 982.84 451.048C982.84 449.784 983.104 448.688 983.632 447.76C984.16 446.816 984.872 446.088 985.768 445.576C986.68 445.064 987.696 444.808 988.816 444.808C989.936 444.808 990.944 445.064 991.84 445.576C992.736 446.088 993.44 446.816 993.952 447.76C994.48 448.688 994.744 449.784 994.744 451.048C994.744 452.312 994.48 453.416 993.952 454.36C993.424 455.288 992.704 456.008 991.792 456.52C990.896 457.032 989.888 457.288 988.768 457.288ZM988.768 455.56C989.456 455.56 990.096 455.392 990.688 455.056C991.28 454.72 991.76 454.216 992.128 453.544C992.496 452.872 992.68 452.04 992.68 451.048C992.68 450.056 992.496 449.224 992.128 448.552C991.776 447.88 991.304 447.376 990.712 447.04C990.12 446.704 989.488 446.536 988.816 446.536C988.128 446.536 987.488 446.704 986.896 447.04C986.304 447.376 985.824 447.88 985.456 448.552C985.088 449.224 984.904 450.056 984.904 451.048C984.904 452.04 985.088 452.872 985.456 453.544C985.824 454.216 986.296 454.72 986.872 455.056C987.464 455.392 988.096 455.56 988.768 455.56ZM997.547 457V445.096H999.371L999.491 447.232C999.875 446.48 1000.43 445.888 1001.15 445.456C1001.87 445.024 1002.68 444.808 1003.59 444.808C1005 444.808 1006.12 445.24 1006.95 446.104C1007.8 446.952 1008.23 448.264 1008.23 450.04V457H1006.21V450.256C1006.21 447.776 1005.19 446.536 1003.14 446.536C1002.11 446.536 1001.26 446.912 1000.57 447.664C999.899 448.4 999.563 449.456 999.563 450.832V457H997.547ZM1016.75 457.288C1015.62 457.288 1014.59 457.032 1013.68 456.52C1012.79 455.992 1012.07 455.264 1011.55 454.336C1011.03 453.392 1010.78 452.296 1010.78 451.048C1010.78 449.8 1011.03 448.712 1011.55 447.784C1012.07 446.84 1012.79 446.112 1013.68 445.6C1014.59 445.072 1015.62 444.808 1016.75 444.808C1018.16 444.808 1019.35 445.176 1020.31 445.912C1021.28 446.648 1021.9 447.632 1022.15 448.864H1020.09C1019.93 448.128 1019.54 447.56 1018.91 447.16C1018.29 446.744 1017.56 446.536 1016.73 446.536C1016.06 446.536 1015.43 446.704 1014.83 447.04C1014.24 447.376 1013.76 447.88 1013.39 448.552C1013.03 449.224 1012.84 450.056 1012.84 451.048C1012.84 452.04 1013.03 452.872 1013.39 453.544C1013.76 454.216 1014.24 454.728 1014.83 455.08C1015.43 455.416 1016.06 455.584 1016.73 455.584C1017.56 455.584 1018.29 455.384 1018.91 454.984C1019.54 454.568 1019.93 453.984 1020.09 453.232H1022.15C1021.91 454.432 1021.31 455.408 1020.33 456.16C1019.35 456.912 1018.16 457.288 1016.75 457.288ZM1024.97 457V439.72H1026.98V457H1024.97ZM1034.63 457.288C1033.22 457.288 1032.1 456.864 1031.27 456.016C1030.44 455.152 1030.02 453.832 1030.02 452.056V445.096H1032.04V451.84C1032.04 454.32 1033.06 455.56 1035.09 455.56C1036.13 455.56 1036.98 455.192 1037.66 454.456C1038.34 453.704 1038.69 452.64 1038.69 451.264V445.096H1040.7V457H1038.88L1038.74 454.864C1038.37 455.616 1037.82 456.208 1037.08 456.64C1036.36 457.072 1035.54 457.288 1034.63 457.288ZM1048.58 457.288C1047.16 457.288 1045.98 456.928 1045.03 456.208C1044.09 455.488 1043.54 454.512 1043.38 453.28H1045.44C1045.57 453.904 1045.9 454.448 1046.42 454.912C1046.97 455.36 1047.7 455.584 1048.61 455.584C1049.46 455.584 1050.08 455.408 1050.48 455.056C1050.88 454.688 1051.08 454.256 1051.08 453.76C1051.08 453.04 1050.82 452.56 1050.29 452.32C1049.78 452.08 1049.05 451.864 1048.1 451.672C1047.46 451.544 1046.82 451.36 1046.18 451.12C1045.54 450.88 1045.01 450.544 1044.58 450.112C1044.14 449.664 1043.93 449.08 1043.93 448.36C1043.93 447.32 1044.31 446.472 1045.08 445.816C1045.86 445.144 1046.92 444.808 1048.25 444.808C1049.51 444.808 1050.54 445.128 1051.34 445.768C1052.16 446.392 1052.63 447.288 1052.76 448.456H1050.77C1050.69 447.848 1050.42 447.376 1049.98 447.04C1049.54 446.688 1048.96 446.512 1048.22 446.512C1047.5 446.512 1046.94 446.664 1046.54 446.968C1046.16 447.272 1045.97 447.672 1045.97 448.168C1045.97 448.648 1046.22 449.024 1046.71 449.296C1047.22 449.568 1047.91 449.8 1048.78 449.992C1049.51 450.152 1050.21 450.352 1050.86 450.592C1051.54 450.816 1052.08 451.16 1052.5 451.624C1052.93 452.072 1053.14 452.728 1053.14 453.592C1053.16 454.664 1052.75 455.552 1051.92 456.256C1051.1 456.944 1049.99 457.288 1048.58 457.288ZM1057.25 442.456C1056.85 442.456 1056.51 442.328 1056.24 442.072C1055.98 441.8 1055.86 441.464 1055.86 441.064C1055.86 440.68 1055.98 440.36 1056.24 440.104C1056.51 439.848 1056.85 439.72 1057.25 439.72C1057.63 439.72 1057.96 439.848 1058.23 440.104C1058.5 440.36 1058.64 440.68 1058.64 441.064C1058.64 441.464 1058.5 441.8 1058.23 442.072C1057.96 442.328 1057.63 442.456 1057.25 442.456ZM1056.24 457V445.096H1058.26V457H1056.24ZM1067.19 457.288C1066.07 457.288 1065.06 457.032 1064.17 456.52C1063.27 456.008 1062.56 455.288 1062.03 454.36C1061.52 453.416 1061.26 452.312 1061.26 451.048C1061.26 449.784 1061.53 448.688 1062.05 447.76C1062.58 446.816 1063.29 446.088 1064.19 445.576C1065.1 445.064 1066.12 444.808 1067.24 444.808C1068.36 444.808 1069.37 445.064 1070.26 445.576C1071.16 446.088 1071.86 446.816 1072.37 447.76C1072.9 448.688 1073.17 449.784 1073.17 451.048C1073.17 452.312 1072.9 453.416 1072.37 454.36C1071.85 455.288 1071.13 456.008 1070.21 456.52C1069.32 457.032 1068.31 457.288 1067.19 457.288ZM1067.19 455.56C1067.88 455.56 1068.52 455.392 1069.11 455.056C1069.7 454.72 1070.18 454.216 1070.55 453.544C1070.92 452.872 1071.1 452.04 1071.1 451.048C1071.1 450.056 1070.92 449.224 1070.55 448.552C1070.2 447.88 1069.73 447.376 1069.13 447.04C1068.54 446.704 1067.91 446.536 1067.24 446.536C1066.55 446.536 1065.91 446.704 1065.32 447.04C1064.73 447.376 1064.25 447.88 1063.88 448.552C1063.51 449.224 1063.33 450.056 1063.33 451.048C1063.33 452.04 1063.51 452.872 1063.88 453.544C1064.25 454.216 1064.72 454.72 1065.29 455.056C1065.89 455.392 1066.52 455.56 1067.19 455.56ZM1075.97 457V445.096H1077.79L1077.91 447.232C1078.3 446.48 1078.85 445.888 1079.57 445.456C1080.29 445.024 1081.1 444.808 1082.02 444.808C1083.42 444.808 1084.54 445.24 1085.38 446.104C1086.22 446.952 1086.65 448.264 1086.65 450.04V457H1084.63V450.256C1084.63 447.776 1083.61 446.536 1081.56 446.536C1080.54 446.536 1079.68 446.912 1078.99 447.664C1078.32 448.4 1077.98 449.456 1077.98 450.832V457H1075.97Z" fill="#666D89"/>
<path d="M974.36 614C973.272 614 972.416 613.736 971.792 613.208C971.168 612.68 970.856 611.728 970.856 610.352V603.8H968.792V602.096H970.856L971.12 599.24H972.872V602.096H976.376V603.8H972.872V610.352C972.872 611.104 973.024 611.616 973.328 611.888C973.632 612.144 974.168 612.272 974.936 612.272H976.184V614H974.36ZM980.233 619.28L983.185 612.848H982.489L977.761 602.096H979.945L983.881 611.36L988.057 602.096H990.145L982.345 619.28H980.233ZM992.273 619.28V602.096H994.097L994.289 604.064C994.673 603.488 995.217 602.968 995.921 602.504C996.641 602.04 997.553 601.808 998.657 601.808C999.841 601.808 1000.87 602.08 1001.75 602.624C1002.63 603.168 1003.31 603.912 1003.79 604.856C1004.29 605.8 1004.54 606.872 1004.54 608.072C1004.54 609.272 1004.29 610.344 1003.79 611.288C1003.31 612.216 1002.63 612.952 1001.73 613.496C1000.85 614.024 999.817 614.288 998.633 614.288C997.657 614.288 996.785 614.088 996.017 613.688C995.265 613.288 994.689 612.728 994.289 612.008V619.28H992.273ZM998.417 612.536C999.217 612.536 999.921 612.352 1000.53 611.984C1001.14 611.6 1001.62 611.072 1001.97 610.4C1002.32 609.728 1002.5 608.944 1002.5 608.048C1002.5 607.152 1002.32 606.368 1001.97 605.696C1001.62 605.024 1001.14 604.504 1000.53 604.136C999.921 603.752 999.217 603.56 998.417 603.56C997.617 603.56 996.913 603.752 996.305 604.136C995.697 604.504 995.217 605.024 994.865 605.696C994.513 606.368 994.337 607.152 994.337 608.048C994.337 608.944 994.513 609.728 994.865 610.4C995.217 611.072 995.697 611.6 996.305 611.984C996.913 612.352 997.617 612.536 998.417 612.536ZM1012.77 614.288C1011.65 614.288 1010.64 614.032 1009.74 613.52C1008.85 613.008 1008.14 612.288 1007.61 611.36C1007.1 610.416 1006.84 609.312 1006.84 608.048C1006.84 606.784 1007.1 605.688 1007.63 604.76C1008.16 603.816 1008.87 603.088 1009.77 602.576C1010.68 602.064 1011.7 601.808 1012.82 601.808C1013.94 601.808 1014.94 602.064 1015.84 602.576C1016.74 603.088 1017.44 603.816 1017.95 604.76C1018.48 605.688 1018.74 606.784 1018.74 608.048C1018.74 609.312 1018.48 610.416 1017.95 611.36C1017.42 612.288 1016.7 613.008 1015.79 613.52C1014.9 614.032 1013.89 614.288 1012.77 614.288ZM1012.77 612.56C1013.46 612.56 1014.1 612.392 1014.69 612.056C1015.28 611.72 1015.76 611.216 1016.13 610.544C1016.5 609.872 1016.68 609.04 1016.68 608.048C1016.68 607.056 1016.5 606.224 1016.13 605.552C1015.78 604.88 1015.3 604.376 1014.71 604.04C1014.12 603.704 1013.49 603.536 1012.82 603.536C1012.13 603.536 1011.49 603.704 1010.9 604.04C1010.3 604.376 1009.82 604.88 1009.46 605.552C1009.09 606.224 1008.9 607.056 1008.9 608.048C1008.9 609.04 1009.09 609.872 1009.46 610.544C1009.82 611.216 1010.3 611.72 1010.87 612.056C1011.46 612.392 1012.1 612.56 1012.77 612.56ZM1025.74 610.256C1025.06 610.256 1024.45 610.168 1023.89 609.992L1022.69 611.12C1022.86 611.248 1023.08 611.36 1023.34 611.456C1023.61 611.536 1023.99 611.616 1024.49 611.696C1024.98 611.76 1025.68 611.832 1026.58 611.912C1028.18 612.024 1029.32 612.392 1030.01 613.016C1030.7 613.64 1031.04 614.456 1031.04 615.464C1031.04 616.152 1030.85 616.808 1030.46 617.432C1030.1 618.056 1029.52 618.568 1028.74 618.968C1027.97 619.368 1026.98 619.568 1025.76 619.568C1024.69 619.568 1023.74 619.424 1022.9 619.136C1022.07 618.864 1021.42 618.44 1020.96 617.864C1020.5 617.304 1020.26 616.592 1020.26 615.728C1020.26 615.28 1020.38 614.792 1020.62 614.264C1020.86 613.752 1021.31 613.264 1021.97 612.8C1021.62 612.656 1021.31 612.504 1021.06 612.344C1020.82 612.168 1020.59 611.976 1020.38 611.768V611.216L1022.42 609.2C1021.48 608.4 1021.01 607.344 1021.01 606.032C1021.01 605.248 1021.19 604.536 1021.56 603.896C1021.93 603.256 1022.46 602.752 1023.17 602.384C1023.87 602 1024.73 601.808 1025.74 601.808C1026.42 601.808 1027.05 601.904 1027.61 602.096H1032V603.608L1029.77 603.704C1030.23 604.376 1030.46 605.152 1030.46 606.032C1030.46 606.816 1030.27 607.528 1029.89 608.168C1029.52 608.808 1028.98 609.32 1028.28 609.704C1027.59 610.072 1026.74 610.256 1025.74 610.256ZM1025.74 608.6C1026.58 608.6 1027.26 608.384 1027.75 607.952C1028.26 607.504 1028.52 606.864 1028.52 606.032C1028.52 605.216 1028.26 604.592 1027.75 604.16C1027.26 603.712 1026.58 603.488 1025.74 603.488C1024.87 603.488 1024.18 603.712 1023.67 604.16C1023.18 604.592 1022.93 605.216 1022.93 606.032C1022.93 606.864 1023.18 607.504 1023.67 607.952C1024.18 608.384 1024.87 608.6 1025.74 608.6ZM1022.23 615.536C1022.23 616.336 1022.57 616.928 1023.24 617.312C1023.91 617.712 1024.75 617.912 1025.76 617.912C1026.75 617.912 1027.54 617.696 1028.14 617.264C1028.74 616.832 1029.05 616.256 1029.05 615.536C1029.05 615.024 1028.84 614.576 1028.42 614.192C1028.01 613.824 1027.24 613.608 1026.12 613.544C1025.24 613.48 1024.48 613.4 1023.84 613.304C1023.18 613.656 1022.75 614.032 1022.54 614.432C1022.34 614.848 1022.23 615.216 1022.23 615.536ZM1034.27 614V602.096H1036.1L1036.27 604.376C1036.63 603.592 1037.19 602.968 1037.95 602.504C1038.7 602.04 1039.63 601.808 1040.73 601.808V603.92H1040.18C1039.47 603.92 1038.83 604.048 1038.23 604.304C1037.64 604.544 1037.17 604.96 1036.82 605.552C1036.47 606.144 1036.29 606.96 1036.29 608V614H1034.27ZM1046.95 614.288C1045.96 614.288 1045.14 614.12 1044.48 613.784C1043.82 613.448 1043.34 613 1043.02 612.44C1042.7 611.88 1042.54 611.272 1042.54 610.616C1042.54 609.4 1043 608.464 1043.93 607.808C1044.86 607.152 1046.12 606.824 1047.72 606.824H1050.94V606.68C1050.94 605.64 1050.66 604.856 1050.12 604.328C1049.58 603.784 1048.85 603.512 1047.94 603.512C1047.15 603.512 1046.47 603.712 1045.9 604.112C1045.34 604.496 1044.98 605.064 1044.84 605.816H1042.78C1042.86 604.952 1043.14 604.224 1043.64 603.632C1044.15 603.04 1044.78 602.592 1045.54 602.288C1046.29 601.968 1047.09 601.808 1047.94 601.808C1049.6 601.808 1050.85 602.256 1051.68 603.152C1052.53 604.032 1052.95 605.208 1052.95 606.68V614H1051.15L1051.03 611.864C1050.7 612.536 1050.2 613.112 1049.54 613.592C1048.9 614.056 1048.04 614.288 1046.95 614.288ZM1047.26 612.584C1048.03 612.584 1048.69 612.384 1049.23 611.984C1049.79 611.584 1050.22 611.064 1050.5 610.424C1050.79 609.784 1050.94 609.112 1050.94 608.408V608.384H1047.89C1046.7 608.384 1045.86 608.592 1045.37 609.008C1044.89 609.408 1044.65 609.912 1044.65 610.52C1044.65 611.144 1044.87 611.648 1045.32 612.032C1045.78 612.4 1046.43 612.584 1047.26 612.584ZM1055.98 619.28V602.096H1057.8L1057.99 604.064C1058.38 603.488 1058.92 602.968 1059.62 602.504C1060.34 602.04 1061.26 601.808 1062.36 601.808C1063.54 601.808 1064.58 602.08 1065.46 602.624C1066.34 603.168 1067.02 603.912 1067.5 604.856C1067.99 605.8 1068.24 606.872 1068.24 608.072C1068.24 609.272 1067.99 610.344 1067.5 611.288C1067.02 612.216 1066.33 612.952 1065.43 613.496C1064.55 614.024 1063.52 614.288 1062.34 614.288C1061.36 614.288 1060.49 614.088 1059.72 613.688C1058.97 613.288 1058.39 612.728 1057.99 612.008V619.28H1055.98ZM1062.12 612.536C1062.92 612.536 1063.62 612.352 1064.23 611.984C1064.84 611.6 1065.32 611.072 1065.67 610.4C1066.02 609.728 1066.2 608.944 1066.2 608.048C1066.2 607.152 1066.02 606.368 1065.67 605.696C1065.32 605.024 1064.84 604.504 1064.23 604.136C1063.62 603.752 1062.92 603.56 1062.12 603.56C1061.32 603.56 1060.62 603.752 1060.01 604.136C1059.4 604.504 1058.92 605.024 1058.57 605.696C1058.22 606.368 1058.04 607.152 1058.04 608.048C1058.04 608.944 1058.22 609.728 1058.57 610.4C1058.92 611.072 1059.4 611.6 1060.01 611.984C1060.62 612.352 1061.32 612.536 1062.12 612.536ZM1071.05 614V596.72H1073.06V604.136C1073.46 603.4 1074.03 602.832 1074.77 602.432C1075.5 602.016 1076.3 601.808 1077.17 601.808C1078.54 601.808 1079.65 602.24 1080.48 603.104C1081.31 603.952 1081.73 605.264 1081.73 607.04V614H1079.73V607.256C1079.73 604.776 1078.73 603.536 1076.73 603.536C1075.69 603.536 1074.82 603.912 1074.12 604.664C1073.41 605.4 1073.06 606.456 1073.06 607.832V614H1071.05ZM1085.73 619.28L1088.68 612.848H1087.98L1083.25 602.096H1085.44L1089.37 611.36L1093.55 602.096H1095.64L1087.84 619.28H1085.73Z" fill="#666D89"/>
<path d="M931.368 529.288C930.136 529.288 929.048 529.08 928.104 528.664C927.16 528.232 926.416 527.624 925.872 526.84C925.328 526.04 925.048 525.072 925.032 523.936H928.272C928.304 524.72 928.584 525.384 929.112 525.928C929.656 526.456 930.4 526.72 931.344 526.72C932.16 526.72 932.808 526.528 933.288 526.144C933.768 525.744 934.008 525.216 934.008 524.56C934.008 523.872 933.792 523.336 933.36 522.952C932.944 522.568 932.384 522.256 931.68 522.016C930.976 521.776 930.224 521.52 929.424 521.248C928.128 520.8 927.136 520.224 926.448 519.52C925.776 518.816 925.44 517.88 925.44 516.712C925.424 515.72 925.656 514.872 926.136 514.168C926.632 513.448 927.304 512.896 928.152 512.512C929 512.112 929.976 511.912 931.08 511.912C932.2 511.912 933.184 512.112 934.032 512.512C934.896 512.912 935.568 513.472 936.048 514.192C936.544 514.912 936.808 515.768 936.84 516.76H933.552C933.536 516.168 933.304 515.648 932.856 515.2C932.424 514.736 931.816 514.504 931.032 514.504C930.36 514.488 929.792 514.656 929.328 515.008C928.88 515.344 928.656 515.84 928.656 516.496C928.656 517.056 928.832 517.504 929.184 517.84C929.536 518.16 930.016 518.432 930.624 518.656C931.232 518.88 931.928 519.12 932.712 519.376C933.544 519.664 934.304 520 934.992 520.384C935.68 520.768 936.232 521.28 936.648 521.92C937.064 522.544 937.272 523.352 937.272 524.344C937.272 525.224 937.048 526.04 936.6 526.792C936.152 527.544 935.488 528.152 934.608 528.616C933.728 529.064 932.648 529.288 931.368 529.288ZM943.653 529V514.672H938.757V512.2H951.645V514.672H946.725V529H943.653ZM958.265 529V523.024L952.625 512.2H956.105L959.825 519.952L963.521 512.2H966.953L961.337 523.024V529H958.265ZM968.921 529V512.2H971.993V526.6H979.433V529H968.921ZM982.14 529V512.2H993.108V514.672H985.212V519.28H992.388V521.68H985.212V526.528H993.108V529H982.14ZM1009.08 529.288C1007.49 529.288 1006.11 528.928 1004.93 528.208C1003.74 527.488 1002.82 526.488 1002.17 525.208C1001.51 523.912 1001.18 522.408 1001.18 520.696C1001.18 518.968 1001.52 517.448 1002.19 516.136C1002.88 514.808 1003.85 513.776 1005.09 513.04C1006.36 512.288 1007.85 511.912 1009.58 511.912C1011.55 511.912 1013.18 512.384 1014.48 513.328C1015.77 514.272 1016.61 515.576 1017 517.24H1013.57C1013.31 516.456 1012.85 515.848 1012.17 515.416C1011.5 514.968 1010.64 514.744 1009.58 514.744C1007.9 514.744 1006.61 515.28 1005.69 516.352C1004.78 517.408 1004.33 518.864 1004.33 520.72C1004.33 522.576 1004.77 524.016 1005.67 525.04C1006.58 526.048 1007.81 526.552 1009.37 526.552C1010.89 526.552 1012.03 526.144 1012.8 525.328C1013.58 524.496 1014.05 523.408 1014.21 522.064H1009.97V519.76H1017.31V529H1014.48L1014.24 526.792C1013.69 527.592 1013.01 528.208 1012.2 528.64C1011.38 529.072 1010.34 529.288 1009.08 529.288ZM1026.78 529.288C1025.54 529.288 1024.43 529.048 1023.44 528.568C1022.45 528.072 1021.66 527.328 1021.06 526.336C1020.49 525.344 1020.2 524.088 1020.2 522.568V512.2H1023.27V522.592C1023.27 523.904 1023.58 524.88 1024.21 525.52C1024.85 526.16 1025.73 526.48 1026.85 526.48C1027.95 526.48 1028.82 526.16 1029.46 525.52C1030.1 524.88 1030.42 523.904 1030.42 522.592V512.2H1033.5V522.568C1033.5 524.088 1033.19 525.344 1032.58 526.336C1031.98 527.328 1031.16 528.072 1030.14 528.568C1029.13 529.048 1028.01 529.288 1026.78 529.288ZM1036.63 529V512.2H1039.7V529H1036.63ZM1042.96 529V512.2H1048.7C1050.66 512.2 1052.28 512.552 1053.54 513.256C1054.82 513.944 1055.77 514.92 1056.38 516.184C1057 517.432 1057.31 518.904 1057.31 520.6C1057.31 522.296 1057 523.776 1056.38 525.04C1055.77 526.288 1054.82 527.264 1053.54 527.968C1052.28 528.656 1050.66 529 1048.7 529H1042.96ZM1046.03 526.36H1048.55C1049.96 526.36 1051.07 526.136 1051.89 525.688C1052.7 525.224 1053.29 524.568 1053.64 523.72C1053.99 522.856 1054.17 521.816 1054.17 520.6C1054.17 519.4 1053.99 518.368 1053.64 517.504C1053.29 516.64 1052.7 515.976 1051.89 515.512C1051.07 515.048 1049.96 514.816 1048.55 514.816H1046.03V526.36ZM1060.02 529V512.2H1070.99V514.672H1063.09V519.28H1070.27V521.68H1063.09V526.528H1070.99V529H1060.02Z" fill="#666D89"/>
<path d="M925.632 686V669.2H931.8C933.144 669.2 934.248 669.432 935.112 669.896C935.992 670.344 936.648 670.96 937.08 671.744C937.512 672.512 937.728 673.368 937.728 674.312C937.728 675.336 937.456 676.272 936.912 677.12C936.384 677.968 935.552 678.584 934.416 678.968L937.896 686H934.368L931.248 679.376H928.704V686H925.632ZM928.704 677.12H931.608C932.632 677.12 933.384 676.872 933.864 676.376C934.344 675.88 934.584 675.224 934.584 674.408C934.584 673.608 934.344 672.968 933.864 672.488C933.4 672.008 932.64 671.768 931.584 671.768H928.704V677.12ZM940.585 686V669.2H951.553V671.672H943.657V676.28H950.833V678.68H943.657V683.528H951.553V686H940.585ZM953.38 686L959.524 669.2H962.98L969.124 686H965.86L964.516 682.112H957.964L956.596 686H953.38ZM958.804 679.712H963.676L961.228 672.728L958.804 679.712ZM971.288 686V669.2H974.36V683.6H981.8V686H971.288ZM984.507 686V669.2H987.579V686H984.507ZM996.571 686.288C995.339 686.288 994.251 686.08 993.307 685.664C992.363 685.232 991.619 684.624 991.075 683.84C990.531 683.04 990.251 682.072 990.235 680.936H993.475C993.507 681.72 993.787 682.384 994.315 682.928C994.859 683.456 995.603 683.72 996.547 683.72C997.363 683.72 998.011 683.528 998.491 683.144C998.971 682.744 999.211 682.216 999.211 681.56C999.211 680.872 998.995 680.336 998.563 679.952C998.147 679.568 997.587 679.256 996.883 679.016C996.179 678.776 995.427 678.52 994.627 678.248C993.331 677.8 992.339 677.224 991.651 676.52C990.979 675.816 990.643 674.88 990.643 673.712C990.627 672.72 990.859 671.872 991.339 671.168C991.835 670.448 992.507 669.896 993.355 669.512C994.203 669.112 995.179 668.912 996.283 668.912C997.403 668.912 998.387 669.112 999.235 669.512C1000.1 669.912 1000.77 670.472 1001.25 671.192C1001.75 671.912 1002.01 672.768 1002.04 673.76H998.755C998.739 673.168 998.507 672.648 998.059 672.2C997.627 671.736 997.019 671.504 996.235 671.504C995.563 671.488 994.995 671.656 994.531 672.008C994.083 672.344 993.859 672.84 993.859 673.496C993.859 674.056 994.035 674.504 994.387 674.84C994.739 675.16 995.219 675.432 995.827 675.656C996.435 675.88 997.131 676.12 997.915 676.376C998.747 676.664 999.507 677 1000.2 677.384C1000.88 677.768 1001.44 678.28 1001.85 678.92C1002.27 679.544 1002.48 680.352 1002.48 681.344C1002.48 682.224 1002.25 683.04 1001.8 683.792C1001.36 684.544 1000.69 685.152 999.811 685.616C998.931 686.064 997.851 686.288 996.571 686.288ZM1004.08 686L1010.22 669.2H1013.68L1019.82 686H1016.56L1015.21 682.112H1008.66L1007.29 686H1004.08ZM1009.5 679.712H1014.37L1011.92 672.728L1009.5 679.712ZM1024.11 686V671.672H1019.22V669.2H1032.11V671.672H1027.19V686H1024.11ZM1034.38 686V669.2H1037.45V686H1034.38ZM1048.58 686.288C1046.9 686.288 1045.43 685.92 1044.17 685.184C1042.92 684.448 1041.93 683.432 1041.21 682.136C1040.51 680.824 1040.16 679.312 1040.16 677.6C1040.16 675.888 1040.51 674.384 1041.21 673.088C1041.93 671.776 1042.92 670.752 1044.17 670.016C1045.43 669.28 1046.9 668.912 1048.58 668.912C1050.25 668.912 1051.71 669.28 1052.97 670.016C1054.24 670.752 1055.22 671.776 1055.93 673.088C1056.63 674.384 1056.98 675.888 1056.98 677.6C1056.98 679.312 1056.63 680.824 1055.93 682.136C1055.22 683.432 1054.24 684.448 1052.97 685.184C1051.71 685.92 1050.25 686.288 1048.58 686.288ZM1048.58 683.528C1050.18 683.528 1051.45 683 1052.4 681.944C1053.36 680.888 1053.84 679.44 1053.84 677.6C1053.84 675.76 1053.36 674.312 1052.4 673.256C1051.45 672.2 1050.18 671.672 1048.58 671.672C1046.98 671.672 1045.7 672.2 1044.74 673.256C1043.78 674.312 1043.3 675.76 1043.3 677.6C1043.3 679.44 1043.78 680.888 1044.74 681.944C1045.7 683 1046.98 683.528 1048.58 683.528ZM1059.69 686V669.2H1062.77L1070.66 681.032V669.2H1073.73V686H1070.66L1062.77 674.192V686H1059.69Z" fill="#666D89"/>
<line x1="76" y1="168" x2="1224" y2="168" stroke="#666D89" stroke-width="2"/>
<line x1="924" y1="306" x2="1224" y2="306" stroke="#666D89" stroke-width="2"/>
<line x1="924" y1="387" x2="1224" y2="387" stroke="#666D89" stroke-width="2"/>
<line x1="924" y1="544" x2="1224" y2="544" stroke="#666D89" stroke-width="2"/>
<line x1="924" y1="701" x2="1224" y2="701" stroke="#666D89" stroke-width="2"/>
</svg>
