<svg width="426" height="51" viewBox="0 0 426 51" fill="none" xmlns="http://www.w3.org/2000/svg">
<g id="tuinexpressText">
<g id="p3">
<path id="Vector 61" d="M285.732 11.6859V37.6645" stroke="#FFB677" stroke-width="3" stroke-linecap="round"/>
<path id="Vector 62" d="M285 12.4176C285.704 12.3394 286.241 11.5848 286.911 11.3199C287.916 10.9227 289.44 10.3495 290.509 10.2426C291.756 10.1178 294.837 9.73372 295.977 10.3036C297.646 11.1379 298.172 14.6895 298.172 16.2595C298.172 18.0905 296.047 21.2992 294.31 21.9309C291.965 22.7836 289.658 22.6627 287.195 22.6627" stroke="#FFB677" stroke-width="3" stroke-linecap="round"/>
</g>
<g id="r5">
<path id="Vector 63" d="M306.588 16C306.588 20.9309 306.954 25.7262 306.954 30.6358" stroke="#FFB677" stroke-width="3" stroke-linecap="round"/>
<path id="Vector 64" d="M306.954 21.4884C308.872 19.5705 310.887 17.4635 313.723 17.4635C315.321 17.4635 317.482 17.6633 318.297 19.293" stroke="#FFB677" stroke-width="3" stroke-linecap="round"/>
</g>
<path id="o4" d="M331.068 16C328.439 16 327.184 17.5597 325.64 19.6325C324.23 21.5249 324.414 23.2849 324.414 25.6154C324.414 30.4384 329.35 31 332.818 31C336.833 31 339.596 25.7064 337.896 21.5983C336.85 19.0717 333.599 16.7692 331.068 16.7692" stroke="#FFB677" stroke-width="3" stroke-linecap="round"/>
<g id="j2">
<path id="Vector 66" d="M349.032 13.7122C349.032 17.0346 348.331 20.2759 348.3 23.5914C348.272 26.5678 348.402 29.5044 348.016 32.4542C347.612 35.5327 347.486 38.8909 346.654 41.8862C346.455 42.6014 346.458 44.0536 345.902 44.6101C345.265 45.2464 342.669 44.8502 341.897 44.793C339.262 44.5978 337.325 42.6206 336.226 40.4226" stroke="#FFB677" stroke-width="3" stroke-linecap="round"/>
<path id="Vector 67" d="M350.496 2.36935C348.77 2.58507 352.691 5.82966 352.691 3.64999C352.691 1.94933 350.75 1.24175 350.13 3.10115" stroke="#FFB677" stroke-width="3" stroke-linecap="round"/>
</g>
<path id="e5" d="M361.485 22.4618C363.547 22.4618 369.858 22.5973 369.858 19.4104C369.858 17.4304 368.608 16 366.662 16C365.732 16 364.802 16 363.871 16C362.938 16 362.465 16.9408 361.768 17.436C359.863 18.7883 360.192 25.5758 361.323 27.3281C363.568 30.8068 368.308 35.4779 372.406 31.4365" stroke="#FFB677" stroke-width="3" stroke-linecap="round"/>
<path id="c2" d="M393.699 16.8726C391.274 15.2233 390.34 15 387.581 15C385.968 15 383.972 15.3399 383.111 16.7061C381.064 19.9555 379.428 27.0721 381.092 30.7297C382.242 33.2581 385.119 34.8295 387.931 33.5386C388.944 33.0734 389.99 33.2717 391.021 32.6023C393.323 31.1076 395.471 28.9393 397.406 26.9845" stroke="#FFB677" stroke-width="3" stroke-linecap="round"/>
<g id="t4">
<path id="Vector 70" d="M409.405 12C409.405 15.3078 409.771 18.5613 409.771 21.8792C409.771 25.8848 409.556 30.121 411.031 33.9131C411.861 36.0466 413.013 36.2149 415.259 36.5964C420.871 37.5493 423.567 32.7702 424.407 27.7335" stroke="#FFB677" stroke-width="3" stroke-linecap="round"/>
<path id="Vector 71" d="M403.917 16.7567H420.748" stroke="#FFB677" stroke-width="3" stroke-linecap="round"/>
</g>
<path id="Vector 258" d="M11.1997 11.7769C11.1997 21.5211 11.0155 30.9716 13.999 40.2536C15.0304 43.4626 17.0369 47.5031 20.4049 48.8128C24.3277 50.3384 31.0767 48.5843 33.9704 45.6906" stroke="#FFB677" stroke-width="3" stroke-linecap="round"/>
<path id="Vector 259" d="M2.479 19.5286C6.68865 19.5286 11.082 20.496 15.2909 20.8743C19.8094 21.2805 24.2117 20.4975 28.641 20.4975" stroke="#FFB677" stroke-width="3" stroke-linecap="round"/>
<path id="Vector 260" d="M45.5981 26.3114C45.5981 30.174 44.8729 34.8425 46.1902 38.5311C46.9228 40.5824 49.6583 45.6907 52.1655 45.6907C56.8771 45.6907 58.6303 41.1168 59.4058 37.2392C60.0373 34.0816 59.6505 30.7314 58.4369 27.7649C57.9813 26.6514 57.1337 22.8741 56.2567 22.4355" stroke="#FFB677" stroke-width="3" stroke-linecap="round"/>
<path id="Vector 261" d="M75.636 23.4045C75.636 27.3437 75.5561 31.1493 76.2281 35.0321C76.4396 36.2538 77.0895 42.3928 77.0895 38.4235" stroke="#FFB677" stroke-width="3" stroke-linecap="round"/>
<path id="Vector 262" d="M74.1825 7.90109C73.978 6.26536 72.729 8.87536 72.729 9.59678C72.729 11.3874 74.9627 10.6932 75.6359 11.5347C76.4267 12.5233 77.5738 10.4753 77.5738 9.83902C77.5738 8.38405 76.9061 7.56721 75.6359 6.93213" stroke="#FFB677" stroke-width="3" stroke-linecap="round"/>
<path id="Vector 263" d="M90.1704 21.9509V38.4233" stroke="#FFB677" stroke-width="3" stroke-linecap="round"/>
<path id="Vector 264" d="M89.2014 28.7337C89.8921 27.3091 90.6285 24.489 92.5928 24.3734C94.9168 24.2367 96.7421 25.1314 98.4066 26.7958C101.323 29.7121 99.3755 34.4419 99.3755 37.9389" stroke="#FFB677" stroke-width="3" stroke-linecap="round"/>
<path id="Vector 265" d="M114.394 25.3424C116.689 25.3424 124.357 25.7669 124.569 21.951C124.809 17.6272 117.637 16.899 114.879 19.0441C111.037 22.0325 108.821 29.5109 112.941 33.3363C114.545 34.8254 121.498 39.2346 123.115 36.001" stroke="#FFB677" stroke-width="3" stroke-linecap="round"/>
<path id="Vector 266" d="M147.339 20.4976C144.355 23.4817 140.145 25.238 136.95 28.007C135.407 29.3439 133.741 31.4901 131.836 32.1251" stroke="#FFB677" stroke-width="3" stroke-linecap="round"/>
<path id="Vector 267" d="M134.743 20.4976C139.506 27.2666 147.032 33.4693 153.637 38.4234" stroke="#FFB677" stroke-width="3" stroke-linecap="round"/>
<path id="Vector 268" d="M159.451 20.9821C159.451 25.6604 160.801 30.4862 161.874 35.032C162.56 37.9368 162.685 40.9734 163.22 43.9142C163.402 44.9166 163.327 47.0486 163.327 44.7217" stroke="#FFB677" stroke-width="3" stroke-linecap="round"/>
<path id="Vector 269" d="M160.42 20.0131C160.646 18.2058 166.098 18.4861 167.203 18.5866C169.752 18.8183 172.999 20.9502 174.228 23.1622C176.139 26.6011 166.999 28.7338 164.781 28.7338" stroke="#FFB677" stroke-width="3" stroke-linecap="round"/>
<path id="Vector 270" d="M184.645 13.2303C184.997 19.9304 187.551 26.9381 187.551 33.5786" stroke="#FFB677" stroke-width="3" stroke-linecap="round"/>
<path id="Vector 271" d="M186.582 21.4665C186.342 18.8207 185.592 17.713 188.897 17.5906C190.195 17.5425 195.195 16.8895 195.788 18.0751" stroke="#FFB677" stroke-width="3" stroke-linecap="round"/>
<path id="Vector 272" d="M204.508 24.858C204.621 23.9586 210.675 23.9075 211.56 23.8621C214.038 23.735 217.449 23.06 219.285 21.2244C222.617 17.8925 218.827 16.0491 215.651 16.1373C211.731 16.2462 206.931 21.3315 206.931 25.1002C206.931 28.0851 211.095 36.1976 214.682 32.6097" stroke="#FFB677" stroke-width="3" stroke-linecap="round"/>
<path id="Vector 273" d="M238.422 17.5908C238.196 15.7879 231.969 19.5851 231.666 21.2513C230.988 24.98 234.529 25.2289 237.345 26.2038C239.637 26.997 240.36 27.8945 240.36 30.4295C240.36 32.9757 234.979 32.1252 233.093 32.1252" stroke="#FFB677" stroke-width="3" stroke-linecap="round"/>
<path id="Vector 274" d="M249.565 15.1682C246.752 15.4808 244.72 18.932 244.72 21.4665C244.72 23.8606 252.08 25.0881 253.898 25.3154C256.001 25.5783 256.362 28.5614 255.836 30.4025C255.394 31.9512 251.774 32.1251 250.534 32.1251" stroke="#FFB677" stroke-width="3" stroke-linecap="round"/>
</g>
</svg>
