<svg width="122" height="150" viewBox="0 0 122 150" fill="none" xmlns="http://www.w3.org/2000/svg">
<path d="M78.5276 45.4731C41.276 45.4731 50.8773 91.3196 67.0069 145.762C39.116 145.762 32.4276 169.885 28.0112 103.026C28.011 58.5168 6.08817 8.41378 33.9791 8.41378C182.217 6.12136 104.066 48.1476 78.5276 45.4731Z" fill="#8CD9F2"/>
<path d="M15.9684 58.9493C25.4192 46.5456 37.6043 61.6225 30.8443 67.394C24.0842 73.1655 15.3054 71.1935 9.50399 64.4684C3.70256 57.7432 3.29439 50.6385 10.0545 44.8671C16.8145 39.0956 25.1506 50.0474 15.9684 58.9493Z" fill="#1A6AE3"/>
<path d="M61.2134 113.379C76.1098 118.137 65.8521 134.572 58.1374 130.141C50.4227 125.71 49.382 116.817 53.8361 109.142C58.2902 101.467 64.8924 98.7283 72.6071 103.159C80.3218 107.59 72.6999 119.046 61.2134 113.379Z" fill="#71F91E"/>
<path d="M68.1682 10.9543C86.602 6.17873 79.6698 24.5836 72.7766 24.5836C65.8834 24.5836 60.2954 19.0244 60.2954 12.1669C60.2954 5.30935 68.1682 -0.698255 81.4175 0.0657534C83.5297 13.0556 68.1682 4.09684 68.1682 10.9543Z" fill="#F94E1E"/>
</svg>
